font.ufo
<glyph name="comma" format="2">
	<unicode hex="002C"/>
	<advance width="284"/>
	<outline>
		<contour>
			<point x="7" y="-154" type="line"/>
			<point x="92" y="-118"/>
			<point x="146" y="-51"/>
			<point x="146" y="38" type="curve" smooth="yes"/>
			<point x="146" y="47"/>
			<point x="144" y="54"/>
			<point x="143" y="61" type="curve"/>
			<point x="134" y="71"/>
			<point x="123" y="76"/>
			<point x="107" y="76" type="curve" smooth="yes"/>
			<point x="84" y="76"/>
			<point x="66" y="58"/>
			<point x="66" y="35" type="curve" smooth="yes"/>
			<point x="66" y="16"/>
			<point x="72" y="6"/>
			<point x="92" y="-7" type="curve" smooth="yes"/>
			<point x="118" y="-24" type="line"/>
			<point x="114" y="-7" type="line"/>
			<point x="96" y="-70"/>
			<point x="63" y="-100"/>
			<point x="-2" y="-133" type="curve"/>
		</contour>
	</outline>
</glyph>
<glyph name="A" format="2">
	<unicode hex="0041"/>
	<advance width="644"/>
	<outline>
		<contour>
			<point x="-34" y="0" type="line"/>
			<point x="169" y="0" type="line"/>
			<point x="174" y="24" type="line"/>
			<point x="77" y="33" type="line"/>
			<point x="62" y="33" type="line"/>
			<point x="-29" y="24" type="line"/>
		</contour>
		<contour>
			<point x="35" y="0" type="line"/>
			<point x="69" y="0" type="line"/>
			<point x="384" y="620" type="line"/>
			<point x="388" y="629" type="line"/>
			<point x="377" y="629" type="line"/>
			<point x="460" y="0" type="line"/>
			<point x="512" y="0" type="line"/>
			<point x="418" y="680" type="line"/>
			<point x="389" y="680" type="line"/>
		</contour>
		<contour>
			<point x="179" y="247" type="line"/>
			<point x="456" y="247" type="line"/>
			<point x="457" y="274" type="line"/>
			<point x="189" y="274" type="line"/>
		</contour>
		<contour>
			<point x="352" y="0" type="line"/>
			<point x="594" y="0" type="line"/>
			<point x="599" y="24" type="line"/>
			<point x="491" y="33" type="line"/>
			<point x="474" y="33" type="line"/>
			<point x="356" y="24" type="line"/>
		</contour>
	</outline>
	<anchor name="aboveUC" x="402" y="694"/>
	<anchor name="belowLC" x="266" y="-20"/>
	<anchor name="ogonek" x="502" y="0"/>
</glyph>
<glyph name="D" format="2">
	<unicode hex="0044"/>
	<advance width="665"/>
	<outline>
		<contour>
			<point x="5" y="0" type="line"/>
			<point x="126" y="0" type="line"/>
			<point x="132" y="33" type="line"/>
			<point x="121" y="33" type="line"/>
			<point x="10" y="24" type="line"/>
		</contour>
		<contour>
			<point x="99" y="0" type="line"/>
			<point x="152" y="0" type="line"/>
			<point x="168" y="104"/>
			<point x="186" y="208"/>
			<point x="205" y="312" type="curve" smooth="yes"/>
			<point x="273" y="674" type="line"/>
			<point x="221" y="674" type="line"/>
			<point x="204" y="570"/>
			<point x="187" y="466"/>
			<point x="167" y="363" type="curve" smooth="yes"/>
		</contour>
		<contour>
			<point x="118" y="650" type="line"/>
			<point x="233" y="640" type="line"/>
			<point x="246" y="640" type="line"/>
			<point x="252" y="674" type="line"/>
			<point x="122" y="674" type="line"/>
		</contour>
		<contour>
			<point x="122" y="0" type="line"/>
			<point x="249" y="0" type="line" smooth="yes"/>
			<point x="479" y="0"/>
			<point x="644" y="156"/>
			<point x="644" y="398" type="curve" smooth="yes"/>
			<point x="644" y="575"/>
			<point x="537" y="674"/>
			<point x="347" y="674" type="curve" smooth="yes"/>
			<point x="247" y="674" type="line"/>
			<point x="242" y="646" type="line"/>
			<point x="333" y="646" type="line" smooth="yes"/>
			<point x="503" y="646"/>
			<point x="591" y="562"/>
			<point x="591" y="399" type="curve" smooth="yes"/>
			<point x="591" y="195"/>
			<point x="472" y="27"/>
			<point x="248" y="27" type="curve" smooth="yes"/>
			<point x="127" y="27" type="line"/>
		</contour>
	</outline>
	<anchor name="aboveUC" x="388" y="694"/>
	<anchor name="belowLC" x="278" y="-20"/>
</glyph>
<glyph name="F" format="2">
	<unicode hex="0046"/>
	<advance width="536"/>
	<outline>
		<contour>
			<point x="5" y="0" type="line"/>
			<point x="257" y="0" type="line"/>
			<point x="261" y="24" type="line"/>
			<point x="140" y="33" type="line"/>
			<point x="123" y="33" type="line"/>
			<point x="10" y="24" type="line"/>
		</contour>
		<contour>
			<point x="99" y="0" type="line"/>
			<point x="152" y="0" type="line"/>
			<point x="168" y="104"/>
			<point x="186" y="208"/>
			<point x="205" y="312" type="curve" smooth="yes"/>
			<point x="273" y="674" type="line"/>
			<point x="221" y="674" type="line"/>
			<point x="204" y="570"/>
			<point x="187" y="466"/>
			<point x="167" y="363" type="curve" smooth="yes"/>
		</contour>
		<contour>
			<point x="118" y="650" type="line"/>
			<point x="233" y="640" type="line"/>
			<point x="245" y="640" type="line"/>
			<point x="252" y="674" type="line"/>
			<point x="122" y="674" type="line"/>
		</contour>
		<contour>
			<point x="185" y="329" type="line"/>
			<point x="399" y="329" type="line"/>
			<point x="404" y="356" type="line"/>
			<point x="191" y="356" type="line"/>
		</contour>
		<contour>
			<point x="243" y="645" type="line"/>
			<point x="553" y="645" type="line"/>
			<point x="532" y="671" type="line"/>
			<point x="531" y="509" type="line"/>
			<point x="559" y="509" type="line"/>
			<point x="581" y="674" type="line"/>
			<point x="248" y="674" type="line"/>
		</contour>
		<contour>
			<point x="379" y="229" type="line"/>
			<point x="402" y="229" type="line"/>
			<point x="444" y="454" type="line"/>
			<point x="420" y="454" type="line"/>
			<point x="387" y="352" type="line"/>
			<point x="384" y="334" type="line"/>
		</contour>
	</outline>
	<anchor name="aboveUC" x="379" y="694"/>
	<anchor name="belowLC" x="128" y="-20"/>
</glyph>
<glyph name="I" format="2">
	<unicode hex="0049"/>
	<advance width="332"/>
	<outline>
		<contour>
			<point x="5" y="0" type="line"/>
			<point x="251" y="0" type="line"/>
			<point x="255" y="24" type="line"/>
			<point x="140" y="33" type="line"/>
			<point x="123" y="33" type="line"/>
			<point x="10" y="24" type="line"/>
		</contour>
		<contour>
			<point x="99" y="0" type="line"/>
			<point x="152" y="0" type="line"/>
			<point x="168" y="104"/>
			<point x="186" y="208"/>
			<point x="205" y="312" type="curve" smooth="yes"/>
			<point x="273" y="674" type="line"/>
			<point x="221" y="674" type="line"/>
			<point x="204" y="570"/>
			<point x="187" y="466"/>
			<point x="167" y="362" type="curve" smooth="yes"/>
		</contour>
		<contour>
			<point x="118" y="650" type="line"/>
			<point x="233" y="640" type="line"/>
			<point x="251" y="640" type="line"/>
			<point x="364" y="650" type="line"/>
			<point x="368" y="674" type="line"/>
			<point x="122" y="674" type="line"/>
		</contour>
	</outline>
	<anchor name="aboveUC" x="249" y="694"/>
	<anchor name="belowLC" x="124" y="-20"/>
	<anchor name="ogonek" x="173" y="0"/>
</glyph>
<glyph name="J" format="2">
	<unicode hex="004A"/>
	<advance width="336"/>
	<outline>
		<contour>
			<point x="-99" y="-89" type="curve"/>
			<point x="-94" y="-115"/>
			<point x="-61" y="-127"/>
			<point x="-19" y="-127" type="curve" smooth="yes"/>
			<point x="43" y="-127"/>
			<point x="107" y="-78"/>
			<point x="142" y="21" type="curve" smooth="yes"/>
			<point x="169" y="72"/>
			<point x="184" y="125"/>
			<point x="206" y="241" type="curve" smooth="yes"/>
			<point x="288" y="674" type="line"/>
			<point x="236" y="674" type="line"/>
			<point x="215" y="551"/>
			<point x="196" y="445"/>
			<point x="179" y="352" type="curve" smooth="yes"/>
			<point x="156" y="220"/>
			<point x="143" y="157"/>
			<point x="131" y="93" type="curve" smooth="yes"/>
			<point x="109" y="-17"/>
			<point x="69" y="-79"/>
			<point x="7" y="-102" type="curve"/>
			<point x="7" y="-107" type="line"/>
			<point x="30" y="-107" type="line"/>
			<point x="30" y="-102" type="line"/>
			<point x="-16" y="-68"/>
			<point x="-32" y="-59"/>
			<point x="-51" y="-59" type="curve" smooth="yes"/>
			<point x="-75" y="-59"/>
			<point x="-94" y="-71"/>
		</contour>
		<contour>
			<point x="125" y="650" type="line"/>
			<point x="248" y="640" type="line"/>
			<point x="264" y="640" type="line"/>
			<point x="380" y="650" type="line"/>
			<point x="385" y="674" type="line"/>
			<point x="130" y="674" type="line"/>
		</contour>
	</outline>
	<anchor name="aboveUC" x="264" y="694"/>
	<anchor name="belowLC" x="43" y="-147"/>
</glyph>
<glyph name="L" format="2">
	<unicode hex="004C"/>
	<advance width="540"/>
	<outline>
		<contour>
			<point x="5" y="0" type="line"/>
			<point x="126" y="0" type="line"/>
			<point x="132" y="33" type="line"/>
			<point x="121" y="33" type="line"/>
			<point x="10" y="24" type="line"/>
		</contour>
		<contour>
			<point x="99" y="0" type="line"/>
			<point x="152" y="0" type="line"/>
			<point x="168" y="104"/>
			<point x="186" y="208"/>
			<point x="205" y="312" type="curve" smooth="yes"/>
			<point x="273" y="674" type="line"/>
			<point x="221" y="674" type="line"/>
			<point x="204" y="570"/>
			<point x="187" y="466"/>
			<point x="167" y="363" type="curve" smooth="yes"/>
		</contour>
		<contour>
			<point x="118" y="650" type="line"/>
			<point x="233" y="640" type="line"/>
			<point x="254" y="640" type="line"/>
			<point x="366" y="650" type="line"/>
			<point x="371" y="674" type="line"/>
			<point x="122" y="674" type="line"/>
		</contour>
		<contour>
			<point x="123" y="0" type="line"/>
			<point x="471" y="0" type="line"/>
			<point x="510" y="174" type="line"/>
			<point x="480" y="174" type="line"/>
			<point x="421" y="3" type="line"/>
			<point x="454" y="29" type="line"/>
			<point x="129" y="29" type="line"/>
		</contour>
	</outline>
	<anchor name="aboveUC" x="250" y="694"/>
	<anchor name="belowLC" x="263" y="-20"/>
</glyph>
<glyph name="M" format="2">
	<unicode hex="004D"/>
	<advance width="885"/>
	<outline>
		<contour>
			<point x="-6" y="0" type="line"/>
			<point x="211" y="0" type="line"/>
			<point x="216" y="24" type="line"/>
			<point x="112" y="33" type="line"/>
			<point x="98" y="33" type="line"/>
			<point x="-1" y="24" type="line"/>
		</contour>
		<contour>
			<point x="84" y="0" type="line"/>
			<point x="114" y="0" type="line"/>
			<point x="185" y="311" type="line"/>
			<point x="266" y="664" type="line"/>
			<point x="237" y="664" type="line"/>
		</contour>
		<contour>
			<point x="378" y="0" type="line"/>
			<point x="399" y="0" type="line"/>
			<point x="762" y="622" type="line"/>
			<point x="769" y="634" type="line"/>
			<point x="785" y="634" type="line"/>
			<point x="785" y="674" type="line"/>
			<point x="762" y="674" type="line"/>
			<point x="405" y="63" type="line"/>
			<point x="398" y="51" type="line"/>
			<point x="417" y="51" type="line"/>
			<point x="289" y="674" type="line"/>
			<point x="143" y="674" type="line"/>
			<point x="138" y="650" type="line"/>
			<point x="244" y="640" type="line"/>
			<point x="246" y="627" type="line"/>
			<point x="248" y="620" type="line"/>
		</contour>
		<contour>
			<point x="573" y="0" type="line"/>
			<point x="812" y="0" type="line"/>
			<point x="816" y="24" type="line"/>
			<point x="704" y="34" type="line"/>
			<point x="687" y="34" type="line"/>
			<point x="577" y="24" type="line"/>
		</contour>
		<contour>
			<point x="664" y="0" type="line"/>
			<point x="716" y="0" type="line"/>
			<point x="730" y="102"/>
			<point x="741" y="207"/>
			<point x="756" y="311" type="curve" smooth="yes"/>
			<point x="811" y="674" type="line"/>
			<point x="775" y="674" type="line"/>
			<point x="757" y="638" type="line"/>
		</contour>
		<contour>
			<point x="774" y="640" type="line"/>
			<point x="788" y="640" type="line"/>
			<point x="903" y="650" type="line"/>
			<point x="907" y="674" type="line"/>
			<point x="777" y="674" type="line"/>
		</contour>
	</outline>
	<anchor name="aboveUC" x="517" y="694"/>
	<anchor name="belowLC" x="389" y="-20"/>
</glyph>
<glyph name="N" format="2">
	<unicode hex="004E"/>
	<advance width="707"/>
	<outline>
		<contour>
			<point x="4" y="0" type="line"/>
			<point x="230" y="0" type="line"/>
			<point x="234" y="24" type="line"/>
			<point x="121" y="33" type="line"/>
			<point x="107" y="33" type="line"/>
			<point x="8" y="24" type="line"/>
		</contour>
		<contour>
			<point x="91" y="0" type="line"/>
			<point x="121" y="0" type="line"/>
			<point x="184" y="332" type="line"/>
			<point x="246" y="663" type="line"/>
			<point x="216" y="663" type="line"/>
		</contour>
		<contour>
			<point x="535" y="650" type="line"/>
			<point x="652" y="640" type="line"/>
			<point x="665" y="640" type="line"/>
			<point x="758" y="650" type="line"/>
			<point x="763" y="674" type="line"/>
			<point x="540" y="674" type="line"/>
		</contour>
		<contour>
			<point x="559" y="63" type="line"/>
			<point x="548" y="63" type="line"/>
			<point x="259" y="674" type="line"/>
			<point x="120" y="674" type="line"/>
			<point x="115" y="650" type="line"/>
			<point x="216" y="643" type="line"/>
			<point x="225" y="625" type="line"/>
			<point x="227" y="621" type="line"/>
			<point x="530" y="-9" type="line"/>
			<point x="552" y="-9" type="line"/>
			<point x="680" y="674" type="line"/>
			<point x="650" y="674" type="line"/>
			<point x="586" y="332" type="line"/>
			<point x="531" y="38" type="line"/>
		</contour>
	</outline>
	<anchor name="aboveUC" x="435" y="694"/>
	<anchor name="belowLC" x="337" y="-20"/>
</glyph>
<glyph name="Q" format="2">
	<unicode hex="0051"/>
	<advance width="646"/>
	<outline>
		<contour>
			<point x="465" y="-247" type="curve" smooth="yes"/>
			<point x="533" y="-247"/>
			<point x="585" y="-222"/>
			<point x="628" y="-183" type="curve"/>
			<point x="618" y="-166" type="line"/>
			<point x="573" y="-197"/>
			<point x="532" y="-211"/>
			<point x="478" y="-211" type="curve" smooth="yes"/>
			<point x="366" y="-211"/>
			<point x="288" y="-146"/>
			<point x="299" y="5" type="curve"/>
			<point x="253" y="5" type="line"/>
			<point x="242" y="-161"/>
			<point x="334" y="-247"/>
		</contour>
		<component base="O"/>
	</outline>
	<anchor name="aboveUC" x="394" y="694"/>
</glyph>
<glyph name="R" format="2">
	<unicode hex="0052"/>
	<advance width="619"/>
	<outline>
		<contour>
			<point x="5" y="0" type="line"/>
			<point x="255" y="0" type="line"/>
			<point x="259" y="24" type="line"/>
			<point x="139" y="33" type="line"/>
			<point x="122" y="33" type="line"/>
			<point x="10" y="24" type="line"/>
		</contour>
		<contour>
			<point x="99" y="0" type="line"/>
			<point x="152" y="0" type="line"/>
			<point x="168" y="104"/>
			<point x="186" y="210"/>
			<point x="206" y="314" type="curve" smooth="yes"/>
			<point x="273" y="674" type="line"/>
			<point x="221" y="674" type="line"/>
			<point x="204" y="570"/>
			<point x="187" y="466"/>
			<point x="167" y="362" type="curve" smooth="yes"/>
		</contour>
		<contour>
			<point x="118" y="650" type="line"/>
			<point x="233" y="640" type="line"/>
			<point x="246" y="640" type="line"/>
			<point x="251" y="674" type="line"/>
			<point x="122" y="674" type="line"/>
		</contour>
		<contour>
			<point x="526" y="-6" type="curve" smooth="yes"/>
			<point x="555" y="-6"/>
			<point x="576" y="-3"/>
			<point x="595" y="0" type="curve"/>
			<point x="599" y="23" type="line"/>
			<point x="475" y="33" type="line"/>
			<point x="509" y="19" type="line"/>
			<point x="430" y="214" type="line" smooth="yes"/>
			<point x="401" y="288"/>
			<point x="380" y="318"/>
			<point x="318" y="325" type="curve"/>
			<point x="326" y="316" type="line"/>
			<point x="466" y="323"/>
			<point x="553" y="410"/>
			<point x="553" y="518" type="curve" smooth="yes"/>
			<point x="553" y="617"/>
			<point x="483" y="674"/>
			<point x="353" y="674" type="curve" smooth="yes"/>
			<point x="247" y="674" type="line"/>
			<point x="242" y="646" type="line"/>
			<point x="343" y="646" type="line" smooth="yes"/>
			<point x="457" y="646"/>
			<point x="503" y="597"/>
			<point x="503" y="516" type="curve" smooth="yes"/>
			<point x="503" y="416"/>
			<point x="429" y="340"/>
			<point x="312" y="340" type="curve" smooth="yes"/>
			<point x="186" y="340" type="line"/>
			<point x="181" y="314" type="line"/>
			<point x="266" y="314" type="line" smooth="yes"/>
			<point x="334" y="314"/>
			<point x="351" y="296"/>
			<point x="383" y="213" type="curve" smooth="yes"/>
			<point x="448" y="43" type="line" smooth="yes"/>
			<point x="462" y="5"/>
			<point x="479" y="-6"/>
		</contour>
	</outline>
	<anchor name="aboveUC" x="349" y="694"/>
	<anchor name="belowLC" x="335" y="-20"/>
</glyph>
<glyph name="T" format="2">
	<unicode hex="0054"/>
	<advance width="585"/>
	<outline>
		<contour>
			<point x="78" y="502" type="line"/>
			<point x="107" y="502" type="line"/>
			<point x="166" y="671" type="line"/>
			<point x="136" y="645" type="line"/>
			<point x="607" y="645" type="line"/>
			<point x="586" y="671" type="line"/>
			<point x="584" y="502" type="line"/>
			<point x="613" y="502" type="line"/>
			<point x="635" y="674" type="line"/>
			<point x="118" y="674" type="line"/>
		</contour>
		<contour>
			<point x="125" y="0" type="line"/>
			<point x="386" y="0" type="line"/>
			<point x="391" y="24" type="line"/>
			<point x="267" y="33" type="line"/>
			<point x="250" y="33" type="line"/>
			<point x="130" y="24" type="line"/>
		</contour>
		<contour>
			<point x="226" y="0" type="line"/>
			<point x="279" y="0" type="line"/>
			<point x="295" y="104"/>
			<point x="314" y="208"/>
			<point x="333" y="312" type="curve" smooth="yes"/>
			<point x="401" y="674" type="line"/>
			<point x="348" y="674" type="line"/>
			<point x="331" y="570"/>
			<point x="314" y="466"/>
			<point x="294" y="363" type="curve" smooth="yes"/>
		</contour>
	</outline>
	<anchor name="aboveUC" x="376" y="694"/>
	<anchor name="baseLC" x="255" y="0"/>
	<anchor name="belowLC" x="255" y="-20"/>
</glyph>
<glyph name="X" format="2">
	<unicode hex="0058"/>
	<advance width="623"/>
	<outline>
		<contour>
			<point x="-19" y="0" type="line"/>
			<point x="204" y="0" type="line"/>
			<point x="208" y="24" type="line"/>
			<point x="100" y="33" type="line"/>
			<point x="84" y="33" type="line"/>
			<point x="-14" y="24" type="line"/>
		</contour>
		<contour>
			<point x="45" y="0" type="line"/>
			<point x="82" y="0" type="line"/>
			<point x="326" y="319" type="line"/>
			<point x="330" y="323" type="line"/>
			<point x="344" y="323" type="line"/>
			<point x="324" y="353" type="line"/>
		</contour>
		<contour>
			<point x="106" y="650" type="line"/>
			<point x="208" y="640" type="line"/>
			<point x="224" y="640" type="line"/>
			<point x="340" y="650" type="line"/>
			<point x="344" y="674" type="line"/>
			<point x="111" y="674" type="line"/>
		</contour>
		<contour>
			<point x="373" y="0" type="line"/>
			<point x="574" y="2" type="line"/>
			<point x="564" y="25" type="line"/>
			<point x="475" y="33" type="line"/>
			<point x="444" y="32" type="line"/>
			<point x="344" y="22" type="line"/>
		</contour>
		<contour>
			<point x="343" y="337" type="line"/>
			<point x="572" y="618" type="line"/>
			<point x="580" y="674" type="line"/>
			<point x="384" y="424" type="line"/>
			<point x="341" y="367" type="line"/>
			<point x="328" y="366" type="line"/>
		</contour>
		<contour>
			<point x="452" y="650" type="line"/>
			<point x="559" y="640" type="line"/>
			<point x="575" y="640" type="line"/>
			<point x="674" y="650" type="line"/>
			<point x="678" y="674" type="line"/>
			<point x="456" y="674" type="line"/>
		</contour>
		<contour>
			<point x="451" y="0" type="line"/>
			<point x="504" y="0" type="line"/>
			<point x="227" y="674" type="line"/>
			<point x="174" y="674" type="line"/>
		</contour>
	</outline>
	<anchor name="aboveUC" x="401" y="694"/>
	<anchor name="belowLC" x="272" y="-20"/>
</glyph>
<glyph name="Y" format="2">
	<unicode hex="0059"/>
	<advance width="565"/>
	<outline>
		<contour>
			<point x="68" y="650" type="line"/>
			<point x="167" y="640" type="line"/>
			<point x="184" y="640" type="line"/>
			<point x="300" y="650" type="line"/>
			<point x="304" y="674" type="line"/>
			<point x="73" y="674" type="line"/>
		</contour>
		<contour>
			<point x="115" y="0" type="line"/>
			<point x="382" y="0" type="line"/>
			<point x="387" y="24" type="line"/>
			<point x="263" y="33" type="line"/>
			<point x="246" y="33" type="line"/>
			<point x="120" y="24" type="line"/>
		</contour>
		<contour>
			<point x="282" y="244" type="line"/>
			<point x="304" y="246" type="line"/>
			<point x="591" y="674" type="line"/>
			<point x="559" y="674" type="line"/>
			<point x="310" y="299" type="line"/>
			<point x="306" y="292" type="line"/>
			<point x="317" y="292" type="line"/>
			<point x="190" y="674" type="line"/>
			<point x="136" y="674" type="line"/>
		</contour>
		<contour>
			<point x="222" y="0" type="line"/>
			<point x="273" y="0" type="line"/>
			<point x="289" y="99"/>
			<point x="306" y="193"/>
			<point x="325" y="294" type="curve"/>
			<point x="277" y="294" type="line"/>
		</contour>
		<contour>
			<point x="441" y="650" type="line"/>
			<point x="545" y="640" type="line"/>
			<point x="561" y="640" type="line"/>
			<point x="654" y="650" type="line"/>
			<point x="659" y="674" type="line"/>
			<point x="445" y="674" type="line"/>
		</contour>
	</outline>
	<anchor name="aboveUC" x="370" y="694"/>
	<anchor name="belowLC" x="246" y="-20"/>
</glyph>
<glyph name="Z" format="2">
	<unicode hex="005A"/>
	<advance width="534"/>
	<outline>
		<contour>
			<point x="-5" y="0" type="line"/>
			<point x="465" y="0" type="line"/>
			<point x="505" y="172" type="line"/>
			<point x="475" y="172" type="line"/>
			<point x="418" y="13" type="line"/>
			<point x="443" y="29" type="line"/>
			<point x="245" y="29" type="line"/>
			<point x="54" y="29" type="line"/>
			<point x="55" y="37" type="line"/>
			<point x="45" y="13" type="line"/>
			<point x="562" y="651" type="line"/>
			<point x="566" y="674" type="line"/>
			<point x="123" y="674" type="line"/>
			<point x="86" y="505" type="line"/>
			<point x="115" y="505" type="line"/>
			<point x="170" y="662" type="line"/>
			<point x="144" y="645" type="line"/>
			<point x="334" y="645" type="line"/>
			<point x="508" y="645" type="line"/>
			<point x="506" y="635" type="line"/>
			<point x="516" y="661" type="line"/>
			<point x="-1" y="22" type="line"/>
		</contour>
	</outline>
	<anchor name="aboveUC" x="343" y="694"/>
	<anchor name="belowLC" x="240" y="-20"/>
</glyph>
<glyph name="c" format="2">
	<unicode hex="0063"/>
	<advance width="399"/>
	<outline>
		<contour>
			<point x="196" y="-13" type="curve" smooth="yes"/>
			<point x="264" y="-13"/>
			<point x="323" y="32"/>
			<point x="364" y="98" type="curve"/>
			<point x="350" y="109" type="line"/>
			<point x="314" y="62"/>
			<point x="269" y="26"/>
			<point x="213" y="26" type="curve" smooth="yes"/>
			<point x="143" y="26"/>
			<point x="96" y="74"/>
			<point x="96" y="170" type="curve" smooth="yes"/>
			<point x="96" y="307"/>
			<point x="190" y="454"/>
			<point x="310" y="459" type="curve"/>
			<point x="319" y="459" type="line"/>
			<point x="319" y="465" type="line"/>
			<point x="288" y="465" type="line"/>
			<point x="332" y="418" type="line" smooth="yes"/>
			<point x="348" y="402"/>
			<point x="358" y="393"/>
			<point x="373" y="393" type="curve" smooth="yes"/>
			<point x="386" y="393"/>
			<point x="399" y="401"/>
			<point x="400" y="417" type="curve"/>
			<point x="390" y="448"/>
			<point x="353" y="478"/>
			<point x="304" y="478" type="curve" smooth="yes"/>
			<point x="175" y="478"/>
			<point x="52" y="326"/>
			<point x="52" y="162" type="curve" smooth="yes"/>
			<point x="52" y="42"/>
			<point x="117" y="-13"/>
		</contour>
	</outline>
	<anchor name="aboveLC" x="304" y="486"/>
	<anchor name="baseLC" x="201" y="0"/>
	<anchor name="belowLC" x="195" y="-20"/>
</glyph>
<glyph name="h" format="2">
	<unicode hex="0068"/>
	<advance width="524"/>
	<outline>
		<contour>
			<point x="58" y="-6" type="line"/>
			<point x="97" y="0" type="line"/>
			<point x="109" y="71"/>
			<point x="122" y="137"/>
			<point x="136" y="205" type="curve" smooth="yes"/>
			<point x="164" y="343" type="line"/>
			<point x="166" y="353" type="line"/>
			<point x="245" y="737" type="line"/>
			<point x="236" y="745" type="line"/>
			<point x="86" y="718" type="line"/>
			<point x="83" y="701" type="line"/>
			<point x="204" y="696" type="line"/>
			<point x="193" y="712" type="line"/>
			<point x="182" y="645"/>
			<point x="170" y="580"/>
			<point x="156" y="513" type="curve" smooth="yes"/>
			<point x="51" y="0" type="line"/>
		</contour>
		<contour>
			<point x="364" y="-13" type="curve" smooth="yes"/>
			<point x="422" y="-13"/>
			<point x="471" y="38"/>
			<point x="510" y="96" type="curve"/>
			<point x="496" y="107" type="line"/>
			<point x="458" y="59"/>
			<point x="418" y="27"/>
			<point x="389" y="27" type="curve" smooth="yes"/>
			<point x="374" y="27"/>
			<point x="365" y="35"/>
			<point x="365" y="51" type="curve" smooth="yes"/>
			<point x="365" y="66"/>
			<point x="370" y="88"/>
			<point x="375" y="110" type="curve" smooth="yes"/>
			<point x="424" y="318" type="line" smooth="yes"/>
			<point x="432" y="354"/>
			<point x="440" y="382"/>
			<point x="440" y="413" type="curve" smooth="yes"/>
			<point x="440" y="454"/>
			<point x="418" y="478"/>
			<point x="376" y="478" type="curve" smooth="yes"/>
			<point x="316" y="478"/>
			<point x="224" y="421"/>
			<point x="150" y="343" type="curve"/>
			<point x="147" y="343" type="line"/>
			<point x="147" y="321" type="line"/>
			<point x="244" y="406"/>
			<point x="305" y="440"/>
			<point x="353" y="440" type="curve" smooth="yes"/>
			<point x="379" y="440"/>
			<point x="394" y="427"/>
			<point x="394" y="395" type="curve" smooth="yes"/>
			<point x="394" y="372"/>
			<point x="386" y="339"/>
			<point x="379" y="307" type="curve" smooth="yes"/>
			<point x="331" y="101" type="line" smooth="yes"/>
			<point x="323" y="69"/>
			<point x="319" y="51"/>
			<point x="319" y="29" type="curve" smooth="yes"/>
			<point x="319" y="4"/>
			<point x="338" y="-13"/>
		</contour>
	</outline>
	<anchor name="aboveLC" x="226" y="746"/>
	<anchor name="belowLC" x="212" y="-20"/>
</glyph>
<glyph name="j" format="2">
	<unicode hex="006A"/>
	<advance width="248"/>
	<outline>
		<contour>
			<point x="-83" y="-256" type="line"/>
			<point x="-47" y="-250"/>
			<point x="-14" y="-235"/>
			<point x="16" y="-208" type="curve" smooth="yes"/>
			<point x="76" y="-154"/>
			<point x="105" y="-83"/>
			<point x="125" y="20" type="curve" smooth="yes"/>
			<point x="214" y="468" type="line"/>
			<point x="203" y="477" type="line"/>
			<point x="55" y="450" type="line"/>
			<point x="53" y="433" type="line"/>
			<point x="178" y="428" type="line"/>
			<point x="166" y="442" type="line"/>
			<point x="86" y="34" type="line" smooth="yes"/>
			<point x="65" y="-77"/>
			<point x="42" y="-136"/>
			<point x="3" y="-181" type="curve" smooth="yes"/>
			<point x="-23" y="-211"/>
			<point x="-52" y="-227"/>
			<point x="-87" y="-239" type="curve"/>
		</contour>
		<contour>
			<point x="223" y="632" type="curve" smooth="yes"/>
			<point x="243" y="632"/>
			<point x="265" y="651"/>
			<point x="265" y="678" type="curve" smooth="yes"/>
			<point x="265" y="700"/>
			<point x="250" y="714"/>
			<point x="229" y="714" type="curve" smooth="yes"/>
			<point x="208" y="714"/>
			<point x="187" y="695"/>
			<point x="187" y="668" type="curve" smooth="yes"/>
			<point x="187" y="645"/>
			<point x="203" y="632"/>
		</contour>
	</outline>
	<anchor name="aboveLC" x="233" y="714"/>
	<anchor name="belowLC" x="-16" y="-268"/>
</glyph>
<glyph name="k" format="2">
	<unicode hex="006B"/>
	<advance width="448"/>
	<outline>
		<contour>
			<point x="50" y="0" type="line"/>
			<point x="56" y="-6" type="line"/>
			<point x="95" y="0" type="line"/>
			<point x="107" y="71"/>
			<point x="120" y="137"/>
			<point x="134" y="205" type="curve" smooth="yes"/>
			<point x="241" y="737" type="line"/>
			<point x="232" y="745" type="line"/>
			<point x="84" y="718" type="line"/>
			<point x="81" y="701" type="line"/>
			<point x="202" y="696" type="line"/>
			<point x="191" y="712" type="line"/>
			<point x="180" y="645"/>
			<point x="168" y="580"/>
			<point x="154" y="513" type="curve" smooth="yes"/>
		</contour>
		<contour>
			<point x="443" y="1" type="curve"/>
			<point x="446" y="19" type="line"/>
			<point x="398" y="21" type="line" smooth="yes"/>
			<point x="365" y="22"/>
			<point x="344" y="34"/>
			<point x="326" y="72" type="curve" smooth="yes"/>
			<point x="287" y="153" type="line" smooth="yes"/>
			<point x="259" y="213"/>
			<point x="231" y="241"/>
			<point x="175" y="254" type="curve" smooth="yes"/>
			<point x="149" y="260" type="line"/>
			<point x="148" y="253" type="line"/>
			<point x="419" y="419" type="line" smooth="yes"/>
			<point x="441" y="431"/>
			<point x="448" y="439"/>
			<point x="448" y="451" type="curve" smooth="yes"/>
			<point x="448" y="463"/>
			<point x="438" y="475"/>
			<point x="425" y="476" type="curve"/>
			<point x="133" y="259" type="line"/>
			<point x="136" y="246" type="line"/>
			<point x="157" y="240" type="line" smooth="yes"/>
			<point x="204" y="227"/>
			<point x="220" y="204"/>
			<point x="245" y="150" type="curve" smooth="yes"/>
			<point x="286" y="60" type="line" smooth="yes"/>
			<point x="309" y="7"/>
			<point x="338" y="-9"/>
			<point x="382" y="-9" type="curve" smooth="yes"/>
			<point x="401" y="-9"/>
			<point x="419" y="-7"/>
		</contour>
	</outline>
	<anchor name="aboveLC" x="224" y="746"/>
	<anchor name="belowLC" x="201" y="-20"/>
</glyph>
<glyph name="l" format="2">
	<unicode hex="006C"/>
	<advance width="260"/>
	<outline>
		<contour>
			<point x="107" y="-13" type="curve" smooth="yes"/>
			<point x="165" y="-13"/>
			<point x="211" y="38"/>
			<point x="251" y="96" type="curve"/>
			<point x="238" y="107" type="line"/>
			<point x="198" y="58"/>
			<point x="159" y="27"/>
			<point x="131" y="27" type="curve" smooth="yes"/>
			<point x="115" y="27"/>
			<point x="105" y="35"/>
			<point x="105" y="52" type="curve" smooth="yes"/>
			<point x="105" y="66"/>
			<point x="109" y="89"/>
			<point x="114" y="110" type="curve" smooth="yes"/>
			<point x="242" y="737" type="line"/>
			<point x="232" y="745" type="line"/>
			<point x="83" y="718" type="line"/>
			<point x="80" y="701" type="line"/>
			<point x="201" y="696" type="line"/>
			<point x="189" y="712" type="line"/>
			<point x="179" y="646"/>
			<point x="166" y="580"/>
			<point x="153" y="513" type="curve" smooth="yes"/>
			<point x="69" y="102" type="line" smooth="yes"/>
			<point x="64" y="71"/>
			<point x="60" y="53"/>
			<point x="60" y="35" type="curve" smooth="yes"/>
			<point x="60" y="4"/>
			<point x="81" y="-13"/>
		</contour>
	</outline>
	<anchor name="aboveLC" x="216" y="746"/>
	<anchor name="belowLC" x="115" y="-20"/>
</glyph>
<glyph name="m" format="2">
	<unicode hex="006D"/>
	<advance width="796"/>
	<outline>
		<contour>
			<point x="80" y="-6" type="line"/>
			<point x="119" y="0" type="line"/>
			<point x="132" y="71"/>
			<point x="144" y="137"/>
			<point x="159" y="205" type="curve" smooth="yes"/>
			<point x="190" y="348" type="line"/>
			<point x="190" y="350" type="line"/>
			<point x="214" y="468" type="line"/>
			<point x="203" y="477" type="line"/>
			<point x="56" y="450" type="line"/>
			<point x="54" y="433" type="line"/>
			<point x="174" y="428" type="line"/>
			<point x="165" y="437" type="line"/>
			<point x="73" y="0" type="line"/>
		</contour>
		<contour>
			<point x="339" y="-6" type="line"/>
			<point x="377" y="0" type="line"/>
			<point x="390" y="71"/>
			<point x="403" y="137"/>
			<point x="417" y="205" type="curve" smooth="yes"/>
			<point x="447" y="340" type="line"/>
			<point x="449" y="349" type="line" smooth="yes"/>
			<point x="453" y="370"/>
			<point x="458" y="391"/>
			<point x="458" y="414" type="curve" smooth="yes"/>
			<point x="458" y="454"/>
			<point x="437" y="478"/>
			<point x="395" y="478" type="curve" smooth="yes"/>
			<point x="335" y="478"/>
			<point x="247" y="421"/>
			<point x="174" y="343" type="curve"/>
			<point x="170" y="343" type="line"/>
			<point x="171" y="321" type="line"/>
			<point x="267" y="406"/>
			<point x="324" y="440"/>
			<point x="372" y="440" type="curve" smooth="yes"/>
			<point x="397" y="440"/>
			<point x="411" y="427"/>
			<point x="411" y="396" type="curve" smooth="yes"/>
			<point x="411" y="374"/>
			<point x="404" y="343"/>
			<point x="399" y="318" type="curve" smooth="yes"/>
			<point x="332" y="0" type="line"/>
		</contour>
		<contour>
			<point x="637" y="-13" type="curve" smooth="yes"/>
			<point x="695" y="-13"/>
			<point x="742" y="38"/>
			<point x="782" y="96" type="curve"/>
			<point x="769" y="107" type="line"/>
			<point x="729" y="58"/>
			<point x="691" y="27"/>
			<point x="661" y="27" type="curve" smooth="yes"/>
			<point x="646" y="27"/>
			<point x="637" y="35"/>
			<point x="637" y="51" type="curve" smooth="yes"/>
			<point x="637" y="66"/>
			<point x="643" y="88"/>
			<point x="648" y="110" type="curve" smooth="yes"/>
			<point x="696" y="318" type="line" smooth="yes"/>
			<point x="704" y="354"/>
			<point x="712" y="382"/>
			<point x="712" y="413" type="curve" smooth="yes"/>
			<point x="712" y="454"/>
			<point x="692" y="478"/>
			<point x="649" y="478" type="curve" smooth="yes"/>
			<point x="590" y="478"/>
			<point x="507" y="422"/>
			<point x="434" y="345" type="curve"/>
			<point x="430" y="345" type="line"/>
			<point x="431" y="323" type="line"/>
			<point x="527" y="407"/>
			<point x="579" y="440"/>
			<point x="626" y="440" type="curve" smooth="yes"/>
			<point x="652" y="440"/>
			<point x="666" y="427"/>
			<point x="666" y="395" type="curve" smooth="yes"/>
			<point x="666" y="372"/>
			<point x="658" y="339"/>
			<point x="651" y="307" type="curve" smooth="yes"/>
			<point x="603" y="101" type="line" smooth="yes"/>
			<point x="596" y="69"/>
			<point x="591" y="51"/>
			<point x="591" y="29" type="curve" smooth="yes"/>
			<point x="591" y="4"/>
			<point x="610" y="-13"/>
		</contour>
	</outline>
	<anchor name="aboveLC" x="445" y="486"/>
	<anchor name="belowLC" x="360" y="-20"/>
</glyph>
<glyph name="q" format="2">
	<unicode hex="0071"/>
	<advance width="486"/>
	<outline>
		<contour>
			<point x="137" y="-13" type="curve" smooth="yes"/>
			<point x="213" y="-13"/>
			<point x="304" y="71"/>
			<point x="371" y="168" type="curve"/>
			<point x="377" y="168" type="line"/>
			<point x="366" y="179" type="line"/>
			<point x="281" y="82"/>
			<point x="217" y="26"/>
			<point x="158" y="26" type="curve" smooth="yes"/>
			<point x="114" y="26"/>
			<point x="91" y="60"/>
			<point x="91" y="127" type="curve" smooth="yes"/>
			<point x="91" y="215"/>
			<point x="133" y="317"/>
			<point x="196" y="379" type="curve" smooth="yes"/>
			<point x="235" y="417"/>
			<point x="282" y="442"/>
			<point x="330" y="442" type="curve" smooth="yes"/>
			<point x="359" y="442"/>
			<point x="388" y="430"/>
			<point x="415" y="404" type="curve"/>
			<point x="432" y="433" type="line"/>
			<point x="408" y="464"/>
			<point x="381" y="478"/>
			<point x="346" y="478" type="curve" smooth="yes"/>
			<point x="204" y="478"/>
			<point x="46" y="277"/>
			<point x="46" y="110" type="curve" smooth="yes"/>
			<point x="46" y="20"/>
			<point x="87" y="-13"/>
		</contour>
		<contour>
			<point x="161" y="-248" type="line"/>
			<point x="396" y="-248" type="line"/>
			<point x="401" y="-226" type="line"/>
			<point x="294" y="-216" type="line"/>
			<point x="278" y="-216" type="line"/>
			<point x="165" y="-226" type="line"/>
		</contour>
		<contour>
			<point x="258" y="-248" type="line"/>
			<point x="301" y="-248" type="line"/>
			<point x="314" y="-183"/>
			<point x="327" y="-118"/>
			<point x="341" y="-53" type="curve" smooth="yes"/>
			<point x="452" y="472" type="line"/>
			<point x="441" y="479" type="line"/>
			<point x="404" y="439" type="line"/>
			<point x="402" y="436" type="line"/>
			<point x="339" y="141" type="line"/>
			<point x="338" y="133" type="line"/>
		</contour>
	</outline>
	<anchor name="aboveLC" x="330" y="486"/>
	<anchor name="belowLC" x="280" y="-268"/>
</glyph>
<glyph name="t" format="2">
	<unicode hex="0074"/>
	<advance width="317"/>
	<outline>
		<contour>
			<point x="53" y="440" type="line"/>
			<point x="184" y="440" type="line"/>
			<point x="186" y="439" type="line"/>
			<point x="341" y="437" type="line"/>
			<point x="347" y="468" type="line"/>
			<point x="188" y="468" type="line"/>
			<point x="188" y="470" type="line"/>
			<point x="57" y="461" type="line"/>
		</contour>
		<contour>
			<point x="128" y="-13" type="curve" smooth="yes"/>
			<point x="186" y="-13"/>
			<point x="234" y="38"/>
			<point x="274" y="96" type="curve"/>
			<point x="260" y="107" type="line"/>
			<point x="220" y="58"/>
			<point x="183" y="27"/>
			<point x="152" y="27" type="curve" smooth="yes"/>
			<point x="137" y="27"/>
			<point x="127" y="35"/>
			<point x="127" y="50" type="curve" smooth="yes"/>
			<point x="127" y="66"/>
			<point x="132" y="88"/>
			<point x="137" y="110" type="curve" smooth="yes"/>
			<point x="242" y="606" type="line"/>
			<point x="214" y="606" type="line"/>
			<point x="165" y="446" type="line"/>
			<point x="92" y="102" type="line" smooth="yes"/>
			<point x="86" y="69"/>
			<point x="82" y="52"/>
			<point x="82" y="32" type="curve" smooth="yes"/>
			<point x="82" y="4"/>
			<point x="102" y="-13"/>
		</contour>
	</outline>
	<anchor name="aboveLC" x="218" y="580"/>
	<anchor name="baseLC" x="132" y="0"/>
	<anchor name="belowLC" x="138" y="-20"/>
</glyph>
<glyph name="w" format="2">
	<unicode hex="0077"/>
	<advance width="715"/>
	<outline>
		<contour>
			<point x="172" y="-3" type="curve"/>
			<point x="177" y="-7" type="line"/>
			<point x="194" y="-5" type="line"/>
			<point x="288" y="116"/>
			<point x="373" y="269"/>
			<point x="420" y="380" type="curve"/>
			<point x="424" y="390" type="line"/>
			<point x="412" y="389" type="line"/>
			<point x="419" y="256"/>
			<point x="425" y="145"/>
			<point x="431" y="-3" type="curve"/>
			<point x="436" y="-7" type="line"/>
			<point x="453" y="-5" type="line"/>
			<point x="552" y="103"/>
			<point x="622" y="206"/>
			<point x="670" y="304" type="curve" smooth="yes"/>
			<point x="703" y="370"/>
			<point x="712" y="411"/>
			<point x="712" y="441" type="curve" smooth="yes"/>
			<point x="712" y="455"/>
			<point x="711" y="463"/>
			<point x="708" y="470" type="curve"/>
			<point x="703" y="475"/>
			<point x="696" y="478"/>
			<point x="686" y="478" type="curve" smooth="yes"/>
			<point x="667" y="478"/>
			<point x="650" y="464"/>
			<point x="650" y="433" type="curve" smooth="yes"/>
			<point x="650" y="422"/>
			<point x="652" y="404"/>
			<point x="656" y="381" type="curve" smooth="yes"/>
			<point x="666" y="328" type="line"/>
			<point x="672" y="383" type="line"/>
			<point x="663" y="356"/>
			<point x="656" y="336"/>
			<point x="646" y="315" type="curve" smooth="yes"/>
			<point x="595" y="211"/>
			<point x="542" y="136"/>
			<point x="465" y="43" type="curve"/>
			<point x="461" y="38" type="line"/>
			<point x="471" y="36" type="line"/>
			<point x="466" y="182"/>
			<point x="459" y="302"/>
			<point x="451" y="466" type="curve"/>
			<point x="428" y="466" type="line"/>
			<point x="367" y="312"/>
			<point x="288" y="171"/>
			<point x="204" y="46" type="curve"/>
			<point x="199" y="38" type="line"/>
			<point x="211" y="36" type="line"/>
			<point x="211" y="178"/>
			<point x="207" y="299"/>
			<point x="193" y="399" type="curve" smooth="yes"/>
			<point x="185" y="458"/>
			<point x="168" y="478"/>
			<point x="132" y="478" type="curve" smooth="yes"/>
			<point x="90" y="478"/>
			<point x="57" y="446"/>
			<point x="24" y="371" type="curve"/>
			<point x="39" y="362" type="line"/>
			<point x="72" y="423"/>
			<point x="94" y="439"/>
			<point x="115" y="439" type="curve" smooth="yes"/>
			<point x="133" y="439"/>
			<point x="145" y="428"/>
			<point x="151" y="381" type="curve" smooth="yes"/>
			<point x="165" y="277"/>
			<point x="170" y="165"/>
		</contour>
	</outline>
	<anchor name="aboveLC" x="441" y="486"/>
	<anchor name="belowLC" x="323" y="-20"/>
</glyph>
<glyph name="y" format="2">
	<unicode hex="0079"/>
	<advance width="460"/>
	<outline>
		<contour>
			<point x="-35" y="-248" type="curve" smooth="yes"/>
			<point x="5" y="-248"/>
			<point x="56" y="-213"/>
			<point x="102" y="-166" type="curve" smooth="yes"/>
			<point x="156" y="-114"/>
			<point x="198" y="-54"/>
			<point x="236" y="6" type="curve" smooth="yes"/>
			<point x="287" y="85"/>
			<point x="326" y="161"/>
			<point x="386" y="276" type="curve" smooth="yes"/>
			<point x="417" y="334"/>
			<point x="432" y="366"/>
			<point x="449" y="403" type="curve" smooth="yes"/>
			<point x="460" y="428"/>
			<point x="464" y="443"/>
			<point x="464" y="457" type="curve" smooth="yes"/>
			<point x="464" y="471"/>
			<point x="456" y="481"/>
			<point x="441" y="481" type="curve" smooth="yes"/>
			<point x="420" y="481"/>
			<point x="411" y="461"/>
			<point x="384" y="371" type="curve" smooth="yes"/>
			<point x="358" y="278"/>
			<point x="296" y="150"/>
			<point x="215" y="12" type="curve" smooth="yes"/>
			<point x="178" y="-48"/>
			<point x="135" y="-104"/>
			<point x="89" y="-149" type="curve" smooth="yes"/>
			<point x="55" y="-182"/>
			<point x="21" y="-206"/>
			<point x="-14" y="-222" type="curve"/>
			<point x="-14" y="-226" type="line"/>
			<point x="14" y="-226" type="line"/>
			<point x="14" y="-220" type="line"/>
			<point x="-8" y="-202" type="line" smooth="yes"/>
			<point x="-29" y="-184"/>
			<point x="-46" y="-174"/>
			<point x="-65" y="-174" type="curve" smooth="yes"/>
			<point x="-83" y="-174"/>
			<point x="-98" y="-183"/>
			<point x="-102" y="-203" type="curve"/>
			<point x="-97" y="-229"/>
			<point x="-71" y="-248"/>
		</contour>
		<contour>
			<point x="189" y="-34" type="curve"/>
			<point x="231" y="9" type="line"/>
			<point x="223" y="9" type="line"/>
			<point x="219" y="145"/>
			<point x="209" y="267"/>
			<point x="195" y="380" type="curve" smooth="yes"/>
			<point x="186" y="457"/>
			<point x="169" y="478"/>
			<point x="133" y="478" type="curve" smooth="yes"/>
			<point x="93" y="478"/>
			<point x="59" y="449"/>
			<point x="24" y="371" type="curve"/>
			<point x="39" y="362" type="line"/>
			<point x="73" y="425"/>
			<point x="95" y="439"/>
			<point x="115" y="439" type="curve" smooth="yes"/>
			<point x="135" y="439"/>
			<point x="143" y="425"/>
			<point x="152" y="353" type="curve" smooth="yes"/>
			<point x="168" y="238"/>
			<point x="181" y="126"/>
		</contour>
	</outline>
	<anchor name="aboveLC" x="290" y="486"/>
	<anchor name="belowLC" x="-2" y="-268"/>
</glyph>
<glyph name="braceleft" format="2">
	<unicode hex="007B"/>
	<advance width="351"/>
	<outline>
		<contour>
			<point x="44" y="266" type="line"/>
			<point x="116" y="258"/>
			<point x="150" y="233"/>
			<point x="150" y="190" type="curve" smooth="yes"/>
			<point x="150" y="130"/>
			<point x="74" y="26"/>
			<point x="74" y="-71" type="curve" smooth="yes"/>
			<point x="74" y="-127"/>
			<point x="110" y="-159"/>
			<point x="198" y="-159" type="curve" smooth="yes"/>
			<point x="241" y="-159" type="line"/>
			<point x="246" y="-135" type="line"/>
			<point x="208" y="-132" type="line" smooth="yes"/>
			<point x="141" y="-128"/>
			<point x="116" y="-107"/>
			<point x="116" y="-64" type="curve" smooth="yes"/>
			<point x="116" y="21"/>
			<point x="180" y="131"/>
			<point x="180" y="194" type="curve" smooth="yes"/>
			<point x="180" y="244"/>
			<point x="147" y="277"/>
			<point x="68" y="282" type="curve"/>
			<point x="67" y="275" type="line"/>
			<point x="175" y="281"/>
			<point x="226" y="340"/>
			<point x="226" y="420" type="curve" smooth="yes"/>
			<point x="226" y="453"/>
			<point x="219" y="497"/>
			<point x="219" y="537" type="curve" smooth="yes"/>
			<point x="219" y="638"/>
			<point x="247" y="682"/>
			<point x="363" y="689" type="curve" smooth="yes"/>
			<point x="395" y="691" type="line"/>
			<point x="400" y="715" type="line"/>
			<point x="364" y="715" type="line" smooth="yes"/>
			<point x="227" y="715"/>
			<point x="178" y="651"/>
			<point x="178" y="547" type="curve" smooth="yes"/>
			<point x="178" y="496"/>
			<point x="193" y="446"/>
			<point x="193" y="410" type="curve" smooth="yes"/>
			<point x="193" y="341"/>
			<point x="146" y="300"/>
			<point x="49" y="290" type="curve"/>
		</contour>
	</outline>
</glyph>
<glyph name="cent" format="2">
	<unicode hex="00A2"/>
	<advance width="497"/>
	<outline>
		<contour>
			<point x="94" y="246" type="curve" smooth="yes"/>
			<point x="94" y="124"/>
			<point x="161" y="66"/>
			<point x="244" y="66" type="curve" smooth="yes"/>
			<point x="311" y="66"/>
			<point x="372" y="106"/>
			<point x="415" y="172" type="curve"/>
			<point x="401" y="183" type="line"/>
			<point x="363" y="137"/>
			<point x="317" y="105"/>
			<point x="258" y="105" type="curve" smooth="yes"/>
			<point x="185" y="105"/>
			<point x="138" y="157"/>
			<point x="138" y="253" type="curve" smooth="yes"/>
			<point x="138" y="395"/>
			<point x="224" y="532"/>
			<point x="333" y="532" type="curve" smooth="yes"/>
			<point x="368" y="532"/>
			<point x="396" y="522"/>
			<point x="421" y="502" type="curve"/>
			<point x="400" y="530" type="line"/>
			<point x="413" y="443" type="line" smooth="yes"/>
			<point x="415" y="421"/>
			<point x="423" y="407"/>
			<point x="443" y="407" type="curve" smooth="yes"/>
			<point x="457" y="407"/>
			<point x="467" y="416"/>
			<point x="469" y="436" type="curve" smooth="yes"/>
			<point x="463" y="518"/>
			<point x="411" y="557"/>
			<point x="336" y="557" type="curve" smooth="yes"/>
			<point x="209" y="557"/>
			<point x="94" y="412"/>
		</contour>
		<contour>
			<point x="224" y="-48" type="line"/>
			<point x="369" y="664" type="line"/>
			<point x="343" y="664" type="line"/>
			<point x="198" y="-48" type="line"/>
		</contour>
	</outline>
</glyph>
<glyph name="two.sups" format="2">
	<unicode hex="00B2"/>
	<advance width="330"/>
	<outline>
		<contour>
			<point x="91" y="428" type="line"/>
			<point x="335" y="428" type="line"/>
			<point x="342" y="466" type="line"/>
			<point x="123" y="466" type="line"/>
			<point x="124" y="459" type="line"/>
			<point x="333" y="637"/>
			<point x="380" y="680"/>
			<point x="380" y="744" type="curve" smooth="yes"/>
			<point x="380" y="797"/>
			<point x="343" y="835"/>
			<point x="273" y="835" type="curve" smooth="yes"/>
			<point x="208" y="835"/>
			<point x="158" y="803"/>
			<point x="147" y="732" type="curve"/>
			<point x="149" y="720"/>
			<point x="157" y="713"/>
			<point x="168" y="713" type="curve" smooth="yes"/>
			<point x="183" y="713"/>
			<point x="192" y="722"/>
			<point x="195" y="749" type="curve" smooth="yes"/>
			<point x="201" y="807" type="line"/>
			<point x="181" y="775" type="line"/>
			<point x="200" y="803"/>
			<point x="230" y="815"/>
			<point x="261" y="815" type="curve" smooth="yes"/>
			<point x="309" y="815"/>
			<point x="338" y="788"/>
			<point x="338" y="742" type="curve" smooth="yes"/>
			<point x="338" y="688"/>
			<point x="307" y="648"/>
			<point x="96" y="457" type="curve"/>
		</contour>
	</outline>
</glyph>
<glyph name="one.sups" format="2">
	<unicode hex="00B9"/>
	<advance width="330"/>
	<outline>
		<contour>
			<point x="104" y="428" type="line"/>
			<point x="325" y="428" type="line"/>
			<point x="328" y="445" type="line"/>
			<point x="229" y="453" type="line"/>
			<point x="206" y="453" type="line"/>
			<point x="107" y="445" type="line"/>
		</contour>
		<contour>
			<point x="192" y="428" type="line"/>
			<point x="231" y="428" type="line"/>
			<point x="293" y="724" type="line"/>
			<point x="316" y="828" type="line"/>
			<point x="310" y="834" type="line"/>
			<point x="182" y="801" type="line"/>
			<point x="178" y="784" type="line"/>
			<point x="281" y="797" type="line"/>
			<point x="269" y="810" type="line"/>
		</contour>
	</outline>
</glyph>
<glyph name="Eth" format="2">
	<unicode hex="00D0"/>
	<advance width="664"/>
	<outline>
		<contour>
			<point x="390" y="332" type="line"/>
			<point x="394" y="359" type="line"/>
			<point x="58" y="359" type="line"/>
			<point x="53" y="332" type="line"/>
		</contour>
		<component base="D"/>
	</outline>
</glyph>
<glyph name="multiply" format="2">
	<unicode hex="00D7"/>
	<advance width="522"/>
	<outline>
		<contour>
			<point x="457" y="131" type="line"/>
			<point x="480" y="154" type="line"/>
			<point x="103" y="537" type="line"/>
			<point x="80" y="514" type="line"/>
		</contour>
		<contour>
			<point x="479" y="514" type="line"/>
			<point x="457" y="536" type="line"/>
			<point x="80" y="153" type="line"/>
			<point x="102" y="131" type="line"/>
		</contour>
	</outline>
</glyph>
<glyph name="Oslash" format="2">
	<unicode hex="00D8"/>
	<advance width="646"/>
	<outline>
		<contour>
			<point x="680" y="672" type="line"/>
			<point x="660" y="691" type="line"/>
			<point x="3" y="3" type="line"/>
			<point x="23" y="-16" type="line"/>
		</contour>
		<contour>
			<point x="291" y="-14" type="curve" smooth="yes"/>
			<point x="478" y="-14"/>
			<point x="630" y="173"/>
			<point x="630" y="419" type="curve" smooth="yes"/>
			<point x="630" y="579"/>
			<point x="547" y="687"/>
			<point x="398" y="687" type="curve" smooth="yes"/>
			<point x="214" y="687"/>
			<point x="59" y="498"/>
			<point x="59" y="254" type="curve" smooth="yes"/>
			<point x="59" y="92"/>
			<point x="146" y="-14"/>
		</contour>
		<contour>
			<point x="296" y="14" type="curve" smooth="yes"/>
			<point x="169" y="14"/>
			<point x="109" y="102"/>
			<point x="109" y="259" type="curve" smooth="yes"/>
			<point x="109" y="471"/>
			<point x="232" y="659"/>
			<point x="394" y="659" type="curve" smooth="yes"/>
			<point x="522" y="659"/>
			<point x="579" y="576"/>
			<point x="579" y="414" type="curve" smooth="yes"/>
			<point x="579" y="196"/>
			<point x="456" y="14"/>
		</contour>
	</outline>
	<anchor name="aboveUC" x="396" y="694"/>
</glyph>
<glyph name="germandbls" format="2">
	<unicode hex="00DF"/>
	<advance width="498"/>
	<outline>
		<contour>
			<point x="-70" y="-255" type="curve" smooth="yes"/>
			<point x="-30" y="-255"/>
			<point x="4" y="-239"/>
			<point x="40" y="-202" type="curve" smooth="yes"/>
			<point x="93" y="-147"/>
			<point x="113" y="-69"/>
			<point x="131" y="37" type="curve" smooth="yes"/>
			<point x="158" y="188"/>
			<point x="181" y="346"/>
			<point x="206" y="495" type="curve" smooth="yes"/>
			<point x="227" y="623"/>
			<point x="271" y="733"/>
			<point x="381" y="733" type="curve" smooth="yes"/>
			<point x="437" y="733"/>
			<point x="469" y="699"/>
			<point x="469" y="644" type="curve" smooth="yes"/>
			<point x="469" y="592"/>
			<point x="444" y="559"/>
			<point x="384" y="508" type="curve" smooth="yes"/>
			<point x="325" y="457"/>
			<point x="280" y="421"/>
			<point x="280" y="350" type="curve" smooth="yes"/>
			<point x="280" y="300"/>
			<point x="309" y="261"/>
			<point x="356" y="225" type="curve" smooth="yes"/>
			<point x="407" y="185"/>
			<point x="430" y="153"/>
			<point x="430" y="110" type="curve" smooth="yes"/>
			<point x="430" y="54"/>
			<point x="384" y="11"/>
			<point x="312" y="11" type="curve" smooth="yes"/>
			<point x="285" y="11"/>
			<point x="268" y="14"/>
			<point x="244" y="27" type="curve"/>
			<point x="273" y="2" type="line"/>
			<point x="251" y="70" type="line" smooth="yes"/>
			<point x="246" y="88"/>
			<point x="237" y="97"/>
			<point x="220" y="97" type="curve" smooth="yes"/>
			<point x="207" y="97"/>
			<point x="197" y="86"/>
			<point x="194" y="74" type="curve"/>
			<point x="208" y="14"/>
			<point x="247" y="-13"/>
			<point x="317" y="-13" type="curve" smooth="yes"/>
			<point x="405" y="-13"/>
			<point x="470" y="39"/>
			<point x="470" y="120" type="curve" smooth="yes"/>
			<point x="470" y="175"/>
			<point x="442" y="210"/>
			<point x="383" y="257" type="curve" smooth="yes"/>
			<point x="340" y="292"/>
			<point x="317" y="319"/>
			<point x="317" y="363" type="curve" smooth="yes"/>
			<point x="317" y="416"/>
			<point x="348" y="448"/>
			<point x="401" y="489" type="curve" smooth="yes"/>
			<point x="467" y="542"/>
			<point x="509" y="586"/>
			<point x="509" y="648" type="curve" smooth="yes"/>
			<point x="509" y="711"/>
			<point x="466" y="756"/>
			<point x="385" y="756" type="curve" smooth="yes"/>
			<point x="251" y="756"/>
			<point x="185" y="635"/>
			<point x="163" y="494" type="curve" smooth="yes"/>
			<point x="139" y="339"/>
			<point x="116" y="190"/>
			<point x="91" y="37" type="curve" smooth="yes"/>
			<point x="74" y="-64"/>
			<point x="58" y="-131"/>
			<point x="21" y="-179" type="curve" smooth="yes"/>
			<point x="-4" y="-211"/>
			<point x="-28" y="-228"/>
			<point x="-63" y="-234" type="curve"/>
			<point x="-63" y="-237" type="line"/>
			<point x="-43" y="-237" type="line"/>
			<point x="-43" y="-234" type="line"/>
			<point x="-71" y="-206" type="line" smooth="yes"/>
			<point x="-88" y="-191"/>
			<point x="-103" y="-178"/>
			<point x="-122" y="-178" type="curve" smooth="yes"/>
			<point x="-136" y="-178"/>
			<point x="-149" y="-188"/>
			<point x="-151" y="-204" type="curve"/>
			<point x="-144" y="-232"/>
			<point x="-109" y="-255"/>
		</contour>
	</outline>
</glyph>
<glyph name="eth" format="2">
	<unicode hex="00F0"/>
	<advance width="468"/>
	<outline>
		<contour>
			<point x="200" y="-13" type="curve" smooth="yes"/>
			<point x="328" y="-13"/>
			<point x="444" y="134"/>
			<point x="444" y="350" type="curve" smooth="yes"/>
			<point x="444" y="535"/>
			<point x="366" y="674"/>
			<point x="222" y="755" type="curve"/>
			<point x="208" y="736" type="line"/>
			<point x="351" y="645"/>
			<point x="406" y="517"/>
			<point x="405" y="341" type="curve"/>
			<point x="420" y="351" type="line"/>
			<point x="406" y="434"/>
			<point x="357" y="478"/>
			<point x="288" y="478" type="curve" smooth="yes"/>
			<point x="154" y="478"/>
			<point x="47" y="321"/>
			<point x="47" y="161" type="curve" smooth="yes"/>
			<point x="47" y="41"/>
			<point x="119" y="-13"/>
		</contour>
		<contour>
			<point x="203" y="12" type="curve" smooth="yes"/>
			<point x="139" y="12"/>
			<point x="93" y="60"/>
			<point x="93" y="166" type="curve" smooth="yes"/>
			<point x="93" y="305"/>
			<point x="175" y="452"/>
			<point x="287" y="452" type="curve" smooth="yes"/>
			<point x="349" y="452"/>
			<point x="397" y="412"/>
			<point x="397" y="312" type="curve" smooth="yes"/>
			<point x="397" y="147"/>
			<point x="303" y="12"/>
		</contour>
		<contour>
			<point x="187" y="550" type="line"/>
			<point x="481" y="716" type="line"/>
			<point x="470" y="736" type="line"/>
			<point x="177" y="570" type="line"/>
		</contour>
	</outline>
</glyph>
<glyph name="oslash" format="2">
	<unicode hex="00F8"/>
	<advance width="476"/>
	<outline>
		<contour>
			<point x="492" y="472" type="line"/>
			<point x="475" y="489" type="line"/>
			<point x="-11" y="-5" type="line"/>
			<point x="7" y="-21" type="line"/>
		</contour>
		<contour>
			<point x="203" y="-13" type="curve" smooth="yes"/>
			<point x="338" y="-13"/>
			<point x="443" y="140"/>
			<point x="443" y="304" type="curve" smooth="yes"/>
			<point x="443" y="424"/>
			<point x="374" y="478"/>
			<point x="291" y="478" type="curve" smooth="yes"/>
			<point x="154" y="478"/>
			<point x="50" y="319"/>
			<point x="50" y="161" type="curve" smooth="yes"/>
			<point x="50" y="40"/>
			<point x="125" y="-13"/>
		</contour>
		<contour>
			<point x="208" y="12" type="curve" smooth="yes"/>
			<point x="144" y="12"/>
			<point x="95" y="52"/>
			<point x="95" y="165" type="curve" smooth="yes"/>
			<point x="95" y="305"/>
			<point x="175" y="454"/>
			<point x="287" y="454" type="curve" smooth="yes"/>
			<point x="353" y="454"/>
			<point x="398" y="414"/>
			<point x="398" y="298" type="curve" smooth="yes"/>
			<point x="398" y="162"/>
			<point x="318" y="12"/>
		</contour>
	</outline>
	<anchor name="aboveLC" x="289" y="486"/>
</glyph>
<glyph name="thorn" format="2">
	<unicode hex="00FE"/>
	<advance width="495"/>
	<outline>
		<contour>
			<point x="-81" y="-248" type="line"/>
			<point x="154" y="-248" type="line"/>
			<point x="158" y="-226" type="line"/>
			<point x="45" y="-215" type="line"/>
			<point x="28" y="-215" type="line"/>
			<point x="-77" y="-226" type="line"/>
		</contour>
		<contour>
			<point x="6" y="-248" type="line"/>
			<point x="51" y="-248" type="line"/>
			<point x="66" y="-168"/>
			<point x="88" y="-61"/>
			<point x="106" y="24" type="curve"/>
			<point x="108" y="32" type="line"/>
			<point x="168" y="319" type="line"/>
			<point x="170" y="327" type="line"/>
			<point x="256" y="737" type="line"/>
			<point x="246" y="745" type="line"/>
			<point x="97" y="718" type="line"/>
			<point x="94" y="701" type="line"/>
			<point x="217" y="696" type="line"/>
			<point x="203" y="710" type="line"/>
			<point x="192" y="639"/>
			<point x="180" y="576"/>
			<point x="167" y="513" type="curve" smooth="yes"/>
		</contour>
		<contour>
			<point x="175" y="-13" type="curve" smooth="yes"/>
			<point x="316" y="-13"/>
			<point x="470" y="189"/>
			<point x="470" y="356" type="curve" smooth="yes"/>
			<point x="470" y="447"/>
			<point x="429" y="478"/>
			<point x="378" y="478" type="curve" smooth="yes"/>
			<point x="303" y="478"/>
			<point x="206" y="399"/>
			<point x="143" y="295" type="curve"/>
			<point x="136" y="295" type="line"/>
			<point x="149" y="290" type="line"/>
			<point x="229" y="382"/>
			<point x="298" y="440"/>
			<point x="358" y="440" type="curve" smooth="yes"/>
			<point x="400" y="440"/>
			<point x="424" y="408"/>
			<point x="424" y="338" type="curve" smooth="yes"/>
			<point x="424" y="258"/>
			<point x="390" y="164"/>
			<point x="335" y="103" type="curve" smooth="yes"/>
			<point x="296" y="56"/>
			<point x="246" y="25"/>
			<point x="193" y="25" type="curve" smooth="yes"/>
			<point x="158" y="25"/>
			<point x="126" y="38"/>
			<point x="99" y="66" type="curve"/>
			<point x="80" y="33" type="line"/>
			<point x="106" y="1"/>
			<point x="140" y="-13"/>
		</contour>
	</outline>
	<anchor name="aboveLC" x="239" y="746"/>
	<anchor name="belowLC" x="293" y="-20"/>
</glyph>
<glyph name="aogonek" format="2">
	<unicode hex="0105"/>
	<advance width="512"/>
	<outline>
		<contour>
			<point x="142" y="-13" type="curve" smooth="yes"/>
			<point x="218" y="-13"/>
			<point x="292" y="70"/>
			<point x="360" y="168" type="curve"/>
			<point x="364" y="168" type="line"/>
			<point x="354" y="179" type="line"/>
			<point x="274" y="82"/>
			<point x="219" y="26"/>
			<point x="161" y="26" type="curve" smooth="yes"/>
			<point x="118" y="26"/>
			<point x="90" y="58"/>
			<point x="90" y="131" type="curve" smooth="yes"/>
			<point x="90" y="217"/>
			<point x="131" y="317"/>
			<point x="192" y="379" type="curve" smooth="yes"/>
			<point x="230" y="418"/>
			<point x="276" y="442"/>
			<point x="322" y="442" type="curve" smooth="yes"/>
			<point x="355" y="442"/>
			<point x="383" y="427"/>
			<point x="405" y="401" type="curve"/>
			<point x="422" y="423" type="line"/>
			<point x="402" y="458"/>
			<point x="374" y="478"/>
			<point x="337" y="478" type="curve" smooth="yes"/>
			<point x="201" y="478"/>
			<point x="44" y="277"/>
			<point x="44" y="112" type="curve" smooth="yes"/>
			<point x="44" y="20"/>
			<point x="92" y="-13"/>
		</contour>
		<contour>
			<point x="363" y="-237" type="curve" smooth="yes"/>
			<point x="400" y="-237"/>
			<point x="437" y="-217"/>
			<point x="464" y="-190" type="curve"/>
			<point x="455" y="-178" type="line"/>
			<point x="431" y="-196"/>
			<point x="402" y="-206"/>
			<point x="377" y="-206" type="curve" smooth="yes"/>
			<point x="344" y="-206"/>
			<point x="324" y="-184"/>
			<point x="324" y="-149" type="curve" smooth="yes"/>
			<point x="324" y="-95"/>
			<point x="372" y="-36"/>
			<point x="431" y="15" type="curve" smooth="yes"/>
			<point x="461" y="40"/>
			<point x="482" y="67"/>
			<point x="501" y="96" type="curve"/>
			<point x="487" y="107" type="line"/>
			<point x="450" y="60"/>
			<point x="411" y="27"/>
			<point x="380" y="27" type="curve" smooth="yes"/>
			<point x="365" y="27"/>
			<point x="354" y="34"/>
			<point x="354" y="49" type="curve" smooth="yes"/>
			<point x="354" y="66"/>
			<point x="359" y="88"/>
			<point x="363" y="109" type="curve" smooth="yes"/>
			<point x="442" y="475" type="line"/>
			<point x="431" y="482" type="line"/>
			<point x="393" y="441" type="line"/>
			<point x="390" y="438" type="line"/>
			<point x="324" y="123" type="line"/>
			<point x="322" y="116" type="line" smooth="yes"/>
			<point x="313" y="74"/>
			<point x="310" y="59"/>
			<point x="310" y="35" type="curve" smooth="yes"/>
			<point x="310" y="4"/>
			<point x="331" y="-13"/>
			<point x="357" y="-13" type="curve" smooth="yes"/>
			<point x="367" y="-13"/>
			<point x="375" y="-12"/>
			<point x="395" y="-2" type="curve"/>
			<point x="380" y="7" type="line"/>
			<point x="380" y="-9" type="line"/>
			<point x="329" y="-55"/>
			<point x="286" y="-109"/>
			<point x="286" y="-164" type="curve" smooth="yes"/>
			<point x="286" y="-206"/>
			<point x="312" y="-237"/>
		</contour>
	</outline>
	<anchor name="aboveLC" x="330" y="486"/>
	<anchor name="belowLC" x="239" y="-20"/>
</glyph>
<glyph name="dcroat" format="2">
	<unicode hex="0111"/>
	<advance width="525"/>
	<outline>
		<contour>
			<point x="137" y="-13" type="curve" smooth="yes"/>
			<point x="213" y="-13"/>
			<point x="301" y="71"/>
			<point x="367" y="168" type="curve"/>
			<point x="374" y="168" type="line"/>
			<point x="362" y="179" type="line"/>
			<point x="278" y="81"/>
			<point x="217" y="26"/>
			<point x="158" y="26" type="curve" smooth="yes"/>
			<point x="117" y="26"/>
			<point x="91" y="58"/>
			<point x="91" y="128" type="curve" smooth="yes"/>
			<point x="91" y="207"/>
			<point x="126" y="293"/>
			<point x="180" y="354" type="curve" smooth="yes"/>
			<point x="221" y="400"/>
			<point x="272" y="431"/>
			<point x="326" y="431" type="curve" smooth="yes"/>
			<point x="355" y="431"/>
			<point x="384" y="418"/>
			<point x="408" y="392" type="curve"/>
			<point x="427" y="421" type="line"/>
			<point x="402" y="453"/>
			<point x="375" y="467"/>
			<point x="341" y="467" type="curve" smooth="yes"/>
			<point x="202" y="467"/>
			<point x="46" y="273"/>
			<point x="46" y="110" type="curve" smooth="yes"/>
			<point x="46" y="20"/>
			<point x="87" y="-13"/>
		</contour>
		<contour>
			<point x="265" y="569" type="line"/>
			<point x="573" y="569" type="line"/>
			<point x="577" y="591" type="line"/>
			<point x="270" y="591" type="line"/>
		</contour>
		<contour>
			<point x="372" y="-13" type="curve" smooth="yes"/>
			<point x="429" y="-13"/>
			<point x="477" y="38"/>
			<point x="516" y="96" type="curve"/>
			<point x="502" y="107" type="line"/>
			<point x="464" y="59"/>
			<point x="425" y="27"/>
			<point x="395" y="27" type="curve" smooth="yes"/>
			<point x="379" y="27"/>
			<point x="370" y="35"/>
			<point x="370" y="51" type="curve" smooth="yes"/>
			<point x="370" y="66"/>
			<point x="373" y="88"/>
			<point x="378" y="109" type="curve" smooth="yes"/>
			<point x="505" y="737" type="line"/>
			<point x="495" y="745" type="line"/>
			<point x="347" y="718" type="line"/>
			<point x="344" y="701" type="line"/>
			<point x="465" y="696" type="line"/>
			<point x="457" y="709" type="line"/>
			<point x="402" y="436" type="line"/>
			<point x="397" y="421" type="line"/>
			<point x="338" y="125" type="line"/>
			<point x="333" y="101" type="line" smooth="yes"/>
			<point x="327" y="69"/>
			<point x="324" y="52"/>
			<point x="324" y="34" type="curve" smooth="yes"/>
			<point x="324" y="3"/>
			<point x="344" y="-13"/>
		</contour>
	</outline>
</glyph>
<glyph name="eogonek" format="2">
	<unicode hex="0119"/>
	<advance width="403"/>
	<outline>
		<contour>
			<point x="220" y="-240" type="curve" smooth="yes"/>
			<point x="247" y="-240"/>
			<point x="276" y="-229"/>
			<point x="300" y="-212" type="curve"/>
			<point x="293" y="-195" type="line"/>
			<point x="273" y="-205"/>
			<point x="252" y="-209"/>
			<point x="235" y="-209" type="curve" smooth="yes"/>
			<point x="201" y="-209"/>
			<point x="180" y="-187"/>
			<point x="180" y="-152" type="curve" smooth="yes"/>
			<point x="180" y="-98"/>
			<point x="229" y="-35"/>
			<point x="297" y="22" type="curve" smooth="yes"/>
			<point x="322" y="43"/>
			<point x="344" y="68"/>
			<point x="363" y="98" type="curve"/>
			<point x="349" y="109" type="line"/>
			<point x="314" y="62"/>
			<point x="267" y="27"/>
			<point x="209" y="27" type="curve" smooth="yes"/>
			<point x="140" y="27"/>
			<point x="94" y="73"/>
			<point x="94" y="172" type="curve" smooth="yes"/>
			<point x="94" y="310"/>
			<point x="201" y="454"/>
			<point x="296" y="454" type="curve" smooth="yes"/>
			<point x="334" y="454"/>
			<point x="358" y="432"/>
			<point x="358" y="395" type="curve" smooth="yes"/>
			<point x="358" y="317"/>
			<point x="266" y="240"/>
			<point x="76" y="190" type="curve"/>
			<point x="79" y="169" type="line"/>
			<point x="298" y="226"/>
			<point x="398" y="313"/>
			<point x="398" y="398" type="curve" smooth="yes"/>
			<point x="398" y="452"/>
			<point x="360" y="478"/>
			<point x="306" y="478" type="curve" smooth="yes"/>
			<point x="172" y="478"/>
			<point x="52" y="317"/>
			<point x="52" y="161" type="curve" smooth="yes"/>
			<point x="52" y="38"/>
			<point x="117" y="-13"/>
			<point x="194" y="-13" type="curve" smooth="yes"/>
			<point x="213" y="-13"/>
			<point x="231" y="-9"/>
			<point x="242" y="-4" type="curve"/>
			<point x="242" y="-5" type="line"/>
			<point x="189" y="-52"/>
			<point x="142" y="-111"/>
			<point x="142" y="-167" type="curve" smooth="yes"/>
			<point x="142" y="-209"/>
			<point x="168" y="-240"/>
		</contour>
	</outline>
	<anchor name="aboveLC" x="306" y="486"/>
</glyph>
<glyph name="iogonek" format="2">
	<unicode hex="012F"/>
	<advance width="287"/>
	<outline>
		<contour>
			<point x="135" y="-240" type="curve" smooth="yes"/>
			<point x="163" y="-240"/>
			<point x="191" y="-230"/>
			<point x="215" y="-212" type="curve"/>
			<point x="208" y="-195" type="line"/>
			<point x="188" y="-205"/>
			<point x="168" y="-209"/>
			<point x="150" y="-209" type="curve" smooth="yes"/>
			<point x="116" y="-209"/>
			<point x="95" y="-188"/>
			<point x="95" y="-153" type="curve" smooth="yes"/>
			<point x="95" y="-98"/>
			<point x="139" y="-44"/>
			<point x="203" y="16" type="curve" smooth="yes"/>
			<point x="231" y="40"/>
			<point x="253" y="65"/>
			<point x="275" y="96" type="curve"/>
			<point x="261" y="107" type="line"/>
			<point x="221" y="58"/>
			<point x="183" y="27"/>
			<point x="154" y="27" type="curve" smooth="yes"/>
			<point x="139" y="27"/>
			<point x="129" y="35"/>
			<point x="129" y="51" type="curve" smooth="yes"/>
			<point x="129" y="66"/>
			<point x="134" y="89"/>
			<point x="139" y="110" type="curve" smooth="yes"/>
			<point x="215" y="468" type="line"/>
			<point x="204" y="477" type="line"/>
			<point x="56" y="450" type="line"/>
			<point x="54" y="433" type="line"/>
			<point x="180" y="427" type="line"/>
			<point x="167" y="444" type="line"/>
			<point x="94" y="101" type="line" smooth="yes"/>
			<point x="87" y="69"/>
			<point x="83" y="51"/>
			<point x="83" y="32" type="curve" smooth="yes"/>
			<point x="83" y="4"/>
			<point x="104" y="-13"/>
			<point x="130" y="-13" type="curve" smooth="yes"/>
			<point x="140" y="-13"/>
			<point x="147" y="-11"/>
			<point x="151" y="-9" type="curve"/>
			<point x="151" y="-10" type="line"/>
			<point x="100" y="-56"/>
			<point x="57" y="-113"/>
			<point x="57" y="-168" type="curve" smooth="yes"/>
			<point x="57" y="-210"/>
			<point x="84" y="-240"/>
		</contour>
		<contour>
			<point x="224" y="632" type="curve" smooth="yes"/>
			<point x="244" y="632"/>
			<point x="266" y="651"/>
			<point x="266" y="678" type="curve" smooth="yes"/>
			<point x="266" y="700"/>
			<point x="251" y="714"/>
			<point x="230" y="714" type="curve" smooth="yes"/>
			<point x="209" y="714"/>
			<point x="188" y="695"/>
			<point x="188" y="668" type="curve" smooth="yes"/>
			<point x="188" y="645"/>
			<point x="204" y="632"/>
		</contour>
	</outline>
</glyph>
<glyph name="lslash" format="2">
	<unicode hex="0142"/>
	<advance width="260"/>
	<outline>
		<contour>
			<point x="153" y="400" type="line"/>
			<point x="26" y="337" type="line"/>
			<point x="20" y="308" type="line"/>
			<point x="147" y="371" type="line"/>
		</contour>
		<contour>
			<point x="277" y="458" type="line"/>
			<point x="151" y="395" type="line"/>
			<point x="145" y="366" type="line"/>
			<point x="271" y="428" type="line"/>
		</contour>
		<component base="l"/>
	</outline>
</glyph>
<glyph name="Eng" format="2">
	<unicode hex="014A"/>
	<advance width="715"/>
	<outline>
		<contour>
			<point x="4" y="0" type="line"/>
			<point x="230" y="0" type="line"/>
			<point x="234" y="24" type="line"/>
			<point x="121" y="33" type="line"/>
			<point x="107" y="33" type="line"/>
			<point x="8" y="24" type="line"/>
		</contour>
		<contour>
			<point x="91" y="0" type="line"/>
			<point x="121" y="0" type="line"/>
			<point x="184" y="332" type="line"/>
			<point x="246" y="663" type="line"/>
			<point x="216" y="663" type="line"/>
		</contour>
		<contour>
			<point x="383" y="-126" type="curve" smooth="yes"/>
			<point x="424" y="-126"/>
			<point x="461" y="-109"/>
			<point x="497" y="-70" type="curve" smooth="yes"/>
			<point x="538" y="-27"/>
			<point x="561" y="28"/>
			<point x="583" y="152" type="curve" smooth="yes"/>
			<point x="675" y="673" type="line"/>
			<point x="646" y="673" type="line"/>
			<point x="586" y="331" type="line"/>
			<point x="549" y="118" type="line" smooth="yes"/>
			<point x="527" y="-8"/>
			<point x="486" y="-65"/>
			<point x="425" y="-101" type="curve"/>
			<point x="425" y="-107" type="line"/>
			<point x="444" y="-107" type="line"/>
			<point x="445" y="-102" type="line"/>
			<point x="427" y="-87" type="line" smooth="yes"/>
			<point x="407" y="-70"/>
			<point x="385" y="-58"/>
			<point x="363" y="-58" type="curve" smooth="yes"/>
			<point x="342" y="-58"/>
			<point x="322" y="-67"/>
			<point x="316" y="-88" type="curve"/>
			<point x="320" y="-112"/>
			<point x="351" y="-126"/>
		</contour>
		<contour>
			<point x="526" y="-1" type="line"/>
			<point x="537" y="-1" type="line"/>
			<point x="558" y="64" type="line"/>
			<point x="548" y="64" type="line"/>
			<point x="259" y="674" type="line"/>
			<point x="120" y="674" type="line"/>
			<point x="115" y="650" type="line"/>
			<point x="216" y="643" type="line"/>
			<point x="225" y="625" type="line"/>
			<point x="227" y="621" type="line"/>
		</contour>
		<contour>
			<point x="652" y="640" type="line"/>
			<point x="665" y="640" type="line"/>
			<point x="758" y="650" type="line"/>
			<point x="763" y="674" type="line"/>
			<point x="540" y="674" type="line"/>
			<point x="535" y="650" type="line"/>
		</contour>
	</outline>
</glyph>
<glyph name="Uogonek" format="2">
	<unicode hex="0172"/>
	<advance width="698"/>
	<outline>
		<contour>
			<point x="219" y="640" type="line"/>
			<point x="235" y="640" type="line"/>
			<point x="348" y="650" type="line"/>
			<point x="353" y="674" type="line"/>
			<point x="115" y="674" type="line"/>
			<point x="110" y="650" type="line"/>
		</contour>
		<contour>
			<point x="389" y="-240" type="curve" smooth="yes"/>
			<point x="417" y="-240"/>
			<point x="446" y="-229"/>
			<point x="470" y="-212" type="curve"/>
			<point x="463" y="-195" type="line"/>
			<point x="443" y="-205"/>
			<point x="422" y="-209"/>
			<point x="404" y="-209" type="curve" smooth="yes"/>
			<point x="370" y="-209"/>
			<point x="350" y="-188"/>
			<point x="350" y="-152" type="curve" smooth="yes"/>
			<point x="350" y="-96"/>
			<point x="401" y="-31"/>
			<point x="474" y="30" type="curve" smooth="yes"/>
			<point x="532" y="79"/>
			<point x="564" y="143"/>
			<point x="584" y="253" type="curve" smooth="yes"/>
			<point x="663" y="674" type="line"/>
			<point x="632" y="674" type="line"/>
			<point x="557" y="275" type="line" smooth="yes"/>
			<point x="522" y="85"/>
			<point x="463" y="25"/>
			<point x="324" y="25" type="curve" smooth="yes"/>
			<point x="236" y="25"/>
			<point x="172" y="72"/>
			<point x="172" y="174" type="curve" smooth="yes"/>
			<point x="172" y="205"/>
			<point x="176" y="232"/>
			<point x="181" y="262" type="curve" smooth="yes"/>
			<point x="258" y="674" type="line"/>
			<point x="207" y="674" type="line"/>
			<point x="190" y="570"/>
			<point x="173" y="472"/>
			<point x="151" y="353" type="curve" smooth="yes"/>
			<point x="133" y="260" type="line" smooth="yes"/>
			<point x="127" y="226"/>
			<point x="122" y="193"/>
			<point x="122" y="166" type="curve" smooth="yes"/>
			<point x="122" y="44"/>
			<point x="201" y="-14"/>
			<point x="317" y="-14" type="curve" smooth="yes"/>
			<point x="358" y="-14"/>
			<point x="391" y="-7"/>
			<point x="420" y="3" type="curve"/>
			<point x="420" y="2" type="line"/>
			<point x="361" y="-49"/>
			<point x="312" y="-108"/>
			<point x="312" y="-167" type="curve" smooth="yes"/>
			<point x="312" y="-209"/>
			<point x="338" y="-240"/>
		</contour>
		<contour>
			<point x="634" y="640" type="line"/>
			<point x="647" y="640" type="line"/>
			<point x="746" y="650" type="line"/>
			<point x="751" y="674" type="line"/>
			<point x="526" y="674" type="line"/>
			<point x="521" y="650" type="line"/>
		</contour>
	</outline>
	<anchor name="aboveUC" x="439" y="694"/>
</glyph>
<glyph name="uogonek" format="2">
	<unicode hex="0173"/>
	<advance width="544"/>
	<outline>
		<contour>
			<point x="149" y="-13" type="curve" smooth="yes"/>
			<point x="216" y="-13"/>
			<point x="290" y="39"/>
			<point x="382" y="132" type="curve"/>
			<point x="387" y="132" type="line"/>
			<point x="381" y="150" type="line"/>
			<point x="279" y="58"/>
			<point x="218" y="28"/>
			<point x="172" y="28" type="curve" smooth="yes"/>
			<point x="144" y="28"/>
			<point x="131" y="44"/>
			<point x="131" y="72" type="curve" smooth="yes"/>
			<point x="131" y="98"/>
			<point x="141" y="149"/>
			<point x="149" y="187" type="curve" smooth="yes"/>
			<point x="212" y="469" type="line"/>
			<point x="201" y="478" type="line"/>
			<point x="58" y="451" type="line"/>
			<point x="55" y="433" type="line"/>
			<point x="167" y="429" type="line"/>
			<point x="162" y="440" type="line"/>
			<point x="103" y="173" type="line" smooth="yes"/>
			<point x="95" y="135"/>
			<point x="85" y="91"/>
			<point x="85" y="55" type="curve" smooth="yes"/>
			<point x="85" y="10"/>
			<point x="108" y="-13"/>
		</contour>
		<contour>
			<point x="394" y="-237" type="curve" smooth="yes"/>
			<point x="431" y="-237"/>
			<point x="468" y="-217"/>
			<point x="494" y="-190" type="curve"/>
			<point x="486" y="-178" type="line"/>
			<point x="461" y="-196"/>
			<point x="432" y="-206"/>
			<point x="408" y="-206" type="curve" smooth="yes"/>
			<point x="374" y="-206"/>
			<point x="355" y="-184"/>
			<point x="355" y="-149" type="curve" smooth="yes"/>
			<point x="355" y="-94"/>
			<point x="404" y="-35"/>
			<point x="463" y="16" type="curve" smooth="yes"/>
			<point x="489" y="39"/>
			<point x="513" y="67"/>
			<point x="533" y="96" type="curve"/>
			<point x="519" y="107" type="line"/>
			<point x="479" y="58"/>
			<point x="442" y="27"/>
			<point x="411" y="27" type="curve" smooth="yes"/>
			<point x="396" y="27"/>
			<point x="386" y="35"/>
			<point x="386" y="51" type="curve" smooth="yes"/>
			<point x="386" y="66"/>
			<point x="391" y="88"/>
			<point x="396" y="109" type="curve" smooth="yes"/>
			<point x="471" y="470" type="line"/>
			<point x="462" y="477" type="line"/>
			<point x="424" y="463" type="line"/>
			<point x="412" y="396"/>
			<point x="400" y="334"/>
			<point x="387" y="269" type="curve" smooth="yes"/>
			<point x="355" y="119" type="line"/>
			<point x="354" y="110" type="line"/>
			<point x="345" y="69"/>
			<point x="341" y="52"/>
			<point x="341" y="34" type="curve" smooth="yes"/>
			<point x="341" y="5"/>
			<point x="361" y="-13"/>
			<point x="388" y="-13" type="curve" smooth="yes"/>
			<point x="400" y="-13"/>
			<point x="408" y="-10"/>
			<point x="427" y="-2" type="curve"/>
			<point x="411" y="10" type="line"/>
			<point x="411" y="-10" type="line"/>
			<point x="360" y="-55"/>
			<point x="316" y="-109"/>
			<point x="316" y="-164" type="curve" smooth="yes"/>
			<point x="316" y="-206"/>
			<point x="343" y="-237"/>
		</contour>
	</outline>
	<anchor name="aboveLC" x="317" y="486"/>
	<anchor name="belowLC" x="255" y="-20"/>
</glyph>
<glyph name="Schwa" format="2">
	<unicode hex="018F"/>
	<advance width="614"/>
	<outline>
		<contour>
			<point x="268" y="-14" type="curve" smooth="yes"/>
			<point x="441" y="-14"/>
			<point x="597" y="173"/>
			<point x="597" y="415" type="curve" smooth="yes"/>
			<point x="597" y="595"/>
			<point x="512" y="687"/>
			<point x="369" y="687" type="curve" smooth="yes"/>
			<point x="288" y="687"/>
			<point x="215" y="655"/>
			<point x="153" y="595" type="curve"/>
			<point x="166" y="578" type="line"/>
			<point x="222" y="628"/>
			<point x="286" y="654"/>
			<point x="357" y="654" type="curve" smooth="yes"/>
			<point x="475" y="654"/>
			<point x="546" y="576"/>
			<point x="546" y="416" type="curve" smooth="yes"/>
			<point x="546" y="190"/>
			<point x="421" y="14"/>
			<point x="274" y="14" type="curve" smooth="yes"/>
			<point x="161" y="14"/>
			<point x="104" y="93"/>
			<point x="104" y="211" type="curve" smooth="yes"/>
			<point x="104" y="262"/>
			<point x="111" y="297"/>
			<point x="122" y="332" type="curve"/>
			<point x="555" y="332" type="line"/>
			<point x="559" y="360" type="line"/>
			<point x="80" y="360" type="line"/>
			<point x="67" y="316"/>
			<point x="56" y="267"/>
			<point x="56" y="216" type="curve" smooth="yes"/>
			<point x="56" y="81"/>
			<point x="131" y="-14"/>
		</contour>
	</outline>
	<anchor name="aboveUC" x="369" y="694"/>
	<anchor name="belowLC" x="270" y="-20"/>
</glyph>
<glyph name="Uhorn" format="2">
	<unicode hex="01AF"/>
	<advance width="698"/>
	<outline>
		<contour>
			<point x="122" y="166" type="curve" smooth="yes"/>
			<point x="122" y="44"/>
			<point x="199" y="-14"/>
			<point x="317" y="-14" type="curve" smooth="yes"/>
			<point x="465" y="-14"/>
			<point x="549" y="63"/>
			<point x="584" y="253" type="curve" smooth="yes"/>
			<point x="663" y="674" type="line"/>
			<point x="632" y="674" type="line"/>
			<point x="557" y="275" type="line" smooth="yes"/>
			<point x="521" y="83"/>
			<point x="457" y="25"/>
			<point x="324" y="25" type="curve" smooth="yes"/>
			<point x="235" y="25"/>
			<point x="171" y="71"/>
			<point x="171" y="171" type="curve" smooth="yes"/>
			<point x="171" y="203"/>
			<point x="176" y="231"/>
			<point x="181" y="262" type="curve" smooth="yes"/>
			<point x="258" y="674" type="line"/>
			<point x="207" y="674" type="line"/>
			<point x="190" y="570"/>
			<point x="173" y="472"/>
			<point x="151" y="353" type="curve" smooth="yes"/>
			<point x="133" y="260" type="line" smooth="yes"/>
			<point x="127" y="226"/>
			<point x="122" y="193"/>
		</contour>
		<contour>
			<point x="643" y="641" type="line"/>
			<point x="742" y="646"/>
			<point x="787" y="676"/>
			<point x="787" y="756" type="curve" smooth="yes"/>
			<point x="787" y="771"/>
			<point x="784" y="786"/>
			<point x="780" y="796" type="curve"/>
			<point x="773" y="801"/>
			<point x="766" y="803"/>
			<point x="759" y="803" type="curve" smooth="yes"/>
			<point x="742" y="803"/>
			<point x="731" y="791"/>
			<point x="731" y="774" type="curve" smooth="yes"/>
			<point x="731" y="755"/>
			<point x="744" y="739"/>
			<point x="744" y="717" type="curve" smooth="yes"/>
			<point x="744" y="689"/>
			<point x="716" y="674"/>
			<point x="648" y="674" type="curve"/>
		</contour>
		<contour>
			<point x="110" y="650" type="line"/>
			<point x="219" y="640" type="line"/>
			<point x="235" y="640" type="line"/>
			<point x="348" y="650" type="line"/>
			<point x="353" y="674" type="line"/>
			<point x="115" y="674" type="line"/>
		</contour>
		<contour>
			<point x="521" y="650" type="line"/>
			<point x="634" y="640" type="line"/>
			<point x="643" y="640" type="line"/>
			<point x="649" y="674" type="line"/>
			<point x="526" y="674" type="line"/>
		</contour>
	</outline>
	<anchor name="aboveUC" x="437" y="694"/>
	<anchor name="belowLC" x="320" y="-20"/>
</glyph>
<glyph name="dotlessj" format="2">
	<unicode hex="0237"/>
	<advance width="248"/>
	<outline>
		<contour>
			<point x="-83" y="-254" type="line"/>
			<point x="-47" y="-248"/>
			<point x="-15" y="-233"/>
			<point x="15" y="-207" type="curve" smooth="yes"/>
			<point x="76" y="-153"/>
			<point x="104" y="-81"/>
			<point x="125" y="22" type="curve" smooth="yes"/>
			<point x="214" y="468" type="line"/>
			<point x="203" y="477" type="line"/>
			<point x="55" y="450" type="line"/>
			<point x="52" y="433" type="line"/>
			<point x="178" y="428" type="line"/>
			<point x="166" y="442" type="line"/>
			<point x="86" y="36" type="line" smooth="yes"/>
			<point x="65" y="-75"/>
			<point x="41" y="-135"/>
			<point x="2" y="-179" type="curve" smooth="yes"/>
			<point x="-24" y="-209"/>
			<point x="-52" y="-225"/>
			<point x="-87" y="-237" type="curve"/>
		</contour>
	</outline>
	<anchor name="aboveLC" x="189" y="486"/>
</glyph>
<glyph name="schwa" format="2">
	<unicode hex="0259"/>
	<advance width="417"/>
	<outline>
		<contour>
			<point x="123" y="-13" type="curve" smooth="yes"/>
			<point x="258" y="-13"/>
			<point x="387" y="150"/>
			<point x="387" y="308" type="curve" smooth="yes"/>
			<point x="387" y="428"/>
			<point x="327" y="478"/>
			<point x="251" y="478" type="curve" smooth="yes"/>
			<point x="180" y="478"/>
			<point x="121" y="434"/>
			<point x="77" y="368" type="curve"/>
			<point x="91" y="357" type="line"/>
			<point x="129" y="405"/>
			<point x="177" y="441"/>
			<point x="236" y="441" type="curve" smooth="yes"/>
			<point x="303" y="441"/>
			<point x="342" y="395"/>
			<point x="342" y="296" type="curve" smooth="yes"/>
			<point x="342" y="157"/>
			<point x="230" y="12"/>
			<point x="135" y="12" type="curve" smooth="yes"/>
			<point x="96" y="12"/>
			<point x="73" y="33"/>
			<point x="73" y="71" type="curve" smooth="yes"/>
			<point x="73" y="151"/>
			<point x="171" y="227"/>
			<point x="363" y="281" type="curve"/>
			<point x="360" y="301" type="line"/>
			<point x="138" y="242"/>
			<point x="34" y="155"/>
			<point x="34" y="68" type="curve" smooth="yes"/>
			<point x="34" y="15"/>
			<point x="69" y="-13"/>
		</contour>
	</outline>
	<anchor name="aboveLC" x="268" y="486"/>
	<anchor name="belowLC" x="171" y="-20"/>
</glyph>
<glyph name="gscript" format="2">
	<unicode hex="0261"/>
	<advance width="468"/>
	<outline>
		<contour>
			<point x="126" y="-255" type="curve" smooth="yes"/>
			<point x="189" y="-255"/>
			<point x="237" y="-234"/>
			<point x="276" y="-195" type="curve" smooth="yes"/>
			<point x="327" y="-145"/>
			<point x="346" y="-55"/>
			<point x="370" y="128" type="curve"/>
			<point x="413" y="340" type="line"/>
			<point x="442" y="475" type="line"/>
			<point x="431" y="482" type="line"/>
			<point x="393" y="441" type="line"/>
			<point x="390" y="438" type="line"/>
			<point x="331" y="139" type="line"/>
			<point x="330" y="136" type="line"/>
			<point x="307" y="-37"/>
			<point x="294" y="-129"/>
			<point x="249" y="-178" type="curve" smooth="yes"/>
			<point x="219" y="-209"/>
			<point x="180" y="-231"/>
			<point x="124" y="-231" type="curve" smooth="yes"/>
			<point x="92" y="-231"/>
			<point x="63" y="-225"/>
			<point x="35" y="-210" type="curve"/>
			<point x="58" y="-228" type="line"/>
			<point x="44" y="-154" type="line" smooth="yes"/>
			<point x="40" y="-130"/>
			<point x="32" y="-119"/>
			<point x="14" y="-119" type="curve" smooth="yes"/>
			<point x="-1" y="-119"/>
			<point x="-14" y="-129"/>
			<point x="-18" y="-143" type="curve"/>
			<point x="-8" y="-218"/>
			<point x="44" y="-255"/>
		</contour>
		<contour>
			<point x="142" y="-9" type="curve" smooth="yes"/>
			<point x="218" y="-9"/>
			<point x="292" y="74"/>
			<point x="360" y="172" type="curve"/>
			<point x="364" y="172" type="line"/>
			<point x="354" y="183" type="line"/>
			<point x="274" y="86"/>
			<point x="219" y="30"/>
			<point x="161" y="30" type="curve" smooth="yes"/>
			<point x="118" y="30"/>
			<point x="90" y="62"/>
			<point x="90" y="134" type="curve" smooth="yes"/>
			<point x="90" y="219"/>
			<point x="130" y="315"/>
			<point x="190" y="377" type="curve" smooth="yes"/>
			<point x="229" y="417"/>
			<point x="275" y="442"/>
			<point x="322" y="442" type="curve" smooth="yes"/>
			<point x="355" y="442"/>
			<point x="383" y="427"/>
			<point x="405" y="401" type="curve"/>
			<point x="422" y="423" type="line"/>
			<point x="402" y="458"/>
			<point x="374" y="478"/>
			<point x="337" y="478" type="curve" smooth="yes"/>
			<point x="201" y="478"/>
			<point x="44" y="279"/>
			<point x="44" y="116" type="curve" smooth="yes"/>
			<point x="44" y="23"/>
			<point x="92" y="-9"/>
		</contour>
	</outline>
	<anchor name="aboveLC" x="329" y="486"/>
	<anchor name="belowLC" x="136" y="-268"/>
</glyph>
<glyph name="h.sups" format="2">
	<unicode hex="02B0"/>
	<advance width="370"/>
	<outline>
		<contour>
			<point x="123" y="424" type="line"/>
			<point x="156" y="428" type="line"/>
			<point x="200" y="653" type="line"/>
			<point x="201" y="659" type="line"/>
			<point x="252" y="903" type="line"/>
			<point x="245" y="909" type="line"/>
			<point x="139" y="888" type="line"/>
			<point x="137" y="875" type="line"/>
			<point x="218" y="870" type="line"/>
			<point x="209" y="882" type="line"/>
			<point x="118" y="429" type="line"/>
		</contour>
		<contour>
			<point x="333" y="420" type="curve" smooth="yes"/>
			<point x="374" y="420"/>
			<point x="408" y="454"/>
			<point x="435" y="493" type="curve"/>
			<point x="424" y="500" type="line"/>
			<point x="398" y="470"/>
			<point x="373" y="451"/>
			<point x="354" y="451" type="curve" smooth="yes"/>
			<point x="334" y="451"/>
			<point x="337" y="468"/>
			<point x="345" y="502" type="curve" smooth="yes"/>
			<point x="377" y="635" type="line" smooth="yes"/>
			<point x="382" y="658"/>
			<point x="386" y="677"/>
			<point x="386" y="696" type="curve" smooth="yes"/>
			<point x="386" y="724"/>
			<point x="372" y="740"/>
			<point x="342" y="740" type="curve" smooth="yes"/>
			<point x="301" y="740"/>
			<point x="240" y="704"/>
			<point x="190" y="653" type="curve"/>
			<point x="183" y="653" type="line"/>
			<point x="189" y="637" type="line"/>
			<point x="250" y="687"/>
			<point x="290" y="709"/>
			<point x="322" y="709" type="curve" smooth="yes"/>
			<point x="337" y="709"/>
			<point x="347" y="700"/>
			<point x="347" y="681" type="curve" smooth="yes"/>
			<point x="347" y="666"/>
			<point x="343" y="646"/>
			<point x="338" y="625" type="curve" smooth="yes"/>
			<point x="308" y="497" type="line" smooth="yes"/>
			<point x="303" y="477"/>
			<point x="300" y="464"/>
			<point x="300" y="449" type="curve" smooth="yes"/>
			<point x="300" y="431"/>
			<point x="313" y="420"/>
		</contour>
	</outline>
</glyph>
<glyph name="j.sups" format="2">
	<unicode hex="02B2"/>
	<advance width="177"/>
	<outline>
		<contour>
			<point x="226" y="844" type="curve" smooth="yes"/>
			<point x="242" y="844"/>
			<point x="259" y="859"/>
			<point x="259" y="878" type="curve" smooth="yes"/>
			<point x="259" y="895"/>
			<point x="247" y="906"/>
			<point x="230" y="906" type="curve" smooth="yes"/>
			<point x="214" y="906"/>
			<point x="198" y="892"/>
			<point x="198" y="872" type="curve" smooth="yes"/>
			<point x="198" y="854"/>
			<point x="210" y="844"/>
		</contour>
		<contour>
			<point x="21" y="268" type="line"/>
			<point x="47" y="272"/>
			<point x="71" y="283"/>
			<point x="93" y="303" type="curve" smooth="yes"/>
			<point x="132" y="337"/>
			<point x="152" y="382"/>
			<point x="165" y="449" type="curve" smooth="yes"/>
			<point x="222" y="738" type="line"/>
			<point x="214" y="744" type="line"/>
			<point x="110" y="722" type="line"/>
			<point x="108" y="710" type="line"/>
			<point x="192" y="705" type="line"/>
			<point x="182" y="715" type="line"/>
			<point x="130" y="456" type="line" smooth="yes"/>
			<point x="116" y="385"/>
			<point x="102" y="346"/>
			<point x="77" y="318" type="curve" smooth="yes"/>
			<point x="59" y="299"/>
			<point x="41" y="288"/>
			<point x="17" y="280" type="curve"/>
		</contour>
	</outline>
</glyph>
<glyph name="r.sups" format="2">
	<unicode hex="02B3"/>
	<advance width="269"/>
	<outline>
		<contour>
			<point x="194" y="596" type="line"/>
			<point x="227" y="655"/>
			<point x="261" y="700"/>
			<point x="299" y="720" type="curve"/>
			<point x="299" y="723" type="line"/>
			<point x="274" y="719" type="line"/>
			<point x="297" y="699"/>
			<point x="311" y="692"/>
			<point x="326" y="692" type="curve" smooth="yes"/>
			<point x="343" y="692"/>
			<point x="353" y="704"/>
			<point x="353" y="721" type="curve"/>
			<point x="347" y="734"/>
			<point x="332" y="740"/>
			<point x="312" y="740" type="curve" smooth="yes"/>
			<point x="267" y="740"/>
			<point x="225" y="682"/>
			<point x="194" y="617" type="curve"/>
			<point x="182" y="617" type="line"/>
		</contour>
		<contour>
			<point x="124" y="429" type="line"/>
			<point x="129" y="424" type="line"/>
			<point x="162" y="428" type="line"/>
			<point x="201" y="620" type="line"/>
			<point x="202" y="626" type="line"/>
			<point x="222" y="733" type="line"/>
			<point x="214" y="740" type="line"/>
			<point x="113" y="718" type="line"/>
			<point x="111" y="705" type="line"/>
			<point x="192" y="701" type="line"/>
			<point x="184" y="709" type="line"/>
		</contour>
	</outline>
</glyph>
<glyph name="w.sups" format="2">
	<unicode hex="02B7"/>
	<advance width="494"/>
	<outline>
		<contour>
			<point x="190" y="430" type="curve"/>
			<point x="209" y="430" type="line"/>
			<point x="268" y="502"/>
			<point x="319" y="589"/>
			<point x="355" y="666" type="curve"/>
			<point x="357" y="671" type="line"/>
			<point x="351" y="670" type="line"/>
			<point x="356" y="598"/>
			<point x="363" y="503"/>
			<point x="367" y="430" type="curve"/>
			<point x="386" y="430" type="line"/>
			<point x="453" y="499"/>
			<point x="501" y="567"/>
			<point x="533" y="629" type="curve" smooth="yes"/>
			<point x="555" y="671"/>
			<point x="561" y="696"/>
			<point x="561" y="716" type="curve" smooth="yes"/>
			<point x="561" y="727"/>
			<point x="561" y="733"/>
			<point x="558" y="739" type="curve"/>
			<point x="555" y="742"/>
			<point x="549" y="745"/>
			<point x="541" y="745" type="curve" smooth="yes"/>
			<point x="526" y="745"/>
			<point x="514" y="735"/>
			<point x="514" y="711" type="curve" smooth="yes"/>
			<point x="514" y="704"/>
			<point x="514" y="693"/>
			<point x="527" y="632" type="curve"/>
			<point x="534" y="682" type="line"/>
			<point x="528" y="666"/>
			<point x="521" y="651"/>
			<point x="514" y="638" type="curve" smooth="yes"/>
			<point x="481" y="571"/>
			<point x="445" y="523"/>
			<point x="399" y="467" type="curve"/>
			<point x="396" y="465" type="line"/>
			<point x="401" y="464" type="line"/>
			<point x="396" y="554"/>
			<point x="390" y="640"/>
			<point x="384" y="735" type="curve"/>
			<point x="363" y="735" type="line"/>
			<point x="326" y="643"/>
			<point x="276" y="553"/>
			<point x="220" y="473" type="curve"/>
			<point x="217" y="469" type="line"/>
			<point x="222" y="469" type="line"/>
			<point x="221" y="554"/>
			<point x="217" y="635"/>
			<point x="208" y="691" type="curve" smooth="yes"/>
			<point x="202" y="729"/>
			<point x="190" y="745"/>
			<point x="164" y="745" type="curve" smooth="yes"/>
			<point x="135" y="745"/>
			<point x="112" y="723"/>
			<point x="89" y="673" type="curve"/>
			<point x="100" y="666" type="line"/>
			<point x="121" y="702"/>
			<point x="135" y="712"/>
			<point x="149" y="712" type="curve" smooth="yes"/>
			<point x="160" y="712"/>
			<point x="168" y="706"/>
			<point x="172" y="677" type="curve" smooth="yes"/>
			<point x="182" y="616"/>
			<point x="186" y="528"/>
		</contour>
	</outline>
</glyph>
<glyph name="l.sups" format="2">
	<unicode hex="02E1"/>
	<advance width="191"/>
	<outline>
		<contour>
			<point x="156" y="424" type="curve" smooth="yes"/>
			<point x="197" y="424"/>
			<point x="229" y="458"/>
			<point x="256" y="497" type="curve"/>
			<point x="246" y="505" type="line"/>
			<point x="220" y="474"/>
			<point x="195" y="455"/>
			<point x="177" y="455" type="curve" smooth="yes"/>
			<point x="157" y="455"/>
			<point x="158" y="470"/>
			<point x="165" y="505" type="curve" smooth="yes"/>
			<point x="248" y="907" type="line"/>
			<point x="241" y="913" type="line"/>
			<point x="135" y="892" type="line"/>
			<point x="133" y="879" type="line"/>
			<point x="214" y="874" type="line"/>
			<point x="205" y="886" type="line"/>
			<point x="129" y="505" type="line" smooth="yes"/>
			<point x="124" y="482"/>
			<point x="122" y="469"/>
			<point x="122" y="457" type="curve" smooth="yes"/>
			<point x="122" y="436"/>
			<point x="136" y="424"/>
		</contour>
	</outline>
</glyph>
<glyph name="s.sups" format="2">
	<unicode hex="02E2"/>
	<advance width="249"/>
	<outline>
		<contour>
			<point x="154" y="430" type="line"/>
			<point x="139" y="474" type="line" smooth="yes"/>
			<point x="135" y="489"/>
			<point x="128" y="495"/>
			<point x="115" y="495" type="curve" smooth="yes"/>
			<point x="105" y="495"/>
			<point x="98" y="488"/>
			<point x="95" y="477" type="curve"/>
			<point x="105" y="438"/>
			<point x="132" y="420"/>
			<point x="181" y="420" type="curve" smooth="yes"/>
			<point x="244" y="420"/>
			<point x="288" y="455"/>
			<point x="288" y="509" type="curve" smooth="yes"/>
			<point x="288" y="544"/>
			<point x="268" y="565"/>
			<point x="227" y="594" type="curve" smooth="yes"/>
			<point x="193" y="618"/>
			<point x="175" y="634"/>
			<point x="175" y="665" type="curve" smooth="yes"/>
			<point x="175" y="697"/>
			<point x="198" y="724"/>
			<point x="246" y="724" type="curve" smooth="yes"/>
			<point x="259" y="724"/>
			<point x="272" y="721"/>
			<point x="281" y="717" type="curve"/>
			<point x="260" y="732" type="line"/>
			<point x="276" y="694" type="line" smooth="yes"/>
			<point x="282" y="679"/>
			<point x="291" y="672"/>
			<point x="302" y="672" type="curve" smooth="yes"/>
			<point x="312" y="672"/>
			<point x="320" y="679"/>
			<point x="322" y="689" type="curve"/>
			<point x="313" y="720"/>
			<point x="284" y="740"/>
			<point x="241" y="740" type="curve" smooth="yes"/>
			<point x="182" y="740"/>
			<point x="142" y="703"/>
			<point x="142" y="651" type="curve" smooth="yes"/>
			<point x="142" y="614"/>
			<point x="167" y="591"/>
			<point x="203" y="566" type="curve" smooth="yes"/>
			<point x="237" y="542"/>
			<point x="254" y="523"/>
			<point x="254" y="497" type="curve" smooth="yes"/>
			<point x="254" y="462"/>
			<point x="225" y="436"/>
			<point x="177" y="436" type="curve" smooth="yes"/>
			<point x="160" y="436"/>
			<point x="147" y="438"/>
			<point x="132" y="445" type="curve"/>
		</contour>
	</outline>
</glyph>
<glyph name="x.sups" format="2">
	<unicode hex="02E3"/>
	<advance width="354"/>
	<outline>
		<contour>
			<point x="272" y="480" type="line" smooth="yes"/>
			<point x="285" y="433"/>
			<point x="298" y="419"/>
			<point x="325" y="419" type="curve" smooth="yes"/>
			<point x="356" y="419"/>
			<point x="391" y="451"/>
			<point x="419" y="495" type="curve"/>
			<point x="408" y="503" type="line"/>
			<point x="384" y="472"/>
			<point x="359" y="451"/>
			<point x="340" y="451" type="curve" smooth="yes"/>
			<point x="320" y="451"/>
			<point x="311" y="463"/>
			<point x="303" y="497" type="curve" smooth="yes"/>
			<point x="274" y="599" type="line"/>
			<point x="274" y="601" type="line"/>
			<point x="250" y="684" type="line" smooth="yes"/>
			<point x="239" y="725"/>
			<point x="227" y="740"/>
			<point x="200" y="740" type="curve" smooth="yes"/>
			<point x="173" y="740"/>
			<point x="146" y="718"/>
			<point x="124" y="669" type="curve"/>
			<point x="136" y="662" type="line"/>
			<point x="155" y="698"/>
			<point x="171" y="708"/>
			<point x="187" y="708" type="curve" smooth="yes"/>
			<point x="201" y="708"/>
			<point x="209" y="699"/>
			<point x="217" y="670" type="curve" smooth="yes"/>
			<point x="247" y="568" type="line"/>
			<point x="248" y="566" type="line"/>
		</contour>
		<contour>
			<point x="72" y="465" type="curve"/>
			<point x="77" y="435"/>
			<point x="100" y="420"/>
			<point x="124" y="420" type="curve" smooth="yes"/>
			<point x="142" y="420"/>
			<point x="158" y="427"/>
			<point x="175" y="447" type="curve" smooth="yes"/>
			<point x="202" y="479"/>
			<point x="230" y="523"/>
			<point x="264" y="580" type="curve"/>
			<point x="257" y="594" type="line"/>
			<point x="228" y="552"/>
			<point x="190" y="491"/>
			<point x="161" y="460" type="curve" smooth="yes"/>
			<point x="149" y="446"/>
			<point x="139" y="440"/>
			<point x="125" y="438" type="curve"/>
			<point x="125" y="432" type="line"/>
			<point x="138" y="432" type="line"/>
			<point x="119" y="466" type="line" smooth="yes"/>
			<point x="111" y="481"/>
			<point x="104" y="485"/>
			<point x="94" y="485" type="curve" smooth="yes"/>
			<point x="84" y="485"/>
			<point x="74" y="478"/>
		</contour>
		<contour>
			<point x="267" y="576" type="line"/>
			<point x="295" y="616"/>
			<point x="328" y="669"/>
			<point x="357" y="698" type="curve" smooth="yes"/>
			<point x="369" y="711"/>
			<point x="381" y="719"/>
			<point x="393" y="722" type="curve"/>
			<point x="393" y="727" type="line"/>
			<point x="376" y="726" type="line"/>
			<point x="394" y="697" type="line" smooth="yes"/>
			<point x="402" y="685"/>
			<point x="410" y="680"/>
			<point x="420" y="680" type="curve" smooth="yes"/>
			<point x="432" y="680"/>
			<point x="441" y="690"/>
			<point x="441" y="704" type="curve"/>
			<point x="436" y="728"/>
			<point x="416" y="740"/>
			<point x="397" y="740" type="curve" smooth="yes"/>
			<point x="377" y="740"/>
			<point x="360" y="732"/>
			<point x="342" y="711" type="curve" smooth="yes"/>
			<point x="322" y="688"/>
			<point x="293" y="647"/>
			<point x="260" y="590" type="curve"/>
		</contour>
	</outline>
</glyph>
<glyph name="gravecmb" format="2">
	<unicode hex="0300"/>
	<outline>
		<contour>
			<point x="79" y="544" type="line"/>
			<point x="56" y="596"/>
			<point x="30" y="655"/>
			<point x="10" y="700" type="curve" smooth="yes"/>
			<point x="-3" y="730"/>
			<point x="-11" y="740"/>
			<point x="-27" y="740" type="curve" smooth="yes"/>
			<point x="-41" y="740"/>
			<point x="-51" y="731"/>
			<point x="-51" y="717" type="curve" smooth="yes"/>
			<point x="-51" y="706"/>
			<point x="-44" y="696"/>
			<point x="-30" y="675" type="curve" smooth="yes"/>
			<point x="-3" y="634"/>
			<point x="32" y="582"/>
			<point x="63" y="536" type="curve"/>
		</contour>
	</outline>
	<anchor name="_aboveLC" x="52" y="486"/>
	<anchor name="aboveLC" x="106" y="740"/>
</glyph>
<glyph name="circumflexcmb" format="2">
	<unicode hex="0302"/>
	<outline>
		<contour>
			<point x="182" y="545" type="line"/>
			<point x="198" y="557" type="line"/>
			<point x="111" y="729" type="line"/>
			<point x="91" y="729" type="line"/>
			<point x="-58" y="557" type="line"/>
			<point x="-45" y="545" type="line"/>
			<point x="107" y="691" type="line"/>
			<point x="81" y="691" type="line"/>
		</contour>
	</outline>
	<anchor name="_aboveLC" x="52" y="486"/>
	<anchor name="aboveLC" x="104" y="729"/>
</glyph>
<glyph name="tildecmb" format="2">
	<unicode hex="0303"/>
	<outline>
		<contour>
			<point x="-25" y="590" type="curve"/>
			<point x="-10" y="584" type="line"/>
			<point x="9" y="637"/>
			<point x="34" y="660"/>
			<point x="63" y="660" type="curve" smooth="yes"/>
			<point x="86" y="660"/>
			<point x="103" y="644"/>
			<point x="125" y="619" type="curve" smooth="yes"/>
			<point x="148" y="594"/>
			<point x="167" y="578"/>
			<point x="199" y="578" type="curve" smooth="yes"/>
			<point x="240" y="578"/>
			<point x="273" y="614"/>
			<point x="293" y="679" type="curve"/>
			<point x="277" y="686" type="line"/>
			<point x="257" y="634"/>
			<point x="231" y="610"/>
			<point x="206" y="610" type="curve" smooth="yes"/>
			<point x="181" y="610"/>
			<point x="167" y="626"/>
			<point x="143" y="651" type="curve" smooth="yes"/>
			<point x="121" y="674"/>
			<point x="103" y="692"/>
			<point x="70" y="692" type="curve" smooth="yes"/>
			<point x="27" y="692"/>
			<point x="-8" y="657"/>
		</contour>
	</outline>
	<anchor name="_aboveLC" x="103" y="486"/>
	<anchor name="aboveLC" x="147" y="692"/>
</glyph>
<glyph name="macroncmb" format="2">
	<unicode hex="0304"/>
	<outline>
		<contour>
			<point x="13" y="607" type="line"/>
			<point x="239" y="607" type="line"/>
			<point x="246" y="644" type="line"/>
			<point x="21" y="644" type="line"/>
		</contour>
	</outline>
	<anchor name="_aboveLC" x="103" y="486"/>
	<anchor name="aboveLC" x="139" y="653"/>
</glyph>
<glyph name="brevecmb" format="2">
	<unicode hex="0306"/>
	<outline>
		<contour>
			<point x="69" y="569" type="curve" smooth="yes"/>
			<point x="149" y="569"/>
			<point x="206" y="629"/>
			<point x="232" y="709" type="curve"/>
			<point x="212" y="715" type="line"/>
			<point x="182" y="651"/>
			<point x="138" y="608"/>
			<point x="74" y="608" type="curve" smooth="yes"/>
			<point x="5" y="608"/>
			<point x="-25" y="654"/>
			<point x="-36" y="716" type="curve"/>
			<point x="-56" y="708" type="line"/>
			<point x="-54" y="629"/>
			<point x="-15" y="569"/>
		</contour>
	</outline>
	<anchor name="_aboveLC" x="52" y="486"/>
	<anchor name="aboveLC" x="101" y="716"/>
</glyph>
<glyph name="dotaccentcmb" format="2">
	<unicode hex="0307"/>
	<outline>
		<contour>
			<point x="139" y="632" type="curve" smooth="yes"/>
			<point x="160" y="632"/>
			<point x="181" y="651"/>
			<point x="181" y="678" type="curve" smooth="yes"/>
			<point x="181" y="700"/>
			<point x="165" y="714"/>
			<point x="144" y="714" type="curve" smooth="yes"/>
			<point x="124" y="714"/>
			<point x="103" y="695"/>
			<point x="103" y="669" type="curve" smooth="yes"/>
			<point x="103" y="645"/>
			<point x="119" y="632"/>
		</contour>
	</outline>
	<anchor name="_aboveLC" x="103" y="486"/>
	<anchor name="aboveLC" x="151" y="714"/>
</glyph>
<glyph name="dieresiscmb" format="2">
	<unicode hex="0308"/>
	<outline>
		<contour>
			<point x="50" y="635" type="curve" smooth="yes"/>
			<point x="71" y="635"/>
			<point x="91" y="652"/>
			<point x="91" y="678" type="curve" smooth="yes"/>
			<point x="91" y="698"/>
			<point x="76" y="710"/>
			<point x="58" y="710" type="curve" smooth="yes"/>
			<point x="37" y="710"/>
			<point x="17" y="694"/>
			<point x="17" y="669" type="curve" smooth="yes"/>
			<point x="17" y="647"/>
			<point x="32" y="635"/>
		</contour>
		<contour>
			<point x="228" y="635" type="curve" smooth="yes"/>
			<point x="249" y="635"/>
			<point x="269" y="652"/>
			<point x="269" y="678" type="curve" smooth="yes"/>
			<point x="269" y="698"/>
			<point x="254" y="710"/>
			<point x="236" y="710" type="curve" smooth="yes"/>
			<point x="216" y="710"/>
			<point x="196" y="694"/>
			<point x="196" y="669" type="curve" smooth="yes"/>
			<point x="196" y="647"/>
			<point x="211" y="635"/>
		</contour>
	</outline>
	<anchor name="_aboveLC" x="103" y="486"/>
	<anchor name="aboveLC" x="151" y="710"/>
</glyph>
<glyph name="hoicmb" format="2">
	<unicode hex="0309"/>
	<outline>
		<contour>
			<point x="51" y="550" type="line"/>
			<point x="109" y="558"/>
			<point x="149" y="594"/>
			<point x="149" y="646" type="curve" smooth="yes"/>
			<point x="149" y="691"/>
			<point x="116" y="720"/>
			<point x="51" y="728" type="curve"/>
			<point x="41" y="692" type="line"/>
			<point x="94" y="683"/>
			<point x="118" y="667"/>
			<point x="118" y="635" type="curve" smooth="yes"/>
			<point x="118" y="603"/>
			<point x="94" y="578"/>
			<point x="48" y="569" type="curve"/>
		</contour>
	</outline>
	<anchor name="_aboveLC" x="52" y="486"/>
	<anchor name="aboveLC" x="103" y="728"/>
</glyph>
<glyph name="hungarumlautcmb" format="2">
	<unicode hex="030B"/>
	<outline>
		<contour>
			<point x="26" y="563" type="line"/>
			<point x="41" y="553" type="line"/>
			<point x="146" y="675" type="line" smooth="yes"/>
			<point x="161" y="692"/>
			<point x="168" y="706"/>
			<point x="168" y="717" type="curve" smooth="yes"/>
			<point x="168" y="729"/>
			<point x="159" y="737"/>
			<point x="146" y="737" type="curve" smooth="yes"/>
			<point x="133" y="737"/>
			<point x="122" y="726"/>
			<point x="109" y="703" type="curve" smooth="yes"/>
		</contour>
		<contour>
			<point x="160" y="563" type="line"/>
			<point x="176" y="553" type="line"/>
			<point x="280" y="675" type="line" smooth="yes"/>
			<point x="296" y="692"/>
			<point x="303" y="706"/>
			<point x="303" y="717" type="curve" smooth="yes"/>
			<point x="303" y="729"/>
			<point x="294" y="737"/>
			<point x="281" y="737" type="curve" smooth="yes"/>
			<point x="268" y="737"/>
			<point x="257" y="726"/>
			<point x="244" y="703" type="curve" smooth="yes"/>
		</contour>
	</outline>
	<anchor name="_aboveLC" x="103" y="486"/>
	<anchor name="aboveLC" x="156" y="737"/>
</glyph>
<glyph name="caroncmb" format="2">
	<unicode hex="030C"/>
	<outline>
		<contour>
			<point x="35" y="739" type="line"/>
			<point x="19" y="728" type="line"/>
			<point x="105" y="551" type="line"/>
			<point x="128" y="551" type="line"/>
			<point x="277" y="728" type="line"/>
			<point x="264" y="740" type="line"/>
			<point x="108" y="587" type="line"/>
			<point x="135" y="587" type="line"/>
		</contour>
	</outline>
	<anchor name="_aboveLC" x="103" y="486"/>
	<anchor name="aboveLC" x="158" y="740"/>
</glyph>
<glyph name="horncmb" format="2">
	<unicode hex="031B"/>
	<outline>
		<contour>
			<point x="48" y="466" type="line"/>
			<point x="127" y="480"/>
			<point x="173" y="544"/>
			<point x="173" y="631" type="curve" smooth="yes"/>
			<point x="173" y="652"/>
			<point x="170" y="665"/>
			<point x="166" y="675" type="curve"/>
			<point x="160" y="680"/>
			<point x="155" y="682"/>
			<point x="148" y="682" type="curve" smooth="yes"/>
			<point x="132" y="682"/>
			<point x="120" y="671"/>
			<point x="120" y="653" type="curve" smooth="yes"/>
			<point x="120" y="637"/>
			<point x="131" y="620"/>
			<point x="131" y="591" type="curve" smooth="yes"/>
			<point x="131" y="536"/>
			<point x="103" y="497"/>
			<point x="48" y="484" type="curve"/>
		</contour>
	</outline>
	<anchor name="_hornLC" x="48" y="466"/>
</glyph>
<glyph name="commabelowcmb" format="2">
	<unicode hex="0326"/>
	<outline>
		<contour>
			<point x="-35" y="-97" type="curve" smooth="yes"/>
			<point x="-35" y="-88"/>
			<point x="-36" y="-81"/>
			<point x="-39" y="-73" type="curve"/>
			<point x="-47" y="-67"/>
			<point x="-54" y="-63"/>
			<point x="-67" y="-63" type="curve" smooth="yes"/>
			<point x="-92" y="-63"/>
			<point x="-106" y="-81"/>
			<point x="-106" y="-102" type="curve" smooth="yes"/>
			<point x="-106" y="-121"/>
			<point x="-94" y="-139"/>
			<point x="-64" y="-148" type="curve"/>
			<point x="-68" y="-132" type="line"/>
			<point x="-80" y="-167"/>
			<point x="-101" y="-192"/>
			<point x="-142" y="-212" type="curve"/>
			<point x="-132" y="-230" type="line"/>
			<point x="-73" y="-206"/>
			<point x="-35" y="-153"/>
		</contour>
	</outline>
	<anchor name="_belowLC" x="-55" y="-20"/>
	<anchor name="belowLC" x="-100" y="-230"/>
</glyph>
<glyph name="cedillacmb" format="2">
	<unicode hex="0327"/>
	<outline>
		<contour>
			<point x="-46" y="-83" type="line"/>
			<point x="7" y="-94"/>
			<point x="31" y="-111"/>
			<point x="31" y="-145" type="curve" smooth="yes"/>
			<point x="31" y="-177"/>
			<point x="3" y="-200"/>
			<point x="-39" y="-200" type="curve" smooth="yes"/>
			<point x="-61" y="-200"/>
			<point x="-81" y="-195"/>
			<point x="-100" y="-188" type="curve"/>
			<point x="-107" y="-205" type="line"/>
			<point x="-89" y="-215"/>
			<point x="-63" y="-222"/>
			<point x="-34" y="-222" type="curve" smooth="yes"/>
			<point x="27" y="-222"/>
			<point x="67" y="-191"/>
			<point x="67" y="-147" type="curve" smooth="yes"/>
			<point x="67" y="-104"/>
			<point x="33" y="-81"/>
			<point x="-27" y="-65" type="curve"/>
			<point x="-24" y="-78" type="line"/>
			<point x="11" y="0" type="line"/>
			<point x="-8" y="0" type="line"/>
		</contour>
	</outline>
	<anchor name="_baseLC" x="0" y="0"/>
</glyph>
<glyph name="ogonekcmb" format="2">
	<unicode hex="0328"/>
	<outline>
		<contour>
			<point x="-163" y="-165" type="curve" smooth="yes"/>
			<point x="-163" y="-207"/>
			<point x="-137" y="-237"/>
			<point x="-86" y="-237" type="curve" smooth="yes"/>
			<point x="-49" y="-237"/>
			<point x="-12" y="-217"/>
			<point x="15" y="-190" type="curve"/>
			<point x="6" y="-178" type="line"/>
			<point x="-18" y="-196"/>
			<point x="-48" y="-206"/>
			<point x="-72" y="-206" type="curve" smooth="yes"/>
			<point x="-106" y="-206"/>
			<point x="-125" y="-185"/>
			<point x="-125" y="-150" type="curve" smooth="yes"/>
			<point x="-125" y="-98"/>
			<point x="-84" y="-44"/>
			<point x="-31" y="6" type="curve"/>
			<point x="-53" y="9" type="line"/>
			<point x="-53" y="5" type="line"/>
			<point x="-110" y="-44"/>
			<point x="-163" y="-104"/>
		</contour>
	</outline>
	<anchor name="_ogonek" x="-51" y="0"/>
</glyph>
<glyph name="verticallinebelowcmb" format="2">
	<unicode hex="0329"/>
	<outline>
		<contour>
			<point x="-124" y="-261" type="line"/>
			<point x="-79" y="-261" type="line"/>
			<point x="-51" y="-71" type="line"/>
			<point x="-83" y="-71" type="line"/>
		</contour>
	</outline>
	<anchor name="_belowLC" x="-55" y="-20"/>
	<anchor name="belowLC" x="-107" y="-261"/>
</glyph>
<glyph name="Delta" format="2">
	<unicode hex="0394"/>
	<unicode hex="2206"/>
	<advance width="619"/>
	<outline>
		<contour>
			<point x="10" y="0" type="line"/>
			<point x="532" y="0" type="line"/>
			<point x="537" y="32" type="line"/>
			<point x="418" y="679" type="line"/>
			<point x="388" y="679" type="line"/>
			<point x="15" y="32" type="line"/>
		</contour>
		<contour>
			<point x="45" y="25" type="line"/>
			<point x="386" y="627" type="line"/>
			<point x="391" y="637" type="line"/>
			<point x="377" y="637" type="line"/>
			<point x="487" y="24" type="line"/>
			<point x="500" y="40" type="line"/>
			<point x="37" y="40" type="line"/>
		</contour>
	</outline>
</glyph>
<glyph name="Sigma" format="2">
	<unicode hex="03A3"/>
	<advance width="541"/>
	<outline>
		<contour>
			<point x="-7" y="0" type="line"/>
			<point x="468" y="0" type="line"/>
			<point x="508" y="186" type="line"/>
			<point x="478" y="186" type="line"/>
			<point x="421" y="19" type="line"/>
			<point x="452" y="45" type="line"/>
			<point x="31" y="45" type="line"/>
			<point x="35" y="29" type="line"/>
			<point x="337" y="348" type="line"/>
			<point x="173" y="662" type="line"/>
			<point x="173" y="674" type="line"/>
			<point x="128" y="674" type="line"/>
			<point x="124" y="651" type="line"/>
			<point x="297" y="322" type="line"/>
			<point x="300" y="349" type="line"/>
			<point x="-1" y="29" type="line"/>
		</contour>
		<contour>
			<point x="519" y="504" type="line"/>
			<point x="548" y="504" type="line"/>
			<point x="571" y="674" type="line"/>
			<point x="150" y="674" type="line"/>
			<point x="150" y="645" type="line"/>
			<point x="542" y="645" type="line"/>
			<point x="520" y="671" type="line"/>
		</contour>
	</outline>
</glyph>
<glyph name="epsilon" format="2">
	<unicode hex="03B5"/>
	<advance width="401"/>
	<outline>
		<contour>
			<point x="177" y="-13" type="curve" smooth="yes"/>
			<point x="251" y="-13"/>
			<point x="320" y="15"/>
			<point x="377" y="73" type="curve"/>
			<point x="366" y="86" type="line"/>
			<point x="312" y="43"/>
			<point x="255" y="23"/>
			<point x="188" y="23" type="curve" smooth="yes"/>
			<point x="119" y="23"/>
			<point x="78" y="53"/>
			<point x="78" y="108" type="curve" smooth="yes"/>
			<point x="78" y="164"/>
			<point x="131" y="227"/>
			<point x="260" y="227" type="curve" smooth="yes"/>
			<point x="275" y="227"/>
			<point x="291" y="227"/>
			<point x="300" y="226" type="curve"/>
			<point x="308" y="265" type="line"/>
			<point x="291" y="263"/>
			<point x="274" y="263"/>
			<point x="257" y="263" type="curve" smooth="yes"/>
			<point x="171" y="263"/>
			<point x="134" y="296"/>
			<point x="134" y="350" type="curve" smooth="yes"/>
			<point x="134" y="407"/>
			<point x="177" y="456"/>
			<point x="270" y="456" type="curve" smooth="yes"/>
			<point x="292" y="456"/>
			<point x="311" y="453"/>
			<point x="338" y="446" type="curve"/>
			<point x="339" y="460" type="line"/>
			<point x="286" y="459" type="line"/>
			<point x="333" y="420" type="line" smooth="yes"/>
			<point x="350" y="405"/>
			<point x="364" y="397"/>
			<point x="376" y="397" type="curve" smooth="yes"/>
			<point x="394" y="397"/>
			<point x="406" y="410"/>
			<point x="407" y="430" type="curve"/>
			<point x="390" y="458"/>
			<point x="333" y="478"/>
			<point x="268" y="478" type="curve" smooth="yes"/>
			<point x="156" y="478"/>
			<point x="88" y="418"/>
			<point x="88" y="345" type="curve" smooth="yes"/>
			<point x="88" y="282"/>
			<point x="131" y="242"/>
			<point x="225" y="239" type="curve"/>
			<point x="227" y="246" type="line"/>
			<point x="98" y="241"/>
			<point x="31" y="174"/>
			<point x="31" y="101" type="curve" smooth="yes"/>
			<point x="31" y="22"/>
			<point x="96" y="-13"/>
		</contour>
	</outline>
	<anchor name="aboveLC" x="270" y="486"/>
	<anchor name="belowLC" x="180" y="-20"/>
</glyph>
<glyph name="zeta" format="2">
	<unicode hex="03B6"/>
	<advance width="358"/>
	<outline>
		<contour>
			<point x="264" y="-196" type="line"/>
			<point x="304" y="-148"/>
			<point x="328" y="-106"/>
			<point x="328" y="-63" type="curve" smooth="yes"/>
			<point x="328" y="-5"/>
			<point x="301" y="21"/>
			<point x="215" y="55" type="curve" smooth="yes"/>
			<point x="129" y="89"/>
			<point x="104" y="127"/>
			<point x="104" y="185" type="curve" smooth="yes"/>
			<point x="104" y="312"/>
			<point x="219" y="464"/>
			<point x="471" y="710" type="curve"/>
			<point x="476" y="736" type="line"/>
			<point x="176" y="747" type="line"/>
			<point x="167" y="704" type="line"/>
			<point x="444" y="705" type="line"/>
			<point x="444" y="693" type="line"/>
			<point x="451" y="720" type="line"/>
			<point x="189" y="478"/>
			<point x="56" y="313"/>
			<point x="56" y="177" type="curve" smooth="yes"/>
			<point x="56" y="101"/>
			<point x="97" y="52"/>
			<point x="188" y="16" type="curve" smooth="yes"/>
			<point x="269" y="-15"/>
			<point x="287" y="-31"/>
			<point x="287" y="-78" type="curve" smooth="yes"/>
			<point x="287" y="-111"/>
			<point x="269" y="-149"/>
			<point x="247" y="-184" type="curve"/>
		</contour>
	</outline>
</glyph>
<glyph name="kappa" format="2">
	<unicode hex="03BA"/>
	<advance width="490"/>
	<outline>
		<contour>
			<point x="76" y="-1" type="curve"/>
			<point x="84" y="-7" type="line"/>
			<point x="123" y="0" type="line"/>
			<point x="193" y="337" type="line" smooth="yes"/>
			<point x="212" y="429"/>
			<point x="195" y="477"/>
			<point x="142" y="477" type="curve" smooth="yes"/>
			<point x="112" y="477"/>
			<point x="90" y="465"/>
			<point x="54" y="434" type="curve"/>
			<point x="62" y="418" type="line"/>
			<point x="86" y="431"/>
			<point x="104" y="437"/>
			<point x="124" y="437" type="curve" smooth="yes"/>
			<point x="153" y="437"/>
			<point x="170" y="416"/>
			<point x="152" y="328" type="curve" smooth="yes"/>
			<point x="129" y="223"/>
			<point x="106" y="121"/>
		</contour>
		<contour>
			<point x="370" y="-13" type="curve" smooth="yes"/>
			<point x="407" y="-13"/>
			<point x="437" y="12"/>
			<point x="474" y="60" type="curve"/>
			<point x="463" y="73" type="line"/>
			<point x="441" y="50"/>
			<point x="414" y="27"/>
			<point x="386" y="27" type="curve" smooth="yes"/>
			<point x="361" y="27"/>
			<point x="350" y="40"/>
			<point x="334" y="78" type="curve" smooth="yes"/>
			<point x="306" y="146" type="line" smooth="yes"/>
			<point x="285" y="199"/>
			<point x="256" y="235"/>
			<point x="192" y="241" type="curve" smooth="yes"/>
			<point x="176" y="243" type="line"/>
			<point x="176" y="235" type="line"/>
			<point x="419" y="391" type="line" smooth="yes"/>
			<point x="469" y="422"/>
			<point x="478" y="432"/>
			<point x="478" y="448" type="curve" smooth="yes"/>
			<point x="478" y="463"/>
			<point x="467" y="471"/>
			<point x="453" y="472" type="curve"/>
			<point x="161" y="239" type="line"/>
			<point x="163" y="228" type="line"/>
			<point x="177" y="226" type="line" smooth="yes"/>
			<point x="223" y="221"/>
			<point x="247" y="194"/>
			<point x="269" y="131" type="curve" smooth="yes"/>
			<point x="297" y="56" type="line" smooth="yes"/>
			<point x="314" y="9"/>
			<point x="334" y="-13"/>
		</contour>
	</outline>
</glyph>
<glyph name="mu" format="2">
	<unicode hex="03BC"/>
	<unicode hex="00B5"/>
	<advance width="523"/>
	<outline>
		<contour>
			<point x="22" y="-195" type="line"/>
			<point x="64" y="-186" type="line"/>
			<point x="112" y="91" type="line"/>
			<point x="120" y="102" type="line"/>
			<point x="142" y="207"/>
			<point x="166" y="315"/>
			<point x="203" y="468" type="curve"/>
			<point x="195" y="476" type="line"/>
			<point x="152" y="465" type="line"/>
			<point x="85" y="104" type="line"/>
			<point x="15" y="-189" type="line"/>
		</contour>
		<contour>
			<point x="201" y="-13" type="curve" smooth="yes"/>
			<point x="262" y="-13"/>
			<point x="334" y="44"/>
			<point x="383" y="145" type="curve"/>
			<point x="388" y="145" type="line"/>
			<point x="379" y="158" type="line"/>
			<point x="328" y="76"/>
			<point x="269" y="30"/>
			<point x="213" y="30" type="curve" smooth="yes"/>
			<point x="165" y="30"/>
			<point x="133" y="55"/>
			<point x="118" y="127" type="curve"/>
			<point x="99" y="99" type="line"/>
			<point x="107" y="32"/>
			<point x="145" y="-13"/>
		</contour>
		<contour>
			<point x="411" y="-13" type="curve" smooth="yes"/>
			<point x="446" y="-13"/>
			<point x="481" y="18"/>
			<point x="514" y="58" type="curve"/>
			<point x="503" y="72" type="line"/>
			<point x="475" y="43"/>
			<point x="450" y="27"/>
			<point x="426" y="27" type="curve" smooth="yes"/>
			<point x="407" y="27"/>
			<point x="395" y="36"/>
			<point x="395" y="67" type="curve" smooth="yes"/>
			<point x="395" y="89"/>
			<point x="400" y="124"/>
			<point x="418" y="192" type="curve" smooth="yes"/>
			<point x="483" y="468" type="line"/>
			<point x="475" y="476" type="line"/>
			<point x="432" y="465" type="line"/>
			<point x="366" y="131" type="line"/>
			<point x="364" y="121" type="line" smooth="yes"/>
			<point x="359" y="95"/>
			<point x="355" y="71"/>
			<point x="355" y="54" type="curve" smooth="yes"/>
			<point x="355" y="11"/>
			<point x="374" y="-13"/>
		</contour>
	</outline>
</glyph>
<glyph name="rho" format="2">
	<unicode hex="03C1"/>
	<advance width="495"/>
	<outline>
		<contour>
			<point x="14" y="-195" type="line"/>
			<point x="58" y="-186" type="line"/>
			<point x="102" y="80" type="line"/>
			<point x="105" y="84" type="line"/>
			<point x="137" y="241" type="line" smooth="yes"/>
			<point x="165" y="376"/>
			<point x="221" y="454"/>
			<point x="305" y="454" type="curve" smooth="yes"/>
			<point x="376" y="454"/>
			<point x="416" y="398"/>
			<point x="416" y="296" type="curve" smooth="yes"/>
			<point x="416" y="136"/>
			<point x="338" y="17"/>
			<point x="234" y="17" type="curve" smooth="yes"/>
			<point x="175" y="17"/>
			<point x="124" y="53"/>
			<point x="95" y="117" type="curve"/>
			<point x="89" y="101" type="line"/>
			<point x="111" y="30"/>
			<point x="170" y="-13"/>
			<point x="236" y="-13" type="curve" smooth="yes"/>
			<point x="362" y="-13"/>
			<point x="463" y="123"/>
			<point x="463" y="298" type="curve" smooth="yes"/>
			<point x="463" y="417"/>
			<point x="400" y="478"/>
			<point x="311" y="478" type="curve" smooth="yes"/>
			<point x="197" y="478"/>
			<point x="125" y="387"/>
			<point x="90" y="221" type="curve" smooth="yes"/>
			<point x="7" y="-189" type="line"/>
		</contour>
	</outline>
	<anchor name="aboveLC" x="310" y="486"/>
</glyph>
<glyph name="upsilon" format="2">
	<unicode hex="03C5"/>
	<advance width="496"/>
	<outline>
		<contour>
			<point x="229" y="-13" type="curve" smooth="yes"/>
			<point x="368" y="-13"/>
			<point x="454" y="143"/>
			<point x="454" y="348" type="curve" smooth="yes"/>
			<point x="454" y="396"/>
			<point x="453" y="440"/>
			<point x="449" y="463" type="curve"/>
			<point x="444" y="472"/>
			<point x="437" y="477"/>
			<point x="425" y="477" type="curve" smooth="yes"/>
			<point x="408" y="477"/>
			<point x="390" y="464"/>
			<point x="390" y="434" type="curve" smooth="yes"/>
			<point x="390" y="407"/>
			<point x="401" y="374"/>
			<point x="436" y="289" type="curve"/>
			<point x="438" y="341" type="line"/>
			<point x="423" y="382" type="line"/>
			<point x="424" y="360"/>
			<point x="425" y="342"/>
			<point x="425" y="324" type="curve" smooth="yes"/>
			<point x="423" y="135"/>
			<point x="340" y="18"/>
			<point x="238" y="18" type="curve" smooth="yes"/>
			<point x="180" y="18"/>
			<point x="145" y="53"/>
			<point x="145" y="108" type="curve" smooth="yes"/>
			<point x="145" y="172"/>
			<point x="199" y="332"/>
			<point x="199" y="401" type="curve" smooth="yes"/>
			<point x="199" y="449"/>
			<point x="181" y="476"/>
			<point x="140" y="476" type="curve" smooth="yes"/>
			<point x="109" y="476"/>
			<point x="86" y="463"/>
			<point x="51" y="435" type="curve"/>
			<point x="60" y="419" type="line"/>
			<point x="83" y="430"/>
			<point x="103" y="436"/>
			<point x="121" y="436" type="curve" smooth="yes"/>
			<point x="140" y="436"/>
			<point x="156" y="427"/>
			<point x="156" y="393" type="curve" smooth="yes"/>
			<point x="156" y="328"/>
			<point x="102" y="176"/>
			<point x="102" y="108" type="curve" smooth="yes"/>
			<point x="102" y="24"/>
			<point x="159" y="-13"/>
		</contour>
	</outline>
	<anchor name="aboveLC" x="294" y="486"/>
</glyph>
<glyph name="iotadieresis" format="2">
	<unicode hex="03CA"/>
	<advance width="276"/>
	<outline>
		<contour>
			<point x="142" y="635" type="curve" smooth="yes"/>
			<point x="163" y="635"/>
			<point x="182" y="652"/>
			<point x="182" y="678" type="curve" smooth="yes"/>
			<point x="182" y="698"/>
			<point x="168" y="710"/>
			<point x="150" y="710" type="curve" smooth="yes"/>
			<point x="130" y="710"/>
			<point x="109" y="694"/>
			<point x="109" y="669" type="curve" smooth="yes"/>
			<point x="109" y="647"/>
			<point x="124" y="635"/>
		</contour>
		<contour>
			<point x="306" y="635" type="curve" smooth="yes"/>
			<point x="327" y="635"/>
			<point x="347" y="652"/>
			<point x="347" y="678" type="curve" smooth="yes"/>
			<point x="347" y="698"/>
			<point x="332" y="710"/>
			<point x="314" y="710" type="curve" smooth="yes"/>
			<point x="294" y="710"/>
			<point x="274" y="694"/>
			<point x="274" y="669" type="curve" smooth="yes"/>
			<point x="274" y="647"/>
			<point x="289" y="635"/>
		</contour>
		<component base="iota"/>
	</outline>
</glyph>
<glyph name="digamma" format="2">
	<unicode hex="03DD"/>
	<advance width="424"/>
	<outline>
		<contour>
			<point x="18" y="-189" type="line"/>
			<point x="25" y="-196" type="line"/>
			<point x="67" y="-185" type="line"/>
			<point x="118" y="98" type="line"/>
			<point x="195" y="454" type="line"/>
			<point x="172" y="437" type="line"/>
			<point x="440" y="434" type="line"/>
			<point x="447" y="471" type="line"/>
			<point x="148" y="462" type="line"/>
			<point x="79" y="80" type="line"/>
		</contour>
		<contour>
			<point x="116" y="163" type="line"/>
			<point x="365" y="157" type="line"/>
			<point x="372" y="193" type="line"/>
			<point x="122" y="189" type="line"/>
		</contour>
	</outline>
	<anchor name="aboveLC" x="304" y="486"/>
</glyph>
<glyph name="Dje" format="2">
	<unicode hex="0402"/>
	<advance width="668"/>
	<outline>
		<contour>
			<point x="378" y="-66" type="line"/>
			<point x="542" y="-47"/>
			<point x="628" y="72"/>
			<point x="628" y="203" type="curve" smooth="yes"/>
			<point x="628" y="319"/>
			<point x="571" y="380"/>
			<point x="432" y="380" type="curve" smooth="yes"/>
			<point x="388" y="380"/>
			<point x="350" y="376"/>
			<point x="298" y="365" type="curve"/>
			<point x="293" y="339" type="line"/>
			<point x="340" y="349"/>
			<point x="375" y="351"/>
			<point x="413" y="351" type="curve" smooth="yes"/>
			<point x="541" y="351"/>
			<point x="578" y="301"/>
			<point x="578" y="204" type="curve" smooth="yes"/>
			<point x="578" y="72"/>
			<point x="505" y="-19"/>
			<point x="375" y="-44" type="curve"/>
		</contour>
		<contour>
			<point x="78" y="502" type="line"/>
			<point x="107" y="502" type="line"/>
			<point x="166" y="671" type="line"/>
			<point x="136" y="645" type="line"/>
			<point x="594" y="645" type="line"/>
			<point x="573" y="671" type="line"/>
			<point x="571" y="502" type="line"/>
			<point x="600" y="502" type="line"/>
			<point x="622" y="674" type="line"/>
			<point x="118" y="674" type="line"/>
		</contour>
		<contour>
			<point x="110" y="0" type="line"/>
			<point x="246" y="0" type="line"/>
			<point x="252" y="33" type="line"/>
			<point x="235" y="33" type="line"/>
			<point x="115" y="24" type="line"/>
		</contour>
		<contour>
			<point x="211" y="0" type="line"/>
			<point x="264" y="0" type="line"/>
			<point x="280" y="104"/>
			<point x="298" y="208"/>
			<point x="318" y="312" type="curve" smooth="yes"/>
			<point x="386" y="674" type="line"/>
			<point x="333" y="674" type="line"/>
			<point x="317" y="570"/>
			<point x="299" y="466"/>
			<point x="279" y="363" type="curve" smooth="yes"/>
		</contour>
	</outline>
</glyph>
<glyph name="De" format="2">
	<unicode hex="0414"/>
	<advance width="668"/>
	<outline>
		<contour>
			<point x="-36" y="-183" type="line"/>
			<point x="-8" y="-183" type="line"/>
			<point x="36" y="13" type="line"/>
			<point x="16" y="0" type="line"/>
			<point x="558" y="0" type="line"/>
			<point x="543" y="14" type="line"/>
			<point x="530" y="-183" type="line"/>
			<point x="558" y="-183" type="line"/>
			<point x="593" y="29" type="line"/>
			<point x="-10" y="29" type="line"/>
		</contour>
		<contour>
			<point x="439" y="0" type="line"/>
			<point x="491" y="0" type="line"/>
			<point x="507" y="104"/>
			<point x="526" y="208"/>
			<point x="545" y="312" type="curve" smooth="yes"/>
			<point x="613" y="674" type="line"/>
			<point x="561" y="674" type="line"/>
			<point x="544" y="570"/>
			<point x="527" y="466"/>
			<point x="507" y="362" type="curve" smooth="yes"/>
		</contour>
		<contour>
			<point x="222" y="650" type="line"/>
			<point x="337" y="640" type="line"/>
			<point x="344" y="640" type="line"/>
			<point x="352" y="674" type="line"/>
			<point x="227" y="674" type="line"/>
		</contour>
		<contour>
			<point x="574" y="640" type="line"/>
			<point x="591" y="640" type="line"/>
			<point x="703" y="650" type="line"/>
			<point x="708" y="674" type="line"/>
			<point x="579" y="674" type="line"/>
		</contour>
		<contour>
			<point x="62" y="6" type="line"/>
			<point x="225" y="112"/>
			<point x="295" y="315"/>
			<point x="368" y="674" type="curve"/>
			<point x="335" y="674" type="line"/>
			<point x="263" y="329"/>
			<point x="200" y="138"/>
			<point x="46" y="27" type="curve"/>
		</contour>
		<contour>
			<point x="338" y="646" type="line"/>
			<point x="585" y="646" type="line"/>
			<point x="590" y="674" type="line"/>
			<point x="343" y="674" type="line"/>
		</contour>
	</outline>
</glyph>
<glyph name="Icyr" format="2">
	<unicode hex="0418"/>
	<advance width="752"/>
	<outline>
		<contour>
			<point x="5" y="0" type="line"/>
			<point x="251" y="0" type="line"/>
			<point x="256" y="24" type="line"/>
			<point x="140" y="33" type="line"/>
			<point x="123" y="33" type="line"/>
			<point x="10" y="24" type="line"/>
		</contour>
		<contour>
			<point x="99" y="0" type="line"/>
			<point x="149" y="0" type="line"/>
			<point x="205" y="312" type="line"/>
			<point x="273" y="674" type="line"/>
			<point x="221" y="674" type="line"/>
			<point x="205" y="570"/>
			<point x="187" y="466"/>
			<point x="167" y="362" type="curve"/>
		</contour>
		<contour>
			<point x="118" y="650" type="line"/>
			<point x="233" y="640" type="line"/>
			<point x="251" y="640" type="line"/>
			<point x="364" y="650" type="line"/>
			<point x="368" y="674" type="line"/>
			<point x="122" y="674" type="line"/>
		</contour>
		<contour>
			<point x="425" y="0" type="line"/>
			<point x="671" y="0" type="line"/>
			<point x="676" y="24" type="line"/>
			<point x="561" y="33" type="line"/>
			<point x="543" y="33" type="line"/>
			<point x="430" y="24" type="line"/>
		</contour>
		<contour>
			<point x="520" y="0" type="line"/>
			<point x="572" y="0" type="line"/>
			<point x="588" y="104"/>
			<point x="607" y="208"/>
			<point x="626" y="312" type="curve"/>
			<point x="694" y="674" type="line"/>
			<point x="644" y="674" type="line"/>
			<point x="588" y="362" type="line"/>
		</contour>
		<contour>
			<point x="538" y="650" type="line"/>
			<point x="654" y="640" type="line"/>
			<point x="671" y="640" type="line"/>
			<point x="784" y="650" type="line"/>
			<point x="789" y="674" type="line"/>
			<point x="543" y="674" type="line"/>
		</contour>
		<contour>
			<point x="130" y="23" type="line"/>
			<point x="660" y="613" type="line"/>
			<point x="667" y="613" type="line"/>
			<point x="665" y="658" type="line"/>
			<point x="137" y="69" type="line"/>
			<point x="130" y="69" type="line"/>
		</contour>
	</outline>
	<anchor name="aboveUC" x="463" y="694"/>
</glyph>
<glyph name="Ka" format="2">
	<unicode hex="041A"/>
	<advance width="631"/>
	<outline>
		<contour>
			<point x="459" y="41" type="line" smooth="yes"/>
			<point x="473" y="6"/>
			<point x="483" y="-6"/>
			<point x="537" y="-6" type="curve" smooth="yes"/>
			<point x="563" y="-6"/>
			<point x="588" y="-3"/>
			<point x="603" y="0" type="curve"/>
			<point x="608" y="23" type="line"/>
			<point x="497" y="32" type="line"/>
			<point x="520" y="20" type="line"/>
			<point x="434" y="222" type="line" smooth="yes"/>
			<point x="395" y="311"/>
			<point x="370" y="348"/>
			<point x="278" y="354" type="curve"/>
			<point x="280" y="339" type="line"/>
			<point x="362" y="346"/>
			<point x="395" y="364"/>
			<point x="476" y="494" type="curve" smooth="yes"/>
			<point x="521" y="566"/>
			<point x="545" y="602"/>
			<point x="593" y="650" type="curve"/>
			<point x="549" y="631" type="line"/>
			<point x="571" y="625"/>
			<point x="597" y="618"/>
			<point x="622" y="618" type="curve" smooth="yes"/>
			<point x="651" y="618"/>
			<point x="670" y="632"/>
			<point x="670" y="654" type="curve" smooth="yes"/>
			<point x="670" y="670"/>
			<point x="659" y="683"/>
			<point x="640" y="687" type="curve"/>
			<point x="573" y="685"/>
			<point x="541" y="650"/>
			<point x="453" y="508" type="curve" smooth="yes"/>
			<point x="373" y="380"/>
			<point x="343" y="361"/>
			<point x="269" y="361" type="curve" smooth="yes"/>
			<point x="191" y="361" type="line"/>
			<point x="186" y="335" type="line"/>
			<point x="254" y="335" type="line" smooth="yes"/>
			<point x="332" y="335"/>
			<point x="347" y="312"/>
			<point x="380" y="232" type="curve" smooth="yes"/>
		</contour>
		<contour>
			<point x="5" y="0" type="line"/>
			<point x="250" y="0" type="line"/>
			<point x="255" y="24" type="line"/>
			<point x="140" y="33" type="line"/>
			<point x="123" y="33" type="line"/>
			<point x="9" y="24" type="line"/>
		</contour>
		<contour>
			<point x="99" y="0" type="line"/>
			<point x="152" y="0" type="line"/>
			<point x="168" y="104"/>
			<point x="186" y="208"/>
			<point x="205" y="312" type="curve" smooth="yes"/>
			<point x="273" y="674" type="line"/>
			<point x="221" y="674" type="line"/>
			<point x="204" y="570"/>
			<point x="187" y="466"/>
			<point x="167" y="362" type="curve" smooth="yes"/>
		</contour>
		<contour>
			<point x="118" y="650" type="line"/>
			<point x="233" y="640" type="line"/>
			<point x="251" y="640" type="line"/>
			<point x="363" y="650" type="line"/>
			<point x="368" y="674" type="line"/>
			<point x="122" y="674" type="line"/>
		</contour>
	</outline>
	<anchor name="aboveUC" x="421" y="694"/>
</glyph>
<glyph name="El" format="2">
	<unicode hex="041B"/>
	<advance width="649"/>
	<outline>
		<contour>
			<point x="24" y="-14" type="curve" smooth="yes"/>
			<point x="101" y="-14"/>
			<point x="166" y="69"/>
			<point x="221" y="214" type="curve" smooth="yes"/>
			<point x="278" y="348"/>
			<point x="322" y="506"/>
			<point x="355" y="674" type="curve"/>
			<point x="323" y="674" type="line"/>
			<point x="291" y="507"/>
			<point x="248" y="354"/>
			<point x="193" y="223" type="curve" smooth="yes"/>
			<point x="142" y="90"/>
			<point x="97" y="40"/>
			<point x="38" y="12" type="curve"/>
			<point x="49" y="5" type="line"/>
			<point x="70" y="14" type="line"/>
			<point x="58" y="51"/>
			<point x="41" y="65"/>
			<point x="18" y="65" type="curve" smooth="yes"/>
			<point x="-4" y="65"/>
			<point x="-22" y="56"/>
			<point x="-30" y="34" type="curve"/>
			<point x="-30" y="3"/>
			<point x="-8" y="-14"/>
		</contour>
		<contour>
			<point x="212" y="650" type="line"/>
			<point x="328" y="640" type="line"/>
			<point x="334" y="640" type="line"/>
			<point x="342" y="674" type="line"/>
			<point x="217" y="674" type="line"/>
		</contour>
		<contour>
			<point x="322" y="0" type="line"/>
			<point x="568" y="0" type="line"/>
			<point x="573" y="24" type="line"/>
			<point x="458" y="33" type="line"/>
			<point x="441" y="33" type="line"/>
			<point x="327" y="24" type="line"/>
		</contour>
		<contour>
			<point x="324" y="646" type="line"/>
			<point x="565" y="646" type="line"/>
			<point x="571" y="674" type="line"/>
			<point x="329" y="674" type="line"/>
		</contour>
		<contour>
			<point x="416" y="0" type="line"/>
			<point x="469" y="0" type="line"/>
			<point x="485" y="104"/>
			<point x="504" y="208"/>
			<point x="523" y="312" type="curve" smooth="yes"/>
			<point x="591" y="674" type="line"/>
			<point x="538" y="674" type="line"/>
			<point x="522" y="570"/>
			<point x="504" y="466"/>
			<point x="485" y="362" type="curve" smooth="yes"/>
		</contour>
		<contour>
			<point x="551" y="640" type="line"/>
			<point x="568" y="640" type="line"/>
			<point x="681" y="650" type="line"/>
			<point x="686" y="674" type="line"/>
			<point x="556" y="674" type="line"/>
		</contour>
	</outline>
</glyph>
<glyph name="Yu" format="2">
	<unicode hex="042E"/>
	<advance width="928"/>
	<outline>
		<contour>
			<point x="191" y="335" type="line"/>
			<point x="391" y="335" type="line"/>
			<point x="393" y="363" type="line"/>
			<point x="193" y="363" type="line"/>
		</contour>
		<contour>
			<point x="581" y="-14" type="curve" smooth="yes"/>
			<point x="763" y="-14"/>
			<point x="912" y="171"/>
			<point x="912" y="422" type="curve" smooth="yes"/>
			<point x="912" y="582"/>
			<point x="834" y="687"/>
			<point x="691" y="687" type="curve" smooth="yes"/>
			<point x="512" y="687"/>
			<point x="361" y="500"/>
			<point x="361" y="251" type="curve" smooth="yes"/>
			<point x="361" y="91"/>
			<point x="443" y="-14"/>
		</contour>
		<contour>
			<point x="588" y="15" type="curve" smooth="yes"/>
			<point x="467" y="15"/>
			<point x="412" y="114"/>
			<point x="412" y="254" type="curve" smooth="yes"/>
			<point x="412" y="473"/>
			<point x="531" y="659"/>
			<point x="685" y="659" type="curve" smooth="yes"/>
			<point x="807" y="659"/>
			<point x="861" y="563"/>
			<point x="861" y="418" type="curve" smooth="yes"/>
			<point x="861" y="193"/>
			<point x="740" y="15"/>
		</contour>
		<component base="I"/>
	</outline>
	<anchor name="aboveUC" x="461" y="694"/>
</glyph>
<glyph name="ve" format="2">
	<unicode hex="0432"/>
	<advance width="435"/>
	<outline>
		<contour>
			<point x="187" y="-13" type="curve" smooth="yes"/>
			<point x="301" y="-13"/>
			<point x="379" y="63"/>
			<point x="379" y="145" type="curve" smooth="yes"/>
			<point x="379" y="201"/>
			<point x="338" y="244"/>
			<point x="252" y="249" type="curve"/>
			<point x="252" y="255" type="line"/>
			<point x="216" y="237" type="line"/>
			<point x="306" y="228"/>
			<point x="334" y="193"/>
			<point x="334" y="138" type="curve" smooth="yes"/>
			<point x="334" y="65"/>
			<point x="271" y="12"/>
			<point x="194" y="12" type="curve" smooth="yes"/>
			<point x="135" y="12"/>
			<point x="95" y="48"/>
			<point x="95" y="150" type="curve" smooth="yes"/>
			<point x="95" y="227"/>
			<point x="130" y="327"/>
			<point x="173" y="381" type="curve" smooth="yes"/>
			<point x="210" y="428"/>
			<point x="261" y="454"/>
			<point x="313" y="454" type="curve" smooth="yes"/>
			<point x="351" y="454"/>
			<point x="376" y="435"/>
			<point x="376" y="390" type="curve" smooth="yes"/>
			<point x="376" y="322"/>
			<point x="315" y="246"/>
			<point x="82" y="237" type="curve"/>
			<point x="80" y="214" type="line"/>
			<point x="325" y="225"/>
			<point x="418" y="310"/>
			<point x="418" y="394" type="curve" smooth="yes"/>
			<point x="418" y="447"/>
			<point x="377" y="478"/>
			<point x="319" y="478" type="curve" smooth="yes"/>
			<point x="252" y="478"/>
			<point x="189" y="448"/>
			<point x="141" y="391" type="curve" smooth="yes"/>
			<point x="92" y="337"/>
			<point x="49" y="234"/>
			<point x="49" y="144" type="curve" smooth="yes"/>
			<point x="49" y="29"/>
			<point x="109" y="-13"/>
		</contour>
	</outline>
</glyph>
<glyph name="de" format="2">
	<unicode hex="0434"/>
	<advance width="469"/>
	<outline>
		<contour>
			<point x="185" y="-9" type="curve" smooth="yes"/>
			<point x="341" y="-9"/>
			<point x="464" y="201"/>
			<point x="464" y="527" type="curve" smooth="yes"/>
			<point x="464" y="666"/>
			<point x="409" y="746"/>
			<point x="303" y="746" type="curve" smooth="yes"/>
			<point x="243" y="746"/>
			<point x="197" y="721"/>
			<point x="153" y="683" type="curve"/>
			<point x="165" y="667" type="line"/>
			<point x="207" y="699"/>
			<point x="247" y="716"/>
			<point x="290" y="716" type="curve" smooth="yes"/>
			<point x="377" y="716"/>
			<point x="422" y="645"/>
			<point x="422" y="522" type="curve" smooth="yes"/>
			<point x="422" y="210"/>
			<point x="313" y="17"/>
			<point x="193" y="17" type="curve" smooth="yes"/>
			<point x="138" y="17"/>
			<point x="98" y="48"/>
			<point x="98" y="162" type="curve" smooth="yes"/>
			<point x="98" y="301"/>
			<point x="179" y="453"/>
			<point x="300" y="453" type="curve" smooth="yes"/>
			<point x="359" y="453"/>
			<point x="405" y="423"/>
			<point x="429" y="362" type="curve"/>
			<point x="444" y="389" type="line"/>
			<point x="437" y="389" type="line"/>
			<point x="414" y="445"/>
			<point x="364" y="478"/>
			<point x="299" y="478" type="curve" smooth="yes"/>
			<point x="158" y="478"/>
			<point x="52" y="316"/>
			<point x="52" y="160" type="curve" smooth="yes"/>
			<point x="52" y="41"/>
			<point x="106" y="-9"/>
		</contour>
	</outline>
</glyph>
<glyph name="zhe" format="2">
	<unicode hex="0436"/>
	<advance width="778"/>
	<outline>
		<contour>
			<point x="81" y="-11" type="curve" smooth="yes"/>
			<point x="171" y="-11"/>
			<point x="278" y="166"/>
			<point x="278" y="347" type="curve" smooth="yes"/>
			<point x="278" y="445"/>
			<point x="239" y="478"/>
			<point x="192" y="478" type="curve" smooth="yes"/>
			<point x="143" y="478"/>
			<point x="101" y="433"/>
			<point x="70" y="361" type="curve"/>
			<point x="86" y="351" type="line"/>
			<point x="112" y="402"/>
			<point x="142" y="441"/>
			<point x="178" y="441" type="curve" smooth="yes"/>
			<point x="215" y="441"/>
			<point x="237" y="414"/>
			<point x="237" y="332" type="curve" smooth="yes"/>
			<point x="237" y="185"/>
			<point x="161" y="20"/>
			<point x="75" y="7" type="curve"/>
			<point x="73" y="2" type="line"/>
			<point x="84" y="-3" type="line"/>
			<point x="88" y="1" type="line"/>
			<point x="72" y="51" type="line" smooth="yes"/>
			<point x="66" y="73"/>
			<point x="56" y="85"/>
			<point x="38" y="85" type="curve" smooth="yes"/>
			<point x="27" y="85"/>
			<point x="18" y="78"/>
			<point x="14" y="62" type="curve"/>
			<point x="17" y="23"/>
			<point x="45" y="-11"/>
		</contour>
		<contour>
			<point x="249" y="232" type="line"/>
			<point x="552" y="241" type="line"/>
			<point x="553" y="261" type="line"/>
			<point x="250" y="258" type="line"/>
		</contour>
		<contour>
			<point x="335" y="-6" type="line"/>
			<point x="370" y="0" type="line"/>
			<point x="383" y="71"/>
			<point x="396" y="137"/>
			<point x="411" y="205" type="curve" smooth="yes"/>
			<point x="466" y="466" type="line"/>
			<point x="459" y="472" type="line"/>
			<point x="423" y="466" type="line"/>
			<point x="410" y="395"/>
			<point x="398" y="329"/>
			<point x="383" y="261" type="curve" smooth="yes"/>
			<point x="328" y="0" type="line"/>
		</contour>
		<contour>
			<point x="603" y="-11" type="curve" smooth="yes"/>
			<point x="653" y="-12"/>
			<point x="694" y="34"/>
			<point x="726" y="106" type="curve"/>
			<point x="709" y="115" type="line"/>
			<point x="683" y="65"/>
			<point x="653" y="26"/>
			<point x="617" y="26" type="curve" smooth="yes"/>
			<point x="581" y="26"/>
			<point x="559" y="52"/>
			<point x="559" y="135" type="curve" smooth="yes"/>
			<point x="559" y="281"/>
			<point x="635" y="447"/>
			<point x="721" y="460" type="curve"/>
			<point x="727" y="461" type="line"/>
			<point x="719" y="470" type="line"/>
			<point x="706" y="469" type="line"/>
			<point x="723" y="416" type="line" smooth="yes"/>
			<point x="730" y="393"/>
			<point x="739" y="382"/>
			<point x="757" y="382" type="curve" smooth="yes"/>
			<point x="768" y="382"/>
			<point x="778" y="389"/>
			<point x="782" y="405" type="curve"/>
			<point x="779" y="444"/>
			<point x="751" y="478"/>
			<point x="715" y="478" type="curve" smooth="yes"/>
			<point x="625" y="478"/>
			<point x="518" y="300"/>
			<point x="518" y="119" type="curve" smooth="yes"/>
			<point x="518" y="21"/>
			<point x="557" y="-11"/>
		</contour>
	</outline>
	<anchor name="aboveLC" x="443" y="486"/>
</glyph>
<glyph name="em" format="2">
	<unicode hex="043C"/>
	<advance width="727"/>
	<outline>
		<contour>
			<point x="58" y="-13" type="curve" smooth="yes"/>
			<point x="81" y="-13"/>
			<point x="101" y="-3"/>
			<point x="117" y="24" type="curve" smooth="yes"/>
			<point x="142" y="65"/>
			<point x="168" y="125"/>
			<point x="200" y="213" type="curve" smooth="yes"/>
			<point x="228" y="287"/>
			<point x="251" y="362"/>
			<point x="272" y="436" type="curve"/>
			<point x="261" y="435" type="line"/>
			<point x="315" y="19" type="line"/>
			<point x="323" y="13" type="line"/>
			<point x="345" y="19" type="line"/>
			<point x="428" y="155"/>
			<point x="509" y="293"/>
			<point x="589" y="430" type="curve"/>
			<point x="595" y="440" type="line"/>
			<point x="603" y="440" type="line"/>
			<point x="586" y="451" type="line"/>
			<point x="535" y="104" type="line" smooth="yes"/>
			<point x="530" y="69"/>
			<point x="528" y="53"/>
			<point x="528" y="35" type="curve" smooth="yes"/>
			<point x="528" y="5"/>
			<point x="548" y="-13"/>
			<point x="575" y="-13" type="curve" smooth="yes"/>
			<point x="632" y="-13"/>
			<point x="678" y="38"/>
			<point x="719" y="96" type="curve"/>
			<point x="705" y="107" type="line"/>
			<point x="665" y="58"/>
			<point x="628" y="27"/>
			<point x="598" y="27" type="curve" smooth="yes"/>
			<point x="583" y="27"/>
			<point x="573" y="35"/>
			<point x="573" y="51" type="curve" smooth="yes"/>
			<point x="573" y="66"/>
			<point x="576" y="89"/>
			<point x="579" y="111" type="curve" smooth="yes"/>
			<point x="630" y="467" type="line"/>
			<point x="620" y="474" type="line"/>
			<point x="584" y="466" type="line"/>
			<point x="504" y="328"/>
			<point x="424" y="192"/>
			<point x="343" y="58" type="curve"/>
			<point x="334" y="45" type="line"/>
			<point x="352" y="45" type="line"/>
			<point x="297" y="467" type="line"/>
			<point x="288" y="474" type="line"/>
			<point x="258" y="466" type="line"/>
			<point x="235" y="390"/>
			<point x="208" y="305"/>
			<point x="176" y="222" type="curve" smooth="yes"/>
			<point x="142" y="128"/>
			<point x="119" y="73"/>
			<point x="91" y="35" type="curve"/>
			<point x="98" y="24" type="line"/>
			<point x="118" y="43" type="line"/>
			<point x="89" y="56"/>
			<point x="75" y="58"/>
			<point x="63" y="58" type="curve" smooth="yes"/>
			<point x="40" y="58"/>
			<point x="21" y="47"/>
			<point x="16" y="28" type="curve"/>
			<point x="16" y="-2"/>
			<point x="36" y="-13"/>
		</contour>
	</outline>
</glyph>
<glyph name="tse" format="2">
	<unicode hex="0446"/>
	<advance width="544"/>
	<outline>
		<contour>
			<point x="338" y="-244" type="line"/>
			<point x="409" y="-226"/>
			<point x="454" y="-185"/>
			<point x="455" y="-121" type="curve" smooth="yes"/>
			<point x="456" y="-65" type="line" smooth="yes"/>
			<point x="457" y="-10"/>
			<point x="485" y="28"/>
			<point x="533" y="96" type="curve"/>
			<point x="517" y="94" type="line"/>
			<point x="464" y="22" type="line"/>
			<point x="469" y="18" type="line"/>
			<point x="430" y="-28"/>
			<point x="417" y="-62"/>
			<point x="415" y="-95" type="curve" smooth="yes"/>
			<point x="412" y="-141" type="line" smooth="yes"/>
			<point x="410" y="-183"/>
			<point x="382" y="-207"/>
			<point x="334" y="-227" type="curve"/>
		</contour>
		<component base="icyr"/>
	</outline>
	<anchor name="aboveLC" x="316" y="486"/>
</glyph>
<glyph name="che" format="2">
	<unicode hex="0447"/>
	<advance width="511"/>
	<outline>
		<contour>
			<point x="175" y="177" type="curve" smooth="yes"/>
			<point x="239" y="177"/>
			<point x="313" y="228"/>
			<point x="377" y="284" type="curve"/>
			<point x="385" y="284" type="line"/>
			<point x="373" y="301" type="line"/>
			<point x="305" y="250"/>
			<point x="249" y="216"/>
			<point x="197" y="216" type="curve" smooth="yes"/>
			<point x="165" y="216"/>
			<point x="149" y="234"/>
			<point x="149" y="262" type="curve" smooth="yes"/>
			<point x="149" y="290"/>
			<point x="159" y="335"/>
			<point x="189" y="468" type="curve"/>
			<point x="178" y="477" type="line"/>
			<point x="51" y="450" type="line"/>
			<point x="49" y="433" type="line"/>
			<point x="149" y="428" type="line"/>
			<point x="141" y="437" type="line"/>
			<point x="115" y="326"/>
			<point x="104" y="283"/>
			<point x="104" y="246" type="curve" smooth="yes"/>
			<point x="104" y="200"/>
			<point x="132" y="177"/>
		</contour>
		<contour>
			<point x="356" y="-13" type="curve" smooth="yes"/>
			<point x="413" y="-13"/>
			<point x="459" y="38"/>
			<point x="501" y="96" type="curve"/>
			<point x="487" y="107" type="line"/>
			<point x="446" y="58"/>
			<point x="409" y="27"/>
			<point x="379" y="27" type="curve" smooth="yes"/>
			<point x="364" y="27"/>
			<point x="354" y="35"/>
			<point x="354" y="51" type="curve" smooth="yes"/>
			<point x="354" y="66"/>
			<point x="358" y="88"/>
			<point x="363" y="109" type="curve" smooth="yes"/>
			<point x="439" y="470" type="line"/>
			<point x="430" y="477" type="line"/>
			<point x="392" y="465" type="line"/>
			<point x="380" y="398"/>
			<point x="368" y="336"/>
			<point x="354" y="272" type="curve" smooth="yes"/>
			<point x="318" y="102" type="line" smooth="yes"/>
			<point x="311" y="69"/>
			<point x="309" y="52"/>
			<point x="309" y="34" type="curve" smooth="yes"/>
			<point x="309" y="5"/>
			<point x="328" y="-13"/>
		</contour>
	</outline>
	<anchor name="aboveLC" x="290" y="486"/>
</glyph>
<glyph name="Yat" format="2">
	<unicode hex="0462"/>
	<advance width="663"/>
	<outline>
		<contour>
			<point x="63" y="437" type="line"/>
			<point x="92" y="437" type="line"/>
			<point x="143" y="577" type="line"/>
			<point x="114" y="550" type="line"/>
			<point x="583" y="550" type="line"/>
			<point x="564" y="577" type="line"/>
			<point x="564" y="437" type="line"/>
			<point x="592" y="437" type="line"/>
			<point x="612" y="579" type="line"/>
			<point x="96" y="579" type="line"/>
		</contour>
		<contour>
			<point x="227" y="0" type="line"/>
			<point x="371" y="0" type="line" smooth="yes"/>
			<point x="534" y="0"/>
			<point x="635" y="80"/>
			<point x="635" y="209" type="curve" smooth="yes"/>
			<point x="635" y="304"/>
			<point x="575" y="365"/>
			<point x="438" y="365" type="curve" smooth="yes"/>
			<point x="386" y="365"/>
			<point x="339" y="361"/>
			<point x="291" y="351" type="curve"/>
			<point x="286" y="325" type="line"/>
			<point x="333" y="334"/>
			<point x="378" y="339"/>
			<point x="430" y="339" type="curve" smooth="yes"/>
			<point x="528" y="339"/>
			<point x="585" y="294"/>
			<point x="585" y="210" type="curve" smooth="yes"/>
			<point x="585" y="94"/>
			<point x="503" y="27"/>
			<point x="370" y="27" type="curve" smooth="yes"/>
			<point x="232" y="27" type="line"/>
		</contour>
		<contour>
			<point x="199" y="0" type="line"/>
			<point x="252" y="0" type="line"/>
			<point x="268" y="104"/>
			<point x="286" y="208"/>
			<point x="305" y="312" type="curve" smooth="yes"/>
			<point x="385" y="736" type="line"/>
			<point x="332" y="736" type="line"/>
			<point x="316" y="633"/>
			<point x="297" y="520"/>
			<point x="277" y="417" type="curve" smooth="yes"/>
		</contour>
		<contour>
			<point x="228" y="712" type="line"/>
			<point x="344" y="703" type="line"/>
			<point x="362" y="703" type="line"/>
			<point x="480" y="712" type="line"/>
			<point x="485" y="736" type="line"/>
			<point x="233" y="736" type="line"/>
		</contour>
		<contour>
			<point x="105" y="0" type="line"/>
			<point x="226" y="0" type="line"/>
			<point x="232" y="33" type="line"/>
			<point x="221" y="33" type="line"/>
			<point x="110" y="24" type="line"/>
		</contour>
	</outline>
	<anchor name="aboveUC" x="360" y="756"/>
</glyph>
<glyph name="gheup" format="2">
	<unicode hex="0491"/>
	<advance width="347"/>
	<outline>
		<contour>
			<point x="88" y="-13" type="curve" smooth="yes"/>
			<point x="142" y="-13"/>
			<point x="158" y="26"/>
			<point x="173" y="109" type="curve" smooth="yes"/>
			<point x="217" y="360" type="line" smooth="yes"/>
			<point x="226" y="414"/>
			<point x="260" y="443"/>
			<point x="306" y="446" type="curve" smooth="yes"/>
			<point x="360" y="451" type="line"/>
			<point x="392" y="596" type="line"/>
			<point x="370" y="599" type="line"/>
			<point x="318" y="458" type="line"/>
			<point x="340" y="472" type="line"/>
			<point x="308" y="470" type="line" smooth="yes"/>
			<point x="229" y="467"/>
			<point x="188" y="431"/>
			<point x="173" y="345" type="curve" smooth="yes"/>
			<point x="132" y="108" type="line" smooth="yes"/>
			<point x="121" y="47"/>
			<point x="105" y="24"/>
			<point x="82" y="24" type="curve" smooth="yes"/>
			<point x="57" y="24"/>
			<point x="40" y="40"/>
			<point x="18" y="67" type="curve"/>
			<point x="4" y="51" type="line"/>
			<point x="29" y="5"/>
			<point x="58" y="-13"/>
		</contour>
	</outline>
</glyph>
<glyph name="Zhedescender" format="2">
	<unicode hex="0496"/>
	<advance width="915"/>
	<outline>
		<contour>
			<point x="789" y="0" type="line"/>
			<point x="869" y="0" type="line"/>
			<point x="845" y="22" type="line"/>
			<point x="830" y="-183" type="line"/>
			<point x="858" y="-183" type="line"/>
			<point x="893" y="24" type="line"/>
			<point x="781" y="33" type="line"/>
		</contour>
		<component base="Zhe"/>
	</outline>
</glyph>
<glyph name="Kadescender" format="2">
	<unicode hex="049A"/>
	<advance width="631"/>
	<outline>
		<contour>
			<point x="514" y="0" type="line"/>
			<point x="595" y="0" type="line"/>
			<point x="571" y="22" type="line"/>
			<point x="561" y="-183" type="line"/>
			<point x="589" y="-183" type="line"/>
			<point x="619" y="24" type="line"/>
			<point x="506" y="32" type="line"/>
		</contour>
		<component base="Ka"/>
	</outline>
</glyph>
<glyph name="Endescender" format="2">
	<unicode hex="04A2"/>
	<advance width="748"/>
	<outline>
		<contour>
			<point x="550" y="0" type="line"/>
			<point x="638" y="0" type="line"/>
			<point x="623" y="14" type="line"/>
			<point x="614" y="-183" type="line"/>
			<point x="642" y="-183" type="line"/>
			<point x="672" y="24" type="line"/>
			<point x="550" y="34" type="line"/>
		</contour>
		<component base="En"/>
	</outline>
</glyph>
<glyph name="Ustraightstroke" format="2">
	<unicode hex="04B0"/>
	<advance width="565"/>
	<outline>
		<contour>
			<point x="474" y="256" type="line"/>
			<point x="480" y="283" type="line"/>
			<point x="123" y="283" type="line"/>
			<point x="118" y="256" type="line"/>
		</contour>
		<component base="Ustraight"/>
	</outline>
	<anchor name="aboveUC" x="366" y="694"/>
</glyph>
<glyph name="ustraightstroke" format="2">
	<unicode hex="04B1"/>
	<advance width="458"/>
	<outline>
		<contour>
			<point x="25" y="0" type="line"/>
			<point x="360" y="0" type="line"/>
			<point x="363" y="25" type="line"/>
			<point x="28" y="25" type="line"/>
		</contour>
		<component base="ustraight"/>
	</outline>
	<anchor name="aboveLC" x="289" y="486"/>
</glyph>
<glyph name="Hadescender" format="2">
	<unicode hex="04B2"/>
	<advance width="623"/>
	<outline>
		<contour>
			<point x="480" y="0" type="line"/>
			<point x="567" y="0" type="line"/>
			<point x="543" y="23" type="line"/>
			<point x="533" y="-183" type="line"/>
			<point x="561" y="-183" type="line"/>
			<point x="591" y="24" type="line"/>
			<point x="474" y="33" type="line"/>
		</contour>
		<component base="Ha"/>
	</outline>
</glyph>
<glyph name="Chedescender" format="2">
	<unicode hex="04B6"/>
	<advance width="644"/>
	<outline>
		<contour>
			<point x="460" y="0" type="line"/>
			<point x="548" y="0" type="line"/>
			<point x="524" y="22" type="line"/>
			<point x="510" y="-183" type="line"/>
			<point x="538" y="-183" type="line"/>
			<point x="572" y="24" type="line"/>
			<point x="450" y="34" type="line"/>
		</contour>
		<component base="Che"/>
	</outline>
</glyph>
<glyph name="a.sups" format="2">
	<unicode hex="1D43"/>
	<advance width="354"/>
	<outline>
		<contour>
			<point x="170" y="424" type="curve" smooth="yes"/>
			<point x="221" y="424"/>
			<point x="272" y="476"/>
			<point x="317" y="537" type="curve"/>
			<point x="320" y="537" type="line"/>
			<point x="313" y="546" type="line"/>
			<point x="260" y="488"/>
			<point x="225" y="455"/>
			<point x="188" y="455" type="curve" smooth="yes"/>
			<point x="160" y="455"/>
			<point x="141" y="475"/>
			<point x="141" y="521" type="curve" smooth="yes"/>
			<point x="141" y="612"/>
			<point x="211" y="717"/>
			<point x="290" y="717" type="curve" smooth="yes"/>
			<point x="313" y="717"/>
			<point x="332" y="707"/>
			<point x="347" y="691" type="curve"/>
			<point x="363" y="709" type="line"/>
			<point x="349" y="731"/>
			<point x="329" y="745"/>
			<point x="303" y="745" type="curve" smooth="yes"/>
			<point x="210" y="745"/>
			<point x="103" y="614"/>
			<point x="103" y="506" type="curve" smooth="yes"/>
			<point x="103" y="445"/>
			<point x="136" y="424"/>
		</contour>
		<contour>
			<point x="318" y="424" type="curve" smooth="yes"/>
			<point x="359" y="424"/>
			<point x="393" y="459"/>
			<point x="419" y="497" type="curve"/>
			<point x="408" y="505" type="line"/>
			<point x="383" y="475"/>
			<point x="358" y="455"/>
			<point x="339" y="455" type="curve" smooth="yes"/>
			<point x="329" y="455"/>
			<point x="321" y="459"/>
			<point x="321" y="468" type="curve" smooth="yes"/>
			<point x="321" y="479"/>
			<point x="324" y="492"/>
			<point x="327" y="506" type="curve" smooth="yes"/>
			<point x="378" y="741" type="line"/>
			<point x="371" y="747" type="line"/>
			<point x="339" y="718" type="line"/>
			<point x="336" y="716" type="line"/>
			<point x="295" y="523" type="line"/>
			<point x="293" y="513" type="line" smooth="yes"/>
			<point x="287" y="487"/>
			<point x="285" y="473"/>
			<point x="285" y="459" type="curve" smooth="yes"/>
			<point x="285" y="436"/>
			<point x="299" y="424"/>
		</contour>
	</outline>
</glyph>
<glyph name="b.sups" format="2">
	<unicode hex="1D47"/>
	<advance width="334"/>
	<outline>
		<contour>
			<point x="184" y="420" type="curve" smooth="yes"/>
			<point x="285" y="420"/>
			<point x="390" y="549"/>
			<point x="390" y="660" type="curve" smooth="yes"/>
			<point x="390" y="719"/>
			<point x="361" y="740"/>
			<point x="326" y="740" type="curve" smooth="yes"/>
			<point x="275" y="740"/>
			<point x="210" y="691"/>
			<point x="168" y="625" type="curve"/>
			<point x="165" y="625" type="line"/>
			<point x="173" y="619" type="line"/>
			<point x="224" y="675"/>
			<point x="269" y="709"/>
			<point x="308" y="709" type="curve" smooth="yes"/>
			<point x="335" y="709"/>
			<point x="352" y="689"/>
			<point x="352" y="645" type="curve" smooth="yes"/>
			<point x="352" y="553"/>
			<point x="279" y="447"/>
			<point x="200" y="447" type="curve" smooth="yes"/>
			<point x="170" y="447"/>
			<point x="158" y="464"/>
			<point x="158" y="488" type="curve" smooth="yes"/>
			<point x="158" y="512"/>
			<point x="163" y="534"/>
			<point x="170" y="570" type="curve" smooth="yes"/>
			<point x="185" y="639" type="line"/>
			<point x="187" y="646" type="line"/>
			<point x="241" y="903" type="line"/>
			<point x="235" y="909" type="line"/>
			<point x="128" y="887" type="line"/>
			<point x="126" y="874" type="line"/>
			<point x="207" y="870" type="line"/>
			<point x="200" y="879" type="line"/>
			<point x="135" y="572" type="line" smooth="yes"/>
			<point x="129" y="540"/>
			<point x="121" y="510"/>
			<point x="121" y="482" type="curve" smooth="yes"/>
			<point x="121" y="442"/>
			<point x="145" y="420"/>
		</contour>
	</outline>
</glyph>
<glyph name="e.sups" format="2">
	<unicode hex="1D49"/>
	<advance width="280"/>
	<outline>
		<contour>
			<point x="209" y="420" type="curve" smooth="yes"/>
			<point x="259" y="420"/>
			<point x="299" y="452"/>
			<point x="327" y="496" type="curve"/>
			<point x="316" y="504" type="line"/>
			<point x="293" y="474"/>
			<point x="262" y="452"/>
			<point x="223" y="452" type="curve" smooth="yes"/>
			<point x="176" y="452"/>
			<point x="145" y="481"/>
			<point x="145" y="544" type="curve" smooth="yes"/>
			<point x="145" y="633"/>
			<point x="215" y="722"/>
			<point x="275" y="722" type="curve" smooth="yes"/>
			<point x="300" y="722"/>
			<point x="316" y="708"/>
			<point x="316" y="685" type="curve" smooth="yes"/>
			<point x="316" y="636"/>
			<point x="258" y="585"/>
			<point x="129" y="553" type="curve"/>
			<point x="132" y="538" type="line"/>
			<point x="283" y="574"/>
			<point x="349" y="630"/>
			<point x="349" y="686" type="curve" smooth="yes"/>
			<point x="349" y="721"/>
			<point x="322" y="740"/>
			<point x="283" y="740" type="curve" smooth="yes"/>
			<point x="190" y="740"/>
			<point x="109" y="637"/>
			<point x="109" y="533" type="curve" smooth="yes"/>
			<point x="109" y="455"/>
			<point x="154" y="420"/>
		</contour>
	</outline>
</glyph>
<glyph name="k.sups" format="2">
	<unicode hex="1D4F"/>
	<advance width="325"/>
	<outline>
		<contour>
			<point x="116" y="429" type="line"/>
			<point x="121" y="424" type="line"/>
			<point x="152" y="428" type="line"/>
			<point x="249" y="903" type="line"/>
			<point x="243" y="909" type="line"/>
			<point x="137" y="888" type="line"/>
			<point x="135" y="875" type="line"/>
			<point x="217" y="870" type="line"/>
			<point x="208" y="882" type="line"/>
		</contour>
		<contour>
			<point x="389" y="429" type="curve"/>
			<point x="391" y="441" type="line"/>
			<point x="360" y="443" type="line" smooth="yes"/>
			<point x="338" y="444"/>
			<point x="325" y="452"/>
			<point x="312" y="477" type="curve" smooth="yes"/>
			<point x="287" y="528" type="line" smooth="yes"/>
			<point x="267" y="568"/>
			<point x="247" y="586"/>
			<point x="208" y="593" type="curve" smooth="yes"/>
			<point x="188" y="598" type="line"/>
			<point x="188" y="593" type="line"/>
			<point x="367" y="691" type="line" smooth="yes"/>
			<point x="385" y="700"/>
			<point x="391" y="706"/>
			<point x="391" y="717" type="curve" smooth="yes"/>
			<point x="391" y="728"/>
			<point x="384" y="737"/>
			<point x="373" y="738" type="curve"/>
			<point x="178" y="596" type="line"/>
			<point x="179" y="588" type="line"/>
			<point x="193" y="585" type="line" smooth="yes"/>
			<point x="222" y="577"/>
			<point x="234" y="562"/>
			<point x="250" y="527" type="curve" smooth="yes"/>
			<point x="278" y="469" type="line" smooth="yes"/>
			<point x="294" y="432"/>
			<point x="314" y="422"/>
			<point x="346" y="422" type="curve" smooth="yes"/>
			<point x="359" y="422"/>
			<point x="372" y="423"/>
		</contour>
	</outline>
</glyph>
<glyph name="m.sups" format="2">
	<unicode hex="1D50"/>
	<advance width="547"/>
	<outline>
		<contour>
			<point x="510" y="420" type="curve" smooth="yes"/>
			<point x="552" y="420"/>
			<point x="585" y="454"/>
			<point x="612" y="493" type="curve"/>
			<point x="601" y="500" type="line"/>
			<point x="575" y="470"/>
			<point x="551" y="451"/>
			<point x="532" y="451" type="curve" smooth="yes"/>
			<point x="512" y="451"/>
			<point x="514" y="467"/>
			<point x="520" y="493" type="curve" smooth="yes"/>
			<point x="554" y="635" type="line" smooth="yes"/>
			<point x="559" y="658"/>
			<point x="564" y="677"/>
			<point x="564" y="696" type="curve" smooth="yes"/>
			<point x="564" y="724"/>
			<point x="549" y="740"/>
			<point x="521" y="740" type="curve" smooth="yes"/>
			<point x="479" y="740"/>
			<point x="424" y="704"/>
			<point x="375" y="654" type="curve"/>
			<point x="367" y="654" type="line"/>
			<point x="373" y="638" type="line"/>
			<point x="434" y="688"/>
			<point x="469" y="709"/>
			<point x="499" y="709" type="curve" smooth="yes"/>
			<point x="516" y="709"/>
			<point x="526" y="700"/>
			<point x="526" y="681" type="curve" smooth="yes"/>
			<point x="526" y="666"/>
			<point x="521" y="646"/>
			<point x="516" y="625" type="curve" smooth="yes"/>
			<point x="486" y="497" type="line" smooth="yes"/>
			<point x="481" y="477"/>
			<point x="478" y="464"/>
			<point x="478" y="449" type="curve" smooth="yes"/>
			<point x="478" y="432"/>
			<point x="491" y="420"/>
		</contour>
		<contour>
			<point x="162" y="428" type="line"/>
			<point x="208" y="655" type="line"/>
			<point x="209" y="658" type="line"/>
			<point x="224" y="733" type="line"/>
			<point x="217" y="740" type="line"/>
			<point x="113" y="718" type="line"/>
			<point x="111" y="705" type="line"/>
			<point x="192" y="701" type="line"/>
			<point x="184" y="709" type="line"/>
			<point x="124" y="429" type="line"/>
			<point x="129" y="424" type="line"/>
		</contour>
		<contour>
			<point x="338" y="428" type="line"/>
			<point x="385" y="652" type="line"/>
			<point x="385" y="654" type="line"/>
			<point x="388" y="670"/>
			<point x="391" y="681"/>
			<point x="391" y="696" type="curve" smooth="yes"/>
			<point x="391" y="724"/>
			<point x="376" y="740"/>
			<point x="347" y="740" type="curve" smooth="yes"/>
			<point x="305" y="740"/>
			<point x="247" y="704"/>
			<point x="198" y="653" type="curve"/>
			<point x="190" y="653" type="line"/>
			<point x="196" y="637" type="line"/>
			<point x="257" y="687"/>
			<point x="295" y="709"/>
			<point x="326" y="709" type="curve" smooth="yes"/>
			<point x="342" y="709"/>
			<point x="352" y="700"/>
			<point x="352" y="681" type="curve" smooth="yes"/>
			<point x="352" y="668"/>
			<point x="348" y="650"/>
			<point x="344" y="632" type="curve" smooth="yes"/>
			<point x="300" y="429" type="line"/>
			<point x="306" y="424" type="line"/>
		</contour>
	</outline>
</glyph>
<glyph name="o.sups" format="2">
	<unicode hex="1D52"/>
	<advance width="328"/>
	<outline>
		<contour>
			<point x="216" y="420" type="curve" smooth="yes"/>
			<point x="309" y="420"/>
			<point x="380" y="519"/>
			<point x="380" y="626" type="curve" smooth="yes"/>
			<point x="380" y="705"/>
			<point x="332" y="740"/>
			<point x="273" y="740" type="curve" smooth="yes"/>
			<point x="178" y="740"/>
			<point x="108" y="638"/>
			<point x="108" y="534" type="curve" smooth="yes"/>
			<point x="108" y="454"/>
			<point x="161" y="420"/>
		</contour>
		<contour>
			<point x="219" y="438" type="curve" smooth="yes"/>
			<point x="178" y="438"/>
			<point x="147" y="466"/>
			<point x="147" y="532" type="curve" smooth="yes"/>
			<point x="147" y="623"/>
			<point x="198" y="721"/>
			<point x="270" y="721" type="curve" smooth="yes"/>
			<point x="312" y="721"/>
			<point x="341" y="693"/>
			<point x="341" y="625" type="curve" smooth="yes"/>
			<point x="341" y="536"/>
			<point x="291" y="438"/>
		</contour>
	</outline>
</glyph>
<glyph name="f.sups" format="2">
	<unicode hex="1DA0"/>
	<advance width="206"/>
	<outline>
		<contour>
			<point x="34" y="265" type="curve" smooth="yes"/>
			<point x="62" y="265"/>
			<point x="86" y="276"/>
			<point x="111" y="301" type="curve" smooth="yes"/>
			<point x="147" y="336"/>
			<point x="162" y="387"/>
			<point x="173" y="453" type="curve" smooth="yes"/>
			<point x="221" y="757" type="line" smooth="yes"/>
			<point x="235" y="851"/>
			<point x="267" y="899"/>
			<point x="333" y="905" type="curve"/>
			<point x="333" y="910" type="line"/>
			<point x="313" y="910" type="line"/>
			<point x="313" y="906" type="line"/>
			<point x="339" y="877" type="line" smooth="yes"/>
			<point x="353" y="861"/>
			<point x="361" y="855"/>
			<point x="374" y="855" type="curve" smooth="yes"/>
			<point x="383" y="855"/>
			<point x="392" y="862"/>
			<point x="395" y="874" type="curve"/>
			<point x="389" y="896"/>
			<point x="360" y="916"/>
			<point x="326" y="916" type="curve" smooth="yes"/>
			<point x="256" y="916"/>
			<point x="201" y="859"/>
			<point x="184" y="751" type="curve" smooth="yes"/>
			<point x="138" y="453" type="line" smooth="yes"/>
			<point x="129" y="392"/>
			<point x="117" y="349"/>
			<point x="94" y="317" type="curve" smooth="yes"/>
			<point x="78" y="296"/>
			<point x="62" y="285"/>
			<point x="40" y="279" type="curve"/>
			<point x="40" y="277" type="line"/>
			<point x="55" y="277" type="line"/>
			<point x="55" y="280" type="line"/>
			<point x="36" y="299" type="line" smooth="yes"/>
			<point x="24" y="311"/>
			<point x="13" y="321"/>
			<point x="-2" y="321" type="curve" smooth="yes"/>
			<point x="-13" y="321"/>
			<point x="-23" y="313"/>
			<point x="-25" y="300" type="curve"/>
			<point x="-19" y="279"/>
			<point x="6" y="265"/>
		</contour>
		<contour>
			<point x="105" y="713" type="line"/>
			<point x="194" y="713" type="line"/>
			<point x="306" y="712" type="line"/>
			<point x="310" y="733" type="line"/>
			<point x="197" y="733" type="line"/>
			<point x="197" y="736" type="line"/>
			<point x="107" y="728" type="line"/>
		</contour>
	</outline>
</glyph>
<glyph name="z.sups" format="2">
	<unicode hex="1DBB"/>
	<advance width="301"/>
	<outline>
		<contour>
			<point x="245" y="413" type="curve" smooth="yes"/>
			<point x="297" y="413"/>
			<point x="349" y="454"/>
			<point x="349" y="500" type="curve" smooth="yes"/>
			<point x="349" y="518"/>
			<point x="343" y="531"/>
			<point x="331" y="535" type="curve"/>
			<point x="316" y="533"/>
			<point x="307" y="522"/>
			<point x="307" y="505" type="curve" smooth="yes"/>
			<point x="307" y="491"/>
			<point x="313" y="481"/>
			<point x="327" y="459" type="curve"/>
			<point x="333" y="463" type="line"/>
			<point x="332" y="472" type="line"/>
			<point x="313" y="458"/>
			<point x="288" y="448"/>
			<point x="258" y="448" type="curve" smooth="yes"/>
			<point x="221" y="448"/>
			<point x="194" y="462"/>
			<point x="135" y="498" type="curve"/>
			<point x="124" y="481" type="line"/>
			<point x="175" y="430"/>
			<point x="207" y="413"/>
		</contour>
		<contour>
			<point x="113" y="427" type="line"/>
			<point x="132" y="480" type="line"/>
			<point x="197" y="542"/>
			<point x="273" y="599"/>
			<point x="331" y="658" type="curve" smooth="yes"/>
			<point x="359" y="686"/>
			<point x="378" y="710"/>
			<point x="386" y="735" type="curve"/>
			<point x="381" y="739" type="line"/>
			<point x="353" y="735" type="line"/>
			<point x="333" y="685" type="line"/>
			<point x="266" y="614"/>
			<point x="185" y="552"/>
			<point x="125" y="495" type="curve" smooth="yes"/>
			<point x="103" y="475"/>
			<point x="90" y="452"/>
			<point x="79" y="427" type="curve"/>
			<point x="83" y="423" type="line"/>
		</contour>
		<contour>
			<point x="122" y="620" type="line"/>
			<point x="138" y="617" type="line"/>
			<point x="170" y="722" type="line"/>
			<point x="146" y="704" type="line"/>
			<point x="216" y="693"/>
			<point x="266" y="683"/>
			<point x="329" y="668" type="curve"/>
			<point x="344" y="689" type="line"/>
			<point x="283" y="712"/>
			<point x="231" y="727"/>
			<point x="168" y="741" type="curve"/>
			<point x="136" y="714" type="line"/>
		</contour>
	</outline>
</glyph>
<glyph name="daggerdbl" format="2">
	<unicode hex="2021"/>
	<advance width="476"/>
	<outline>
		<contour>
			<point x="59" y="136" type="curve" smooth="yes"/>
			<point x="78" y="136"/>
			<point x="126" y="143"/>
			<point x="160" y="146" type="curve" smooth="yes"/>
			<point x="231" y="153" type="line"/>
			<point x="234" y="168" type="line"/>
			<point x="166" y="176" type="line" smooth="yes"/>
			<point x="134" y="179"/>
			<point x="88" y="185"/>
			<point x="67" y="185" type="curve" smooth="yes"/>
			<point x="45" y="185"/>
			<point x="30" y="174"/>
			<point x="30" y="156" type="curve" smooth="yes"/>
			<point x="30" y="142"/>
			<point x="40" y="136"/>
		</contour>
		<contour>
			<point x="119" y="485" type="curve" smooth="yes"/>
			<point x="141" y="485"/>
			<point x="188" y="490"/>
			<point x="223" y="494" type="curve" smooth="yes"/>
			<point x="294" y="502" type="line"/>
			<point x="297" y="516" type="line"/>
			<point x="229" y="524" type="line" smooth="yes"/>
			<point x="196" y="528"/>
			<point x="150" y="534"/>
			<point x="127" y="534" type="curve" smooth="yes"/>
			<point x="108" y="534"/>
			<point x="92" y="524"/>
			<point x="92" y="505" type="curve" smooth="yes"/>
			<point x="92" y="493"/>
			<point x="100" y="485"/>
		</contour>
		<contour>
			<point x="192" y="-65" type="curve" smooth="yes"/>
			<point x="208" y="-65"/>
			<point x="219" y="-54"/>
			<point x="222" y="-33" type="curve" smooth="yes"/>
			<point x="226" y="-9"/>
			<point x="229" y="41"/>
			<point x="233" y="79" type="curve" smooth="yes"/>
			<point x="240" y="161" type="line"/>
			<point x="225" y="161" type="line"/>
			<point x="203" y="79" type="line" smooth="yes"/>
			<point x="192" y="39"/>
			<point x="172" y="-20"/>
			<point x="172" y="-42" type="curve" smooth="yes"/>
			<point x="172" y="-59"/>
			<point x="179" y="-65"/>
		</contour>
		<contour>
			<point x="227" y="161" type="curve"/>
			<point x="238" y="161" type="line"/>
			<point x="261" y="233"/>
			<point x="277" y="294"/>
			<point x="284" y="333" type="curve" smooth="yes"/>
			<point x="293" y="382"/>
			<point x="298" y="434"/>
			<point x="301" y="509" type="curve"/>
			<point x="290" y="509" type="line"/>
			<point x="267" y="437"/>
			<point x="250" y="370"/>
			<point x="244" y="332" type="curve" smooth="yes"/>
			<point x="235" y="283"/>
			<point x="231" y="238"/>
		</contour>
		<contour>
			<point x="289" y="509" type="line"/>
			<point x="303" y="509" type="line"/>
			<point x="325" y="591" type="line" smooth="yes"/>
			<point x="336" y="631"/>
			<point x="357" y="689"/>
			<point x="357" y="712" type="curve" smooth="yes"/>
			<point x="357" y="729"/>
			<point x="350" y="735"/>
			<point x="337" y="735" type="curve" smooth="yes"/>
			<point x="321" y="735"/>
			<point x="310" y="724"/>
			<point x="306" y="703" type="curve"/>
			<point x="302" y="679"/>
			<point x="299" y="628"/>
			<point x="296" y="591" type="curve" smooth="yes"/>
		</contour>
		<contour>
			<point x="299" y="146" type="line" smooth="yes"/>
			<point x="332" y="142"/>
			<point x="378" y="136"/>
			<point x="401" y="136" type="curve" smooth="yes"/>
			<point x="421" y="136"/>
			<point x="436" y="145"/>
			<point x="436" y="165" type="curve" smooth="yes"/>
			<point x="436" y="177"/>
			<point x="428" y="185"/>
			<point x="409" y="185" type="curve" smooth="yes"/>
			<point x="387" y="185"/>
			<point x="340" y="179"/>
			<point x="305" y="176" type="curve" smooth="yes"/>
			<point x="234" y="168" type="line"/>
			<point x="231" y="153" type="line"/>
		</contour>
		<contour>
			<point x="362" y="494" type="line" smooth="yes"/>
			<point x="395" y="491"/>
			<point x="440" y="485"/>
			<point x="461" y="485" type="curve" smooth="yes"/>
			<point x="483" y="485"/>
			<point x="498" y="496"/>
			<point x="498" y="514" type="curve" smooth="yes"/>
			<point x="498" y="528"/>
			<point x="489" y="534"/>
			<point x="469" y="534" type="curve" smooth="yes"/>
			<point x="450" y="534"/>
			<point x="402" y="527"/>
			<point x="368" y="524" type="curve" smooth="yes"/>
			<point x="297" y="516" type="line"/>
			<point x="294" y="502" type="line"/>
		</contour>
	</outline>
</glyph>
<glyph name="prime" format="2">
	<unicode hex="2032"/>
	<advance width="230"/>
	<outline>
		<contour>
			<point x="135" y="462" type="line"/>
			<point x="155" y="459" type="line"/>
			<point x="194" y="553" type="line" smooth="yes"/>
			<point x="229" y="633"/>
			<point x="256" y="693"/>
			<point x="256" y="718" type="curve" smooth="yes"/>
			<point x="256" y="733"/>
			<point x="249" y="743"/>
			<point x="233" y="743" type="curve" smooth="yes"/>
			<point x="222" y="743"/>
			<point x="211" y="740"/>
			<point x="202" y="734" type="curve"/>
		</contour>
	</outline>
</glyph>
<glyph name="i.sups" format="2">
	<unicode hex="2071"/>
	<advance width="201"/>
	<outline>
		<contour>
			<point x="129" y="455" type="curve" smooth="yes"/>
			<point x="129" y="436"/>
			<point x="144" y="424"/>
			<point x="163" y="424" type="curve" smooth="yes"/>
			<point x="205" y="424"/>
			<point x="236" y="458"/>
			<point x="264" y="497" type="curve"/>
			<point x="253" y="505" type="line"/>
			<point x="227" y="474"/>
			<point x="202" y="455"/>
			<point x="184" y="455" type="curve" smooth="yes"/>
			<point x="165" y="455"/>
			<point x="165" y="469"/>
			<point x="173" y="502" type="curve" smooth="yes"/>
			<point x="223" y="738" type="line"/>
			<point x="215" y="744" type="line"/>
			<point x="111" y="722" type="line"/>
			<point x="109" y="710" type="line"/>
			<point x="188" y="705" type="line"/>
			<point x="181" y="713" type="line"/>
			<point x="137" y="503" type="line" smooth="yes"/>
			<point x="132" y="482"/>
			<point x="129" y="469"/>
		</contour>
		<contour>
			<point x="226" y="844" type="curve" smooth="yes"/>
			<point x="243" y="844"/>
			<point x="260" y="859"/>
			<point x="260" y="878" type="curve" smooth="yes"/>
			<point x="260" y="895"/>
			<point x="248" y="906"/>
			<point x="231" y="906" type="curve" smooth="yes"/>
			<point x="214" y="906"/>
			<point x="198" y="892"/>
			<point x="198" y="872" type="curve" smooth="yes"/>
			<point x="198" y="854"/>
			<point x="210" y="844"/>
		</contour>
	</outline>
</glyph>
<glyph name="four.sups" format="2">
	<unicode hex="2074"/>
	<advance width="330"/>
	<outline>
		<contour>
			<point x="244" y="420" type="line"/>
			<point x="282" y="420" type="line"/>
			<point x="367" y="832" type="line"/>
			<point x="338" y="832" type="line"/>
			<point x="94" y="569" type="line"/>
			<point x="88" y="542" type="line"/>
			<point x="380" y="542" type="line"/>
			<point x="386" y="574" type="line"/>
			<point x="113" y="574" type="line"/>
			<point x="112" y="563" type="line"/>
			<point x="330" y="797" type="line"/>
			<point x="321" y="797" type="line"/>
			<point x="273" y="562" type="line"/>
			<point x="272" y="555" type="line"/>
		</contour>
	</outline>
</glyph>
<glyph name="five.sups" format="2">
	<unicode hex="2075"/>
	<advance width="330"/>
	<outline>
		<contour>
			<point x="210" y="420" type="curve" smooth="yes"/>
			<point x="291" y="420"/>
			<point x="362" y="469"/>
			<point x="362" y="564" type="curve" smooth="yes"/>
			<point x="362" y="630"/>
			<point x="318" y="674"/>
			<point x="247" y="674" type="curve" smooth="yes"/>
			<point x="216" y="674"/>
			<point x="189" y="666"/>
			<point x="166" y="655" type="curve"/>
			<point x="177" y="650" type="line"/>
			<point x="215" y="797" type="line"/>
			<point x="203" y="787" type="line"/>
			<point x="388" y="787" type="line"/>
			<point x="396" y="825" type="line"/>
			<point x="202" y="825" type="line"/>
			<point x="155" y="642" type="line"/>
			<point x="167" y="638" type="line"/>
			<point x="184" y="647"/>
			<point x="206" y="653"/>
			<point x="234" y="653" type="curve" smooth="yes"/>
			<point x="284" y="653"/>
			<point x="319" y="619"/>
			<point x="319" y="560" type="curve" smooth="yes"/>
			<point x="319" y="484"/>
			<point x="271" y="439"/>
			<point x="209" y="439" type="curve" smooth="yes"/>
			<point x="173" y="439"/>
			<point x="150" y="448"/>
			<point x="128" y="476" type="curve"/>
			<point x="149" y="447" type="line"/>
			<point x="148" y="502" type="line" smooth="yes"/>
			<point x="147" y="525"/>
			<point x="141" y="535"/>
			<point x="126" y="535" type="curve" smooth="yes"/>
			<point x="116" y="535"/>
			<point x="107" y="530"/>
			<point x="103" y="519" type="curve"/>
			<point x="103" y="452"/>
			<point x="145" y="420"/>
		</contour>
	</outline>
</glyph>
<glyph name="six.sups" format="2">
	<unicode hex="2076"/>
	<advance width="330"/>
	<outline>
		<contour>
			<point x="227" y="419" type="curve" smooth="yes"/>
			<point x="300" y="419"/>
			<point x="370" y="475"/>
			<point x="370" y="564" type="curve" smooth="yes"/>
			<point x="370" y="629"/>
			<point x="331" y="671"/>
			<point x="267" y="671" type="curve" smooth="yes"/>
			<point x="223" y="671"/>
			<point x="184" y="653"/>
			<point x="150" y="617" type="curve"/>
			<point x="145" y="617" type="line"/>
			<point x="154" y="606" type="line"/>
			<point x="183" y="634"/>
			<point x="217" y="645"/>
			<point x="249" y="645" type="curve" smooth="yes"/>
			<point x="298" y="645"/>
			<point x="327" y="618"/>
			<point x="327" y="559" type="curve" smooth="yes"/>
			<point x="327" y="485"/>
			<point x="283" y="438"/>
			<point x="233" y="438" type="curve" smooth="yes"/>
			<point x="180" y="438"/>
			<point x="154" y="479"/>
			<point x="154" y="547" type="curve" smooth="yes"/>
			<point x="154" y="690"/>
			<point x="248" y="803"/>
			<point x="403" y="820" type="curve"/>
			<point x="402" y="835" type="line"/>
			<point x="232" y="827"/>
			<point x="112" y="700"/>
			<point x="112" y="550" type="curve" smooth="yes"/>
			<point x="112" y="471"/>
			<point x="153" y="419"/>
		</contour>
	</outline>
</glyph>
<glyph name="seven.sups" format="2">
	<unicode hex="2077"/>
	<advance width="330"/>
	<outline>
		<contour>
			<point x="131" y="428" type="line"/>
			<point x="173" y="428" type="line"/>
			<point x="400" y="801" type="line"/>
			<point x="405" y="825" type="line"/>
			<point x="157" y="825" type="line"/>
			<point x="149" y="788" type="line"/>
			<point x="381" y="788" type="line"/>
			<point x="381" y="806" type="line"/>
			<point x="128" y="435" type="line"/>
		</contour>
	</outline>
</glyph>
<glyph name="nine.sups" format="2">
	<unicode hex="2079"/>
	<advance width="330"/>
	<outline>
		<contour>
			<point x="113" y="423" type="line"/>
			<point x="281" y="463"/>
			<point x="384" y="572"/>
			<point x="384" y="707" type="curve" smooth="yes"/>
			<point x="384" y="789"/>
			<point x="342" y="839"/>
			<point x="269" y="839" type="curve" smooth="yes"/>
			<point x="188" y="839"/>
			<point x="129" y="775"/>
			<point x="129" y="695" type="curve" smooth="yes"/>
			<point x="129" y="634"/>
			<point x="171" y="590"/>
			<point x="237" y="590" type="curve" smooth="yes"/>
			<point x="274" y="590"/>
			<point x="310" y="606"/>
			<point x="345" y="636" type="curve"/>
			<point x="351" y="636" type="line"/>
			<point x="344" y="649" type="line"/>
			<point x="313" y="626"/>
			<point x="283" y="613"/>
			<point x="253" y="613" type="curve" smooth="yes"/>
			<point x="202" y="613"/>
			<point x="170" y="647"/>
			<point x="170" y="701" type="curve" smooth="yes"/>
			<point x="170" y="766"/>
			<point x="211" y="820"/>
			<point x="265" y="820" type="curve" smooth="yes"/>
			<point x="315" y="820"/>
			<point x="343" y="782"/>
			<point x="343" y="713" type="curve" smooth="yes"/>
			<point x="343" y="581"/>
			<point x="262" y="484"/>
			<point x="109" y="440" type="curve"/>
		</contour>
	</outline>
</glyph>
<glyph name="parenleft.sups" format="2">
	<unicode hex="207D"/>
	<advance width="293"/>
	<outline>
		<contour>
			<point x="256" y="302" type="curve"/>
			<point x="271" y="312" type="line"/>
			<point x="228" y="383"/>
			<point x="209" y="447"/>
			<point x="209" y="528" type="curve" smooth="yes"/>
			<point x="209" y="656"/>
			<point x="259" y="768"/>
			<point x="379" y="870" type="curve"/>
			<point x="368" y="884" type="line"/>
			<point x="230" y="785"/>
			<point x="171" y="660"/>
			<point x="171" y="531" type="curve" smooth="yes"/>
			<point x="171" y="446"/>
			<point x="200" y="370"/>
		</contour>
	</outline>
</glyph>
<glyph name="parenright.sups" format="2">
	<unicode hex="207E"/>
	<advance width="293"/>
	<outline>
		<contour>
			<point x="201" y="884" type="curve"/>
			<point x="186" y="873" type="line"/>
			<point x="229" y="802"/>
			<point x="248" y="737"/>
			<point x="248" y="656" type="curve" smooth="yes"/>
			<point x="248" y="528"/>
			<point x="199" y="417"/>
			<point x="78" y="315" type="curve"/>
			<point x="90" y="302" type="line"/>
			<point x="227" y="400"/>
			<point x="286" y="525"/>
			<point x="286" y="654" type="curve" smooth="yes"/>
			<point x="286" y="739"/>
			<point x="257" y="816"/>
		</contour>
	</outline>
</glyph>
<glyph name="peseta" format="2">
	<unicode hex="20A7"/>
	<advance width="497"/>
	<outline>
		<contour>
			<point x="146" y="264" type="line"/>
			<point x="215" y="264" type="line" smooth="yes"/>
			<point x="379" y="264"/>
			<point x="478" y="356"/>
			<point x="478" y="484" type="curve" smooth="yes"/>
			<point x="478" y="585"/>
			<point x="412" y="652"/>
			<point x="282" y="652" type="curve" smooth="yes"/>
			<point x="232" y="652" type="line"/>
			<point x="226" y="625" type="line"/>
			<point x="272" y="625" type="line" smooth="yes"/>
			<point x="383" y="625"/>
			<point x="433" y="573"/>
			<point x="433" y="482" type="curve" smooth="yes"/>
			<point x="433" y="369"/>
			<point x="355" y="289"/>
			<point x="212" y="289" type="curve" smooth="yes"/>
			<point x="152" y="289" type="line"/>
		</contour>
		<contour>
			<point x="-9" y="0" type="line"/>
			<point x="222" y="0" type="line"/>
			<point x="227" y="23" type="line"/>
			<point x="120" y="32" type="line"/>
			<point x="103" y="32" type="line"/>
			<point x="-3" y="23" type="line"/>
		</contour>
		<contour>
			<point x="81" y="0" type="line"/>
			<point x="128" y="0" type="line"/>
			<point x="145" y="100"/>
			<point x="164" y="201"/>
			<point x="184" y="298" type="curve" smooth="yes"/>
			<point x="255" y="652" type="line"/>
			<point x="208" y="652" type="line"/>
			<point x="190" y="551"/>
			<point x="171" y="451"/>
			<point x="151" y="351" type="curve" smooth="yes"/>
		</contour>
		<contour>
			<point x="119" y="628" type="line"/>
			<point x="218" y="619" type="line"/>
			<point x="230" y="619" type="line"/>
			<point x="236" y="652" type="line"/>
			<point x="124" y="652" type="line"/>
		</contour>
		<contour>
			<point x="72" y="443" type="line"/>
			<point x="184" y="443" type="line"/>
			<point x="192" y="443" type="line"/>
			<point x="446" y="443" type="line"/>
			<point x="457" y="443" type="line"/>
			<point x="536" y="443" type="line"/>
			<point x="542" y="473" type="line"/>
			<point x="77" y="473" type="line"/>
		</contour>
	</outline>
</glyph>
<glyph name="guarani" format="2">
	<unicode hex="20B2"/>
	<advance width="497"/>
	<outline>
		<contour>
			<point x="244" y="-13" type="curve" smooth="yes"/>
			<point x="296" y="-13"/>
			<point x="336" y="1"/>
			<point x="387" y="35" type="curve"/>
			<point x="442" y="312" type="line"/>
			<point x="395" y="312" type="line"/>
			<point x="383" y="239"/>
			<point x="368" y="165"/>
			<point x="342" y="30" type="curve"/>
			<point x="367" y="54" type="line"/>
			<point x="325" y="23"/>
			<point x="291" y="12"/>
			<point x="252" y="12" type="curve" smooth="yes"/>
			<point x="158" y="12"/>
			<point x="100" y="87"/>
			<point x="100" y="225" type="curve" smooth="yes"/>
			<point x="100" y="425"/>
			<point x="210" y="638"/>
			<point x="360" y="638" type="curve" smooth="yes"/>
			<point x="408" y="638"/>
			<point x="437" y="624"/>
			<point x="465" y="598" type="curve"/>
			<point x="442" y="629" type="line"/>
			<point x="439" y="480" type="line"/>
			<point x="467" y="480" type="line"/>
			<point x="488" y="621" type="line"/>
			<point x="453" y="649"/>
			<point x="412" y="664"/>
			<point x="363" y="664" type="curve" smooth="yes"/>
			<point x="181" y="664"/>
			<point x="54" y="445"/>
			<point x="54" y="227" type="curve" smooth="yes"/>
			<point x="54" y="79"/>
			<point x="126" y="-13"/>
		</contour>
		<contour>
			<point x="213" y="-115" type="line"/>
			<point x="239" y="-115" type="line"/>
			<point x="263" y="4" type="line"/>
			<point x="237" y="4" type="line"/>
		</contour>
		<contour>
			<point x="291" y="289" type="line"/>
			<point x="403" y="281" type="line"/>
			<point x="418" y="281" type="line"/>
			<point x="495" y="289" type="line"/>
			<point x="500" y="312" type="line"/>
			<point x="295" y="312" type="line"/>
		</contour>
		<contour>
			<point x="357" y="648" type="line"/>
			<point x="382" y="648" type="line"/>
			<point x="404" y="757" type="line"/>
			<point x="378" y="757" type="line"/>
		</contour>
	</outline>
</glyph>
<glyph name="hryvnia" format="2">
	<unicode hex="20B4"/>
	<advance width="497"/>
	<outline>
		<contour>
			<point x="51" y="263" type="line"/>
			<point x="446" y="242" type="line"/>
			<point x="454" y="271" type="line"/>
			<point x="58" y="291" type="line"/>
		</contour>
		<contour>
			<point x="80" y="378" type="line"/>
			<point x="476" y="357" type="line"/>
			<point x="484" y="386" type="line"/>
			<point x="87" y="406" type="line"/>
		</contour>
		<contour>
			<point x="218" y="-13" type="curve" smooth="yes"/>
			<point x="309" y="-13"/>
			<point x="386" y="30"/>
			<point x="411" y="120" type="curve"/>
			<point x="408" y="135"/>
			<point x="400" y="143"/>
			<point x="385" y="143" type="curve" smooth="yes"/>
			<point x="370" y="143"/>
			<point x="355" y="135"/>
			<point x="346" y="108" type="curve" smooth="yes"/>
			<point x="316" y="24" type="line"/>
			<point x="359" y="58" type="line"/>
			<point x="313" y="25"/>
			<point x="274" y="14"/>
			<point x="222" y="14" type="curve" smooth="yes"/>
			<point x="155" y="14"/>
			<point x="108" y="54"/>
			<point x="108" y="122" type="curve" smooth="yes"/>
			<point x="108" y="185"/>
			<point x="140" y="225"/>
			<point x="207" y="269" type="curve" smooth="yes"/>
			<point x="374" y="380" type="line" smooth="yes"/>
			<point x="446" y="428"/>
			<point x="473" y="487"/>
			<point x="473" y="540" type="curve" smooth="yes"/>
			<point x="473" y="615"/>
			<point x="421" y="664"/>
			<point x="336" y="664" type="curve" smooth="yes"/>
			<point x="242" y="664"/>
			<point x="169" y="615"/>
			<point x="145" y="531" type="curve"/>
			<point x="148" y="516"/>
			<point x="157" y="507"/>
			<point x="174" y="507" type="curve" smooth="yes"/>
			<point x="189" y="508"/>
			<point x="202" y="516"/>
			<point x="211" y="543" type="curve" smooth="yes"/>
			<point x="242" y="631" type="line"/>
			<point x="199" y="588" type="line"/>
			<point x="243" y="627"/>
			<point x="278" y="637"/>
			<point x="329" y="637" type="curve" smooth="yes"/>
			<point x="395" y="637"/>
			<point x="431" y="601"/>
			<point x="431" y="539" type="curve" smooth="yes"/>
			<point x="431" y="479"/>
			<point x="403" y="433"/>
			<point x="324" y="380" type="curve" smooth="yes"/>
			<point x="158" y="269" type="line" smooth="yes"/>
			<point x="97" y="229"/>
			<point x="65" y="177"/>
			<point x="65" y="118" type="curve" smooth="yes"/>
			<point x="65" y="36"/>
			<point x="125" y="-13"/>
		</contour>
	</outline>
</glyph>
<glyph name="cedi" format="2">
	<unicode hex="20B5"/>
	<advance width="497"/>
	<outline>
		<contour>
			<point x="186" y="-115" type="line"/>
			<point x="212" y="-115" type="line"/>
			<point x="384" y="757" type="line"/>
			<point x="358" y="757" type="line"/>
		</contour>
		<contour>
			<point x="244" y="-13" type="curve" smooth="yes"/>
			<point x="333" y="-13"/>
			<point x="406" y="35"/>
			<point x="428" y="128" type="curve"/>
			<point x="426" y="146"/>
			<point x="416" y="154"/>
			<point x="402" y="154" type="curve" smooth="yes"/>
			<point x="385" y="154"/>
			<point x="375" y="145"/>
			<point x="365" y="118" type="curve" smooth="yes"/>
			<point x="338" y="32" type="line"/>
			<point x="363" y="60" type="line"/>
			<point x="333" y="29"/>
			<point x="295" y="12"/>
			<point x="248" y="12" type="curve" smooth="yes"/>
			<point x="155" y="12"/>
			<point x="100" y="84"/>
			<point x="100" y="219" type="curve" smooth="yes"/>
			<point x="100" y="420"/>
			<point x="209" y="638"/>
			<point x="359" y="638" type="curve" smooth="yes"/>
			<point x="390" y="638"/>
			<point x="416" y="633"/>
			<point x="444" y="611" type="curve"/>
			<point x="426" y="632" type="line"/>
			<point x="439" y="543" type="line" smooth="yes"/>
			<point x="442" y="514"/>
			<point x="450" y="505"/>
			<point x="469" y="505" type="curve" smooth="yes"/>
			<point x="483" y="505"/>
			<point x="494" y="514"/>
			<point x="497" y="534" type="curve"/>
			<point x="489" y="625"/>
			<point x="438" y="664"/>
			<point x="361" y="664" type="curve" smooth="yes"/>
			<point x="174" y="664"/>
			<point x="54" y="431"/>
			<point x="54" y="222" type="curve" smooth="yes"/>
			<point x="54" y="79"/>
			<point x="118" y="-13"/>
		</contour>
	</outline>
</glyph>
<glyph name="liraturkish" format="2">
	<unicode hex="20BA"/>
	<advance width="497"/>
	<outline>
		<contour>
			<point x="191" y="-13" type="curve" smooth="yes"/>
			<point x="314" y="-13"/>
			<point x="455" y="66"/>
			<point x="463" y="220" type="curve"/>
			<point x="459" y="230"/>
			<point x="451" y="236"/>
			<point x="438" y="236" type="curve" smooth="yes"/>
			<point x="420" y="236"/>
			<point x="406" y="223"/>
			<point x="405" y="195" type="curve" smooth="yes"/>
			<point x="404" y="174"/>
			<point x="404" y="143"/>
			<point x="407" y="101" type="curve"/>
			<point x="416" y="113" type="line"/>
			<point x="423" y="146" type="line"/>
			<point x="381" y="67"/>
			<point x="297" y="13"/>
			<point x="196" y="13" type="curve" smooth="yes"/>
			<point x="166" y="13"/>
			<point x="139" y="16"/>
			<point x="119" y="24" type="curve"/>
			<point x="142" y="6" type="line"/>
			<point x="270" y="652" type="line"/>
			<point x="224" y="652" type="line"/>
			<point x="211" y="577"/>
			<point x="200" y="516"/>
			<point x="177" y="397" type="curve" smooth="yes"/>
			<point x="98" y="2" type="line"/>
			<point x="124" y="-9"/>
			<point x="154" y="-13"/>
		</contour>
		<contour>
			<point x="121" y="628" type="line"/>
			<point x="234" y="619" type="line"/>
			<point x="251" y="619" type="line"/>
			<point x="361" y="628" type="line"/>
			<point x="365" y="652" type="line"/>
			<point x="126" y="652" type="line"/>
		</contour>
		<contour>
			<point x="63" y="330" type="line"/>
			<point x="199" y="396" type="line"/>
			<point x="205" y="428" type="line"/>
			<point x="70" y="361" type="line"/>
		</contour>
		<contour>
			<point x="34" y="191" type="line"/>
			<point x="169" y="257" type="line"/>
			<point x="176" y="289" type="line"/>
			<point x="41" y="222" type="line"/>
		</contour>
		<contour>
			<point x="419" y="530" type="line"/>
			<point x="204" y="425" type="line"/>
			<point x="198" y="393" type="line"/>
			<point x="412" y="499" type="line"/>
		</contour>
		<contour>
			<point x="390" y="391" type="line"/>
			<point x="175" y="286" type="line"/>
			<point x="169" y="254" type="line"/>
			<point x="383" y="360" type="line"/>
		</contour>
	</outline>
</glyph>
<glyph name="arrowdownleft" format="2">
	<unicode hex="2199"/>
	<advance width="660"/>
	<outline>
		<contour>
			<point x="534" y="510" type="line"/>
			<point x="399" y="376" type="line"/>
			<point x="127" y="91" type="line"/>
			<point x="146" y="81" type="line"/>
			<point x="145" y="489" type="line"/>
			<point x="124" y="490" type="line"/>
			<point x="106" y="61" type="line"/>
			<point x="114" y="53" type="line"/>
			<point x="543" y="71" type="line"/>
			<point x="542" y="92" type="line"/>
			<point x="134" y="93" type="line"/>
			<point x="143" y="73" type="line"/>
			<point x="429" y="346" type="line"/>
			<point x="563" y="481" type="line"/>
		</contour>
	</outline>
</glyph>
<glyph name="notequal" format="2">
	<unicode hex="2260"/>
	<advance width="521"/>
	<outline>
		<contour>
			<point x="143" y="69" type="line"/>
			<point x="433" y="581" type="line"/>
			<point x="411" y="592" type="line"/>
			<point x="121" y="81" type="line"/>
		</contour>
		<component base="equal"/>
	</outline>
</glyph>
<glyph name="greaterequal" format="2">
	<unicode hex="2265"/>
	<advance width="521"/>
	<outline>
		<contour>
			<point x="52" y="0" type="line"/>
			<point x="489" y="0" type="line"/>
			<point x="489" y="31" type="line"/>
			<point x="52" y="31" type="line"/>
		</contour>
		<contour>
			<point x="467" y="305" type="line"/>
			<point x="467" y="329" type="line"/>
			<point x="88" y="527" type="line"/>
			<point x="72" y="500" type="line"/>
			<point x="440" y="309" type="line"/>
			<point x="440" y="324" type="line"/>
			<point x="72" y="131" type="line"/>
			<point x="88" y="104" type="line"/>
		</contour>
	</outline>
</glyph>
<glyph name="trianglewhiteleft" format="2">
	<unicode hex="25C1"/>
	<advance width="593"/>
	<outline>
		<contour>
			<point x="493" y="9" type="line"/>
			<point x="501" y="14" type="line"/>
			<point x="501" y="508" type="line"/>
			<point x="493" y="513" type="line"/>
			<point x="64" y="266" type="line"/>
			<point x="64" y="256" type="line"/>
		</contour>
		<contour>
			<point x="115" y="261" type="line"/>
			<point x="471" y="466" type="line"/>
			<point x="471" y="56" type="line"/>
		</contour>
	</outline>
</glyph>
<glyph name="f_f" format="2">
	<unicode hex="FB00"/>
	<advance width="567"/>
	<outline>
		<contour>
			<point x="-65" y="-255" type="curve" smooth="yes"/>
			<point x="-27" y="-255"/>
			<point x="5" y="-241"/>
			<point x="41" y="-205" type="curve" smooth="yes"/>
			<point x="97" y="-151"/>
			<point x="117" y="-70"/>
			<point x="136" y="37" type="curve" smooth="yes"/>
			<point x="162" y="189"/>
			<point x="185" y="345"/>
			<point x="210" y="496" type="curve" smooth="yes"/>
			<point x="240" y="680"/>
			<point x="322" y="735"/>
			<point x="403" y="739" type="curve"/>
			<point x="403" y="747" type="line"/>
			<point x="376" y="747" type="line"/>
			<point x="376" y="743" type="line"/>
			<point x="411" y="705" type="line" smooth="yes"/>
			<point x="430" y="684"/>
			<point x="442" y="674"/>
			<point x="459" y="674" type="curve" smooth="yes"/>
			<point x="471" y="674"/>
			<point x="480" y="679"/>
			<point x="484" y="695" type="curve"/>
			<point x="476" y="725"/>
			<point x="438" y="755"/>
			<point x="388" y="755" type="curve" smooth="yes"/>
			<point x="290" y="755"/>
			<point x="195" y="674"/>
			<point x="166" y="495" type="curve" smooth="yes"/>
			<point x="142" y="340"/>
			<point x="121" y="190"/>
			<point x="95" y="37" type="curve" smooth="yes"/>
			<point x="78" y="-64"/>
			<point x="62" y="-135"/>
			<point x="23" y="-183" type="curve" smooth="yes"/>
			<point x="-2" y="-214"/>
			<point x="-26" y="-229"/>
			<point x="-61" y="-235" type="curve"/>
			<point x="-61" y="-241" type="line"/>
			<point x="-36" y="-240" type="line"/>
			<point x="-36" y="-236" type="line"/>
			<point x="-67" y="-206" type="line" smooth="yes"/>
			<point x="-83" y="-191"/>
			<point x="-98" y="-178"/>
			<point x="-117" y="-178" type="curve" smooth="yes"/>
			<point x="-132" y="-178"/>
			<point x="-145" y="-188"/>
			<point x="-147" y="-204" type="curve"/>
			<point x="-139" y="-232"/>
			<point x="-104" y="-255"/>
		</contour>
		<contour>
			<point x="45" y="440" type="line"/>
			<point x="179" y="440" type="line"/>
			<point x="450" y="440" type="line"/>
			<point x="454" y="468" type="line"/>
			<point x="183" y="468" type="line"/>
			<point x="183" y="470" type="line"/>
			<point x="49" y="461" type="line"/>
		</contour>
		<component base="f" xOffset="274"/>
	</outline>
</glyph>
